<svg width="45" height="38" viewBox="0 0 45 38" fill="none" xmlns="http://www.w3.org/2000/svg">
<g filter="url(#filter0_d_27_239)">
<path d="M4.21686 1.76212L9.21369 1.58404L9.39177 6.58087L4.39494 6.75895L4.21686 1.76212ZM9.21369 1.58404L14.2105 1.40596L14.3886 6.40279L9.39177 6.58087L9.21369 1.58404ZM14.2105 1.40596L19.2073 1.22788L19.3854 6.22471L14.3886 6.40279L14.2105 1.40596ZM14.3886 6.40279L19.3854 6.22471L19.5635 11.2215L14.5667 11.3996L14.3886 6.40279ZM14.5667 11.3996L19.5635 11.2215L19.7416 16.2184L14.7448 16.3964L14.5667 11.3996ZM9.56985 11.5777L14.5667 11.3996L14.7448 16.3964L9.74793 16.5745L9.56985 11.5777ZM4.57302 11.7558L9.56985 11.5777L9.74793 16.5745L4.7511 16.7526L4.57302 11.7558ZM4.7511 16.7526L9.74793 16.5745L9.92601 21.5714L4.92918 21.7494L4.7511 16.7526ZM9.92601 21.5714L14.9228 21.3933L15.1009 26.3901L10.1041 26.5682L9.92601 21.5714ZM4.92918 21.7494L9.92601 21.5714L10.1041 26.5682L5.10726 26.7463L4.92918 21.7494ZM14.9228 21.3933L19.9197 21.2152L20.0977 26.212L15.1009 26.3901L14.9228 21.3933ZM24.1847 1.05049L29.1815 0.872414L29.3596 5.86924L24.3627 6.04732L24.1847 1.05049ZM24.3627 6.04732L29.3596 5.86924L29.5376 10.8661L24.5408 11.0442L24.3627 6.04732ZM24.5408 11.0442L29.5376 10.8661L29.7157 15.8629L24.7189 16.041L24.5408 11.0442ZM24.7189 16.041L29.7157 15.8629L29.8938 20.8597L24.897 21.0378L24.7189 16.041ZM24.897 21.0378L29.8938 20.8597L30.0719 25.8566L25.0751 26.0346L24.897 21.0378ZM29.1815 0.872414L34.1783 0.694333L34.3564 5.69116L29.3596 5.86924L29.1815 0.872414ZM34.3564 5.69116L39.3532 5.51308L39.5313 10.5099L34.5345 10.688L34.3564 5.69116ZM34.5345 10.688L39.5313 10.5099L39.7094 15.5067L34.7125 15.6848L34.5345 10.688ZM34.7125 15.6848L39.7094 15.5067L39.8875 20.5036L34.8906 20.6816L34.7125 15.6848ZM29.8938 20.8597L34.8906 20.6816L35.0687 25.6785L30.0719 25.8566L29.8938 20.8597Z" fill="white"/>
</g>
<defs>
<filter id="filter0_d_27_239" x="0.216797" y="0.516266" width="43.8486" height="37.23" filterUnits="userSpaceOnUse" color-interpolation-filters="sRGB">
<feFlood flood-opacity="0" result="BackgroundImageFix"/>
<feColorMatrix in="SourceAlpha" type="matrix" values="0 0 0 0 0 0 0 0 0 0 0 0 0 0 0 0 0 0 127 0" result="hardAlpha"/>
<feOffset dy="7"/>
<feGaussianBlur stdDeviation="2"/>
<feComposite in2="hardAlpha" operator="out"/>
<feColorMatrix type="matrix" values="0 0 0 0 0 0 0 0 0 0 0 0 0 0 0 0 0 0 0.25 0"/>
<feBlend mode="normal" in2="BackgroundImageFix" result="effect1_dropShadow_27_239"/>
<feBlend mode="normal" in="SourceGraphic" in2="effect1_dropShadow_27_239" result="shape"/>
</filter>
</defs>
</svg>
