<svg width="40" height="35" viewBox="0 0 40 35" fill="none" xmlns="http://www.w3.org/2000/svg">
<g filter="url(#filter0_d_27_242)">
<path d="M9.91168 1.32223L14.9085 1.14415L15.0866 6.14098L10.0898 6.31906L9.91168 1.32223ZM4.91486 1.50031L9.91168 1.32223L10.0898 6.31906L5.09294 6.49714L4.91486 1.50031ZM5.09294 6.49714L10.0898 6.31906L10.2678 11.3159L5.27102 11.494L5.09294 6.49714ZM5.27102 11.494L10.2678 11.3159L10.4459 16.3127L5.4491 16.4908L5.27102 11.494ZM5.4491 16.4908L10.4459 16.3127L10.624 21.3095L5.62718 21.4876L5.4491 16.4908ZM5.62718 21.4876L10.624 21.3095L10.8021 26.3064L5.80526 26.4844L5.62718 21.4876ZM10.624 21.3095L15.6208 21.1315L15.7989 26.1283L10.8021 26.3064L10.624 21.3095ZM19.8907 0.96659L24.8875 0.78851L25.0656 5.78534L20.0688 5.96342L19.8907 0.96659ZM20.0688 5.96342L25.0656 5.78534L25.2437 10.7822L20.2469 10.9602L20.0688 5.96342ZM20.2469 10.9602L25.2437 10.7822L25.4218 15.779L20.4249 15.9571L20.2469 10.9602ZM20.4249 15.9571L25.4218 15.779L25.5998 20.7758L20.603 20.9539L20.4249 15.9571ZM25.5998 20.7758L30.5967 20.5977L30.7748 25.5946L25.7779 25.7726L25.5998 20.7758ZM30.4186 15.6009L35.4154 15.4228L35.5935 20.4197L30.5967 20.5977L30.4186 15.6009ZM30.2405 10.6041L35.2373 10.426L35.4154 15.4228L30.4186 15.6009L30.2405 10.6041ZM30.0624 5.60726L35.0593 5.42918L35.2373 10.426L30.2405 10.6041L30.0624 5.60726ZM29.8844 0.61043L34.8812 0.432349L35.0593 5.42918L30.0624 5.60726L29.8844 0.61043Z" fill="white"/>
</g>
<defs>
<filter id="filter0_d_27_242" x="0.914795" y="0.432343" width="38.8567" height="34.0521" filterUnits="userSpaceOnUse" color-interpolation-filters="sRGB">
<feFlood flood-opacity="0" result="BackgroundImageFix"/>
<feColorMatrix in="SourceAlpha" type="matrix" values="0 0 0 0 0 0 0 0 0 0 0 0 0 0 0 0 0 0 127 0" result="hardAlpha"/>
<feOffset dy="4"/>
<feGaussianBlur stdDeviation="2"/>
<feComposite in2="hardAlpha" operator="out"/>
<feColorMatrix type="matrix" values="0 0 0 0 0 0 0 0 0 0 0 0 0 0 0 0 0 0 0.25 0"/>
<feBlend mode="normal" in2="BackgroundImageFix" result="effect1_dropShadow_27_242"/>
<feBlend mode="normal" in="SourceGraphic" in2="effect1_dropShadow_27_242" result="shape"/>
</filter>
</defs>
</svg>
