<svg width="87" height="43" viewBox="0 0 87 43" fill="none" xmlns="http://www.w3.org/2000/svg">
<path d="M6.83219 1.17997C6.8323 1.17993 6.83241 1.1799 6.83252 1.17987C9.20087 -0.755737 11.6986 0.265079 17.5991 0.299442C49.0204 0.482437 40.5976 1.42946 46.8541 1.53338C57.5543 1.71111 72.8812 -0.831142 76.6142 1.53335C81.0056 4.3149 85.5993 12.6971 86.794 25.5789C87.3424 31.4922 87.0173 36.6425 83.0447 39.6747C80.9966 41.238 76.7847 41.3645 71.8415 42.1059C66.0553 42.9739 54.2971 37.7254 32.3445 41.0864C24.3534 42.3098 18.7359 43.6698 14.2862 40.8982C12.0534 39.5074 6.09548 41.3519 6.8324 36.1182C7.44991 31.7326 0.879819 27.9344 0.159758 22.7833C-0.337576 19.2255 0.359868 13.67 1.78471 9.06959C2.01789 8.24992 2.25773 7.55769 2.52811 6.93265C3.69212 3.95316 5.1818 1.68822 6.83219 1.17997Z" fill="#FF3175"/>
</svg>
