<svg width="564" height="84" viewBox="0 0 564 84" fill="none" xmlns="http://www.w3.org/2000/svg">
<g filter="url(#filter0_d_13_198)">
<path d="M32.2527 15.1996C32.0287 15.091 32.962 14.7632 34.6415 14.3068C40.7364 12.1209 46.0191 10.9326 50.3987 10.2655C64.9178 7.40967 84.9851 5.65254 112.944 5.68361C310.694 5.90331 257.685 7.0403 297.06 7.16507C364.402 7.37844 511.063 -2.31775 534.556 0.521048C562.193 3.86056 554.021 5.70552 561.539 21.1713C564.991 28.2708 548.718 62.8696 523.717 66.5101C510.827 68.387 484.32 68.5388 453.21 69.429C416.795 70.471 347.23 67.0699 209.072 71.1051C176.876 72.0454 150.289 71.9971 127.492 72.1577C99.354 72.3668 61.1784 78.2214 35.3678 75.0708C32.9789 74.0888 30.0546 72.7874 26.9934 71.1363C17.8996 67.2357 6.68822 60.9062 6.30401 53.9619C5.99684 48.4104 5.14833 40.8219 8.8776 33.296C11.2921 27.5532 13.7567 25.0803 18.271 22.5162C21.1174 20.4201 24.6067 18.423 28.8789 16.5823C30.0276 16.0874 31.1524 15.6274 32.2527 15.1996Z" fill="#D7F205"/>
</g>
<defs>
<filter id="filter0_d_13_198" x="0" y="0" width="564" height="84" filterUnits="userSpaceOnUse" color-interpolation-filters="sRGB">
<feFlood flood-opacity="0" result="BackgroundImageFix"/>
<feColorMatrix in="SourceAlpha" type="matrix" values="0 0 0 0 0 0 0 0 0 0 0 0 0 0 0 0 0 0 127 0" result="hardAlpha"/>
<feOffset dx="-2" dy="4"/>
<feGaussianBlur stdDeviation="2"/>
<feComposite in2="hardAlpha" operator="out"/>
<feColorMatrix type="matrix" values="0 0 0 0 0 0 0 0 0 0 0 0 0 0 0 0 0 0 0.25 0"/>
<feBlend mode="normal" in2="BackgroundImageFix" result="effect1_dropShadow_13_198"/>
<feBlend mode="normal" in="SourceGraphic" in2="effect1_dropShadow_13_198" result="shape"/>
</filter>
</defs>
</svg>
