<svg width="164" height="144" viewBox="0 0 164 144" fill="none" xmlns="http://www.w3.org/2000/svg">
<path d="M4.31273 15.6777C4.72969 12.511 5.44573 10.3904 6.47608 9.7923C7.07723 8.60267 7.83458 7.76123 8.78071 7.32906C13.5192 1.41759 18.2518 1.70912 29.4496 2.50856C96.1507 7.27049 84.3775 6.6279 96.1507 7.27049C116.286 8.36947 152.565 -4.14568 159.355 2.50855C167.343 10.3365 161.959 49.491 162.898 84.6432C163.328 100.78 161.317 123.828 153.526 131.858C149.554 135.952 142.384 137.278 133.147 138.985L132.839 139.042C121.852 141.073 113.347 144.178 63.5468 142.658C46.6061 142.142 35.1374 142.5 26.9393 140.96C26.6883 140.991 26.4309 141.021 26.1654 141.047C17.7266 141.26 8.69171 139.074 1.23342 131.69C-0.457758 125.667 1.34235 118.971 3.14628 107.325C4.22639 95.0784 5.17969 80.2365 5.54017 70.5961C5.60343 68.9043 5.63654 67.1741 5.64563 65.417C5.64562 65.4164 5.6456 65.4158 5.64559 65.4152C5.23463 50.0738 2.07865 27.5335 4.96466 15.1698C4.55422 15.5465 4.30397 15.7443 4.31273 15.6777Z" fill="#FF3175"/>
</svg>
