<svg width="559" height="423" viewBox="0 0 559 423" fill="none" xmlns="http://www.w3.org/2000/svg">
<path d="M1.42816 133.124C2.37126 133.488 3.45733 134.091 4.25171 134.7C4.42828 134.836 2.04323 133.761 1.76529 133.509C1.60369 133.362 1.49245 133.234 1.42816 133.124C0.388512 131.347 11.6298 134.226 20.7962 135.538C22.4925 135.688 24.2779 135.893 26.1391 136.099C38.9312 136.743 40.534 136.159 46.551 134.469C52.3714 132.835 70.5131 128.938 76.5301 127.01L76.5304 127.01C82.5473 125.082 88.5417 123.161 94.8065 122.193C103.029 120.923 114.533 114.524 123.104 109.686C129.34 106.166 134.124 101.035 143.123 91.6551C148.799 85.7386 153.654 80.8162 157.666 75.0321C161.677 69.2479 164.682 63.4855 167.934 57.7014C170.991 52.2657 172.194 46.1548 174.199 40.3707C176.205 34.5866 178.203 28.8241 179.21 23.04C179.762 19.8676 179.21 17.6617 182.462 13.6526C189.224 5.31857 214.505 7.62293 224.263 6.89359C231.14 6.37955 232.769 7.62293 261.232 6.89359C281.298 6.37941 306.385 4.73448 326.367 4.00515C332.955 3.76469 360.741 2.79922 400.794 3.03752C415.069 3.12244 417.05 3.75241 429.97 3.99792C466.682 4.69553 494.678 4.24344 500.68 4.48174C512.239 4.94067 527.234 6.64085 539.486 7.60848C547.345 8.2292 549.289 17.2126 552.294 24.1882C558.705 39.0731 551.813 54.7624 551.054 64.1426C550.511 70.8566 548.297 79.2853 549.544 86.5425C550.532 92.2936 551.302 107.621 552.549 124.757C553.918 143.567 552.309 157.317 551.557 164.726C549.896 181.114 550.806 193.422 550.055 215.367C549.353 235.873 549.8 275.44 549.552 296.533C549.13 332.461 547.306 359.494 546.547 365.278C545.778 371.14 544.301 376.824 543.542 386.204C543.245 389.881 541.792 392.725 540.297 395.368C535.51 403.833 516.778 399.47 510.265 400.437C501.482 401.742 495.744 403.802 483.492 404.532C470.708 405.293 452.686 406.691 446.159 407.42C438.601 408.264 429.64 409.579 396.941 410.309C382.999 410.62 377.057 412.468 364.805 413.197C354.971 413.782 344.005 415.356 323.775 416.085C309.421 416.603 295.448 416.338 285.42 415.609C280.384 415.243 261.51 414.403 235.481 414.641C223.312 414.753 207.89 415.847 187.368 415.609C161.798 415.312 128.685 415.356 120.399 416.085C110.127 416.99 96.1135 418.245 90.0965 418.497C75.6107 419.106 40.5941 419.227 32.0831 418.497C25.207 417.908 19.5609 412.497 16.5336 407.204C13.3292 401.601 12.5658 394.56 11.8257 387.733L11.7711 387.23C11.0946 381.004 9.01423 352.561 10.0133 333.555C10.3965 326.266 8.02266 319.604 7.26396 279.527C7.06532 269.034 6.00949 252.318 6.25738 229.217C6.48053 208.423 6.52029 186.245 6.25738 179.262C5.95534 171.24 6.52029 161.693 5.76159 152.312C5.46422 148.636 4.50711 145.315 5.0029 141.712C5.24332 139.964 6.49024 138.585 7.74472 137.61C10.9071 135.153 15.4005 135.062 20.7962 135.538C11.6298 134.226 0.388512 131.347 1.42816 133.124Z" fill="#B4EE15"/>
<path d="M137.752 102.321C138.207 101.86 139.381 100.677 140.585 99.4396C141.675 98.3207 142.797 97.1565 143.486 96.435C142.957 97.0338 141.813 98.2466 140.624 99.4774C138.271 101.923 135.672 104.415 137.752 102.321ZM295.704 2.43445C293.967 2.54308 292.231 2.65132 290.494 2.75847C295.431 2.52625 302.072 2.16891 306.66 1.9609C307.411 1.92684 305.465 2.08339 307.243 1.99773C309.016 1.91286 308.673 1.84735 311.256 1.71356C313.095 1.61895 319.102 1.35123 324.439 1.1622C325.063 1.13993 325.672 1.11877 326.261 1.09889C328.587 1.02006 330.719 0.955337 332.05 0.913247C349.252 0.375695 366.629 0.092803 383.876 0.0876784C366.085 0.222728 384.011 0.190694 389.001 0.179035C389.882 0.177773 389.959 0.0674706 398.731 0.083112C399.373 0.0847337 400.065 0.087132 400.812 0.090507C402.787 0.100043 405.101 0.121449 407.85 0.190489C419.263 0.562775 408.856 0.525495 427.613 1.10255C417.843 0.675939 421.217 0.782389 427.915 0.967851C428.583 0.983263 429.281 0.997756 430.027 1.01135C432.792 1.06179 435.848 1.11338 438.757 1.15522C440.715 1.1959 456.583 1.39732 463.583 1.40627C465.987 1.41507 469.635 1.34604 472.816 1.34809C474.984 1.34956 476.669 1.39504 479.913 1.39183C486.094 1.39117 492.159 1.34924 498.359 1.40217C499.187 1.41265 499.948 1.42337 500.8 1.45581C509.056 1.80126 517.186 2.58645 525.374 3.34846C516.509 2.7314 532.308 4.085 533.005 4.14927C536.6 4.53869 520.314 3.05076 526.754 3.68191C530.258 4.00524 533.758 4.32782 537.248 4.61841C538.07 4.68674 538.891 4.75246 539.706 4.81466C546.248 5.09583 550.15 11.2423 551.919 15.5127C549.604 10.5917 552.726 16.8024 554.593 21.7674C554.767 22.1835 554.94 22.5892 555.111 22.9746C556.07 25.1355 556.643 27.1383 556.862 28.0493C556.738 27.4622 558.597 33.1596 558.124 40.878C557.878 48.544 554.946 57.9087 554.29 64.4044C554.27 64.6658 554.247 64.9288 554.223 65.1845C553.63 70.7242 552.992 74.7245 552.901 76.3785C552.85 76.9977 553.032 75.384 553.026 75.687C553.18 75.9071 552.218 78.5255 553.103 85.9311C553.201 86.4967 553.29 87.1094 553.365 87.6941C553.403 87.9855 553.435 88.2459 553.469 88.5398C553.724 90.8313 553.554 89.9682 553.682 91.1603C553.763 91.8739 554.356 96.1292 554.546 100.639C554.604 102.278 553.779 91.8028 555.372 114.854C555.206 110.863 555.59 116.376 556.178 124.493C556.252 125.498 556.32 126.529 556.381 127.593C557.081 138.014 556.446 150.985 556.058 154.921C556.203 153.388 556.332 151.852 556.445 150.312C555.912 157.924 555.755 159.283 555.608 160.981C555.478 162.275 555.325 163.683 555.176 165.092C555.023 166.531 554.883 168.018 554.759 169.523C554.359 174.308 554.177 179.269 554.121 183.137C554.034 190.497 554.218 190.531 554.126 199.194C554.167 197.134 554.202 195.078 554.238 193.027C554.22 199.002 554.191 205.006 554.045 211.023C554.098 197.107 554.006 214.019 553.932 215.143C553.928 215.289 553.924 215.406 553.921 215.5C553.886 216.517 553.875 214.605 553.808 217.309C553.804 217.625 553.876 217.155 553.793 221.7C553.792 221.758 553.791 221.816 553.79 221.873C553.659 231.134 553.611 229.703 553.576 233.659C553.576 234.03 553.641 232.738 553.63 239.63C553.654 261.538 553.568 239.52 553.573 238.682C553.579 237.586 553.209 245.072 553.475 226.496C553.371 232.717 553.257 233.364 553.246 234.062C553.232 234.683 553.215 245.507 553.225 246.103C553.264 251.428 553.351 246.744 553.366 247.782C553.373 248.631 553.28 261.682 553.547 264.746C553.326 270.995 553.316 261.148 553.273 250.676C553.221 249.145 553.188 260.651 553.192 261.255C553.224 276.105 553.402 267.879 553.535 271.129C553.604 272.832 553.481 278.882 553.647 273.299C553.686 286.784 553.571 278.6 553.558 279.477C553.538 280.789 553.587 285.509 553.579 286.105C553.567 286.976 553.511 283.951 553.483 287.376C553.479 287.949 553.57 293.46 553.638 286.352C553.611 293.732 553.64 294.935 553.565 296.58C553.542 297.062 553.51 297.583 553.461 298.301C553.723 304.855 553.193 303.049 553.133 305.625C553.129 305.76 553.126 305.89 553.123 306.018C552.966 312.394 553.258 310.509 553.266 310.861C553.333 313.348 552.673 332.341 552.464 337.037C552.367 335.176 553.034 321.997 553.057 319.034C553.21 309.209 552.54 332.894 552.507 325.747C552.476 328.741 552.433 331.727 552.378 334.733C551.97 340.224 552.301 332.414 551.613 347.202C551.636 349.613 552.117 336.749 552.094 339.342C552.099 340.867 551.664 349.433 551.677 349.609C551.718 349.763 552.078 342.036 552.073 343.254C552.206 345.876 550.023 374.274 551.482 352.657C551.122 358.179 550.73 361.084 550.221 365.76C550.165 366.207 550.106 366.667 550.044 367.14C549.894 368.242 550.139 367.027 550.36 365.778C550.627 364.177 550.881 362.571 550.564 365.805C550.369 367.781 549.659 371.512 548.658 377.673C548.554 378.341 548.451 379.037 548.348 379.77C548.287 379.94 548.388 379.026 548.589 377.663C549.049 374.505 550.163 368.643 550.168 368.383C550.227 367.941 549.586 370.081 549.505 370.444C549.433 370.843 548.889 373.734 548.292 377.617C547.897 380.224 547.518 383.307 547.266 386.506C546.995 390.61 545.131 394.49 543.549 397.207C542.807 398.522 541.817 399.624 540.796 400.454C537.204 403.207 534.095 403.346 532.576 403.629C533.346 403.543 531.766 403.871 529.183 404.066C523.969 404.638 514.192 403.394 510.771 403.845C509.494 404.034 508.56 404.199 508.154 404.276C507.484 404.402 510.013 404.072 509.296 404.202C506.793 404.603 501.855 405.663 496.704 406.538C492.694 407.215 488.68 407.612 486.035 407.808C485.131 407.878 484.361 407.929 483.697 407.97C479.624 408.23 480.2 408.26 479.885 408.279C477.002 408.46 479.305 408.256 477.54 408.372C476.514 408.44 473.155 408.662 469.368 408.936C463.338 409.365 456.224 409.947 455.667 410.005C455.397 410.031 458.384 409.871 454.411 410.224C453.826 410.292 453.994 410.131 446.547 410.898C445.393 411.028 444.024 411.193 442.436 411.378C431.33 412.573 443.35 411.415 446.568 411.084C447.471 411.007 447.72 411.004 446.576 411.153C446.528 411.16 446.477 411.167 446.424 411.174C437.272 412.067 437.513 412.127 435.005 412.348C434.709 412.372 433.704 412.439 432.228 412.528C429.493 412.695 425.195 412.913 420.649 413.134C424.481 412.933 428.362 412.693 432.217 412.387C433.402 412.292 434.569 412.193 435.758 412.084C434.729 412.169 433.54 412.264 432.215 412.362C427.078 412.752 420.358 413.094 417.112 413.205C415.136 413.272 416.758 413.101 412.451 413.265C411.547 413.288 407.894 413.738 419.201 413.143C420.118 413.202 414.734 413.376 412.244 413.487C411.869 413.504 410.387 413.723 407.203 413.72C406.485 413.704 413.705 413.125 397.018 413.774C395.905 413.814 394.707 413.87 393.39 413.952C392.719 413.992 395.055 413.953 394.399 413.993C393.949 413.993 388.633 414.289 388.055 414.374C387.457 414.43 390.018 414.292 389.307 414.361C385.661 414.712 380.826 414.969 388.377 414.261C386.671 414.379 384.952 414.531 383.234 414.707C382.416 414.791 381.597 414.88 380.773 414.971C383.526 414.816 376.787 415.554 373.13 415.968C369.624 416.363 366.98 416.561 365.013 416.688C354.379 417.509 364.813 416.835 361.515 417.138C355.337 417.753 359.903 417.043 351.053 417.921C350.916 417.934 350.779 417.948 350.639 417.962C350.489 417.977 350.703 417.964 351.055 417.94C352.113 417.869 354.385 417.709 351.062 418.017C349.195 418.183 345.529 418.53 338.855 418.961C342.168 418.734 345.468 418.47 348.763 418.18C346.848 418.184 336.845 419.115 336.058 419.139C328.266 419.598 332.045 419.366 323.908 419.752C322.858 419.797 321.612 419.847 320.116 419.898C318.944 419.939 316.395 419.952 313.89 420.004C306.244 420.129 317.297 420.104 323.911 419.857C326.279 419.781 328.064 419.712 328.246 419.724C328.327 419.73 326.563 419.819 323.914 419.919C320.092 420.067 314.432 420.189 309.785 420.192C305.505 420.202 302.082 420.132 301.771 420.122C298.973 420.018 306.759 420.159 309.784 420.098C310.849 420.085 311.323 420.065 310.557 420.044C310.479 420.042 310.212 420.041 309.784 420.041C306.768 420.037 295.719 420.059 285.151 419.3C280.244 418.978 275.251 418.82 271.45 418.697C268.841 418.615 266.732 418.56 265.503 418.524C257.073 418.287 253.274 418.022 253.216 418.3C250.829 417.994 248.738 418.172 247.654 418.164C241.627 418.123 238.368 418.138 235.513 418.156C232.228 418.183 229.46 418.251 223.434 418.47C222.902 418.489 222.396 418.504 221.904 418.516C220.117 418.56 218.674 418.561 217.984 418.595C217.47 418.621 218.434 418.678 215.927 418.79C212.465 419.025 191.452 419.262 189.886 419.1C188.325 419.06 198.76 419.083 196.889 418.997C193.665 419.015 190.499 419.01 187.329 418.975C183.124 418.929 178.907 418.895 174.584 418.862C174.279 418.86 174.018 418.857 173.795 418.854C171.736 418.83 172.927 418.791 171.706 418.783C171.128 418.773 160.308 418.79 160.762 418.816C161.22 418.837 167.424 418.851 173.795 418.9C179.564 418.941 185.466 419.013 187.328 419.057C188.097 419.074 188.191 419.086 187.327 419.09C187.106 419.091 186.819 419.091 186.462 419.091C184.76 419.089 178.763 418.904 179.716 419.072C177.746 419.053 175.766 419.036 173.794 419.021C156.073 418.958 137.978 418.684 120.704 419.548C116.283 419.933 111.849 420.321 107.412 420.694C101.739 421.161 96.1282 421.657 90.3081 421.941C95.9452 421.623 101.59 421.107 107.406 420.618C111.797 420.241 116.248 419.85 120.697 419.463C128.403 418.959 136.754 418.978 144.574 418.89C147.044 418.865 155.351 418.858 154.348 418.782C143.962 418.825 131.613 418.757 120.693 419.416C116.077 419.822 111.583 420.215 107.401 420.558C106.82 420.606 106.247 420.653 105.677 420.699C105.207 420.737 106.926 420.519 105.166 420.656C102.256 420.884 93.5955 421.682 90.2355 421.806C89.8186 421.824 89.4795 421.836 89.2629 421.841C89.1708 421.842 89.6276 421.816 90.2343 421.776C91.8473 421.677 94.5932 421.427 93.2485 421.472C92.0621 421.509 91.0907 421.555 90.2269 421.601C87.6527 421.736 86.1886 421.977 83.09 422.053C82.1823 422.075 79.9059 422.115 76.9272 422.148C69.2423 422.247 57.0832 422.22 53.2462 422.273C47.5931 422.393 68.9762 422.323 67.3953 422.391C55.4598 422.517 43.6447 422.63 31.7885 421.936C31.2634 421.89 30.7439 421.822 30.2309 421.733C27.7441 421.3 25.4374 420.363 23.4082 419.162C23.1725 419.007 25.2169 420.367 22.1787 418.482C17.1985 414.849 16.5856 413.269 14.8526 410.959C14.5306 410.484 14.067 409.776 13.5682 408.9C13.2893 408.41 13.0039 407.87 12.7277 407.298C10.6764 403.211 9.7146 397.603 9.58429 396.649C9.55272 396.473 10.0307 398.521 10.1106 398.837C11.1169 403.293 11.7945 404.931 11.9193 405.336C12.179 405.995 12.4714 406.642 12.786 407.27C13.0587 407.814 13.3484 408.343 13.6464 408.855C13.7952 409.11 13.9487 409.366 14.0979 409.611C15.424 411.7 16.1588 412.853 18.4489 415.211C20.0971 416.78 18.5375 415.229 20.182 416.685C20.486 416.945 22.2925 418.529 24.4844 419.684C26.6478 420.884 29.1661 421.492 29.609 421.46C29.8682 421.659 19.4519 419.278 13.7359 408.804C13.4417 408.287 13.1636 407.755 12.9025 407.213C9.94981 401.076 9.31112 393.96 8.62051 387.572C8.53488 386.764 8.46604 386.008 8.39479 385.197C7.29109 372.082 6.91251 360.307 6.80921 357.765C6.95642 363.151 7.18885 368.533 7.49173 373.907C6.84068 362.991 6.41677 349.847 6.68062 348.905C6.62974 343.757 6.67006 338.59 6.94374 333.394C7.01358 332.112 6.98291 330.812 6.90022 329.438C5.32146 313.107 4.51402 296.216 4.24468 279.584C4.20601 277.475 4.13917 275.34 4.06696 273.197C3.5176 258.596 3.07896 243.886 3.26751 229.185C3.27187 228.799 3.27617 228.413 3.28041 228.026C3.34011 223.457 3.40637 223.383 3.46381 220.902C3.49598 219.479 3.52551 217.263 3.5355 212.946C3.47671 215.598 3.41465 218.25 3.34955 220.901C3.33959 221.308 3.32956 221.713 3.31945 222.119C3.3244 221.776 3.32998 221.369 3.33604 220.901C3.46246 213.091 3.57883 188.941 3.44776 184.863C3.43049 184.388 3.35372 183.693 3.18859 179.377C3.15477 178.633 3.12676 177.785 3.10825 176.823C3.04235 172.588 3.1302 170.872 3.16918 169.125C3.18887 168.369 3.20671 167.611 3.21589 166.652C3.24586 163.986 3.18666 161.024 3.17336 160.243C3.16527 159.644 3.22835 159.404 3.19449 157.965C3.03447 153.437 3.05558 157.106 2.9672 152.625C3.05988 153.709 3.13478 154.798 3.1954 155.89C3.149 154.801 3.08562 153.636 3.00828 152.535C2.59518 148.353 2.05911 144.57 3.00659 151.095C3.16347 152.414 2.98134 151.293 3.07702 152.264C3.08488 152.352 3.09229 152.44 3.09924 152.528C3.69116 160.858 3.46272 166.196 3.49998 169.127C3.49481 173.515 3.51519 172.573 3.54203 169.127C3.56569 165.31 3.66005 158.473 3.16167 152.523C2.98859 150.41 2.55185 148.223 2.35395 146.16C2.30753 145.326 2.13552 143.624 2.44814 141.36C2.48219 141.119 2.52909 140.878 2.58909 140.637C3.11908 138.49 4.61893 136.791 6.17897 135.595C8.36853 133.88 11.1674 133.15 13.5149 132.923C15.6436 132.709 17.5543 132.789 19.1188 132.88C21.6465 133.046 23.3147 133.256 23.5104 133.275C24.4737 133.406 20.8949 133.085 25.564 133.66C25.9922 133.687 31.2934 134.409 36.3084 134.515C42.6935 134.42 49.3675 133.036 43.7488 134.003C42.8566 134.116 39.5591 134.632 36.3065 134.606C32.146 134.528 27.4659 133.945 25.7173 133.761C28.3967 134.122 32.3176 134.593 36.3054 134.659C40.3368 134.657 44.8993 133.852 48.016 133.328C50.1547 132.953 51.6973 132.651 52.2051 132.56C57.4521 131.602 48.978 133.254 48.0316 133.423C47.9248 133.446 47.9153 133.453 48.0341 133.438C48.439 133.383 50.3074 133.117 54.8446 132.251C68.4281 129.487 55.6582 132.002 60.865 130.858C62.1061 130.577 65.6073 129.842 69.1121 128.954C69.1366 128.948 69.161 128.942 69.1854 128.935C73.991 127.698 78.958 126.551 78.6949 126.516C84.0337 125.302 80.9273 126.093 81.5877 125.95C82.2122 125.754 92.8296 123.671 96.3846 123.473C96.8108 123.431 95.4801 123.658 95.9211 123.618C96.1779 123.594 97.2978 123.47 98.7552 123.353C98.7996 123.35 98.8443 123.346 98.8892 123.343C102.046 123.165 106.742 121.962 107.014 121.871C107.258 121.81 104.934 122.312 105.877 122.063C106.965 121.892 116.345 118.991 116.875 118.788C117.578 118.569 106.015 122.112 107.926 121.415C113.137 119.995 121.71 117.085 125.406 116.009C125.436 116 125.467 115.99 125.497 115.981L125.327 116.042C125.353 116.032 125.378 116.022 125.403 116.011C125.381 116.02 125.355 116.031 125.327 116.042L125.497 115.981C125.469 115.99 125.438 115.999 125.406 116.009C124.151 116.377 119.346 117.84 117.632 118.38C118.155 118.139 122.99 116.616 125.386 115.947C125.417 115.938 125.448 115.929 125.478 115.921L125.303 115.983C126.481 115.549 126.968 115.405 125.708 115.889C128.01 115.024 126.413 115.563 127.723 115.086C128.057 114.964 131.493 113.899 132.141 113.628C132.234 113.626 128.676 114.733 129.379 114.487C129.954 114.271 132.616 113.583 135.131 112.324C135.142 112.318 135.154 112.312 135.166 112.306C137.954 110.759 141.177 109.389 141.65 109.315C142.832 108.967 141.438 109.316 139.648 110.079C137.852 110.85 135.802 112.045 135.187 112.343C135.175 112.349 135.163 112.355 135.152 112.361C135.112 112.382 135.079 112.4 135.056 112.412C135.048 112.416 135.084 112.399 135.154 112.364C135.165 112.358 135.176 112.352 135.189 112.346C136.055 111.813 141.941 109.055 142.111 109.233C142.337 109.178 140.356 109.751 138.57 110.647C136.788 111.538 135.166 112.441 135.594 112.22C137.433 111.253 139.337 110.186 141.376 109.516C139.501 110.125 137.395 111.294 135.243 112.439C135.231 112.445 135.219 112.452 135.208 112.458C132.124 114.068 128.409 115.016 125.394 116.205L125.548 116.15C125.518 116.159 125.488 116.168 125.457 116.176C121.39 117.375 117.982 118.48 116.444 119.003C119.471 118.037 122.567 117.069 125.471 116.222C125.501 116.213 125.532 116.204 125.562 116.195L125.412 116.249C129.162 114.84 132.851 113.784 135.229 112.495C135.241 112.489 135.253 112.483 135.264 112.477C137.609 111.221 139.139 110.473 139.143 110.512C139.124 110.501 136.494 111.915 135.316 112.568C135.305 112.574 135.293 112.58 135.282 112.586C134.913 112.785 134.684 112.9 134.728 112.881C134.821 112.838 135.02 112.741 135.29 112.6C135.301 112.594 135.313 112.588 135.325 112.582C136.997 111.565 141.952 109.285 142.222 109.372C142.431 109.308 142.53 109.28 142.531 109.281C142.514 109.185 138.042 110.939 135.336 112.602C135.324 112.608 135.313 112.614 135.301 112.62C133.97 113.331 132.89 113.785 132.743 113.856C132.181 114.117 134.221 113.283 135.337 112.682C135.349 112.676 135.361 112.67 135.372 112.664C135.786 112.45 136.077 112.296 136.076 112.3C136.05 112.315 135.781 112.465 135.382 112.682C135.371 112.688 135.359 112.695 135.348 112.701C133.72 113.636 129.823 115.256 131.636 114.523C132.54 114.148 133.991 113.497 135.374 112.746C135.385 112.739 135.397 112.733 135.408 112.727C137.491 111.553 139.633 110.47 139.77 110.444C140.355 110.167 137.836 111.345 135.421 112.749C135.41 112.756 135.398 112.762 135.387 112.768C133.146 114.002 130.738 115 130.6 115.073C130.478 115.149 134.035 113.6 135.408 112.805C135.42 112.799 135.431 112.793 135.442 112.786C135.753 112.618 135.953 112.508 135.983 112.493C136.015 112.476 135.806 112.596 135.448 112.797C135.437 112.803 135.426 112.809 135.414 112.816C134.289 113.467 131.688 114.726 130.476 115.283C129.277 115.861 132.814 114.268 132.193 114.549C131.948 114.683 128.696 116.182 125.847 117.311L125.9 117.293C125.869 117.302 125.839 117.311 125.809 117.32C123.628 117.98 121.729 118.586 121.526 118.653C120.795 118.895 123.164 118.2 122.823 118.321C122.34 118.488 119.09 119.508 119.522 119.39C119.673 119.35 122.748 118.4 125.865 117.504C125.896 117.495 125.926 117.487 125.956 117.478L125.921 117.491C129.06 116.294 132.109 114.798 132.073 114.827L126.027 117.707C126.034 117.73 126.005 117.637 126.001 117.623C125.997 117.612 126.009 117.649 126.061 117.818L131.134 115.449C131.222 115.42 134.009 113.927 134.081 113.875C135.666 113.024 128.279 117.161 135.574 113.094C135.585 113.087 135.597 113.08 135.608 113.074C136.22 112.722 136.928 112.302 137.762 111.832C136.985 112.27 136.275 112.693 135.61 113.077C135.599 113.084 135.587 113.09 135.576 113.097C118.804 122.01 135.253 113.507 132.361 115.052C131.692 115.445 128.708 117.143 126.202 118.177C126.197 118.179 126.18 118.185 126.174 118.187C126.144 118.196 126.114 118.206 126.084 118.215C124.334 118.767 122.93 119.226 122.92 119.232C123.493 119.093 124.943 118.621 126.099 118.263C126.129 118.253 126.159 118.244 126.189 118.235C126.195 118.233 126.215 118.226 126.221 118.223C126.706 118.022 127.127 117.837 127.395 117.724C127.539 117.662 127.019 117.919 126.235 118.258C126.228 118.261 126.207 118.268 126.2 118.271C126.17 118.28 126.14 118.29 126.11 118.3C124.145 118.936 120.845 120.058 122.04 119.701C122.434 119.584 124.224 119.006 126.144 118.41C126.174 118.4 126.204 118.391 126.234 118.382C126.243 118.378 126.271 118.369 126.279 118.365C128.629 117.395 130.952 116.037 131.124 115.949C134.061 114.285 130.49 116.385 131.141 116.032C131.511 115.852 134.59 113.98 135.702 113.315C135.713 113.308 135.724 113.302 135.736 113.295C135.948 113.168 136.08 113.089 136.099 113.078C136.13 113.06 135.994 113.143 135.738 113.299C135.727 113.305 135.715 113.312 135.704 113.319C134.374 114.123 130.127 116.78 129.035 117.33C128.072 117.892 131.731 115.874 131.052 116.252C129.791 117.019 128.033 117.998 126.404 118.67C126.39 118.676 126.345 118.691 126.331 118.696C126.3 118.706 126.27 118.715 126.241 118.724C122.772 119.815 120.433 120.552 126.269 118.816C126.299 118.807 126.329 118.799 126.359 118.79C126.376 118.784 126.425 118.767 126.441 118.76C126.498 118.738 126.555 118.715 126.614 118.691C127.191 118.522 130.399 116.782 130.473 116.702C132.056 115.776 128.571 117.991 126.479 118.852C126.461 118.859 126.407 118.878 126.388 118.884C126.358 118.894 126.328 118.904 126.299 118.914C125.864 119.057 125.521 119.174 125.332 119.243C124.625 119.501 125.415 119.259 126.319 118.98C126.349 118.97 126.379 118.961 126.409 118.952C126.429 118.945 126.487 118.926 126.506 118.917C127.8 118.359 129.186 117.683 126.517 118.945C126.498 118.954 126.438 118.974 126.418 118.981C126.389 118.99 126.359 119 126.328 119.01C125.941 119.136 125.498 119.281 124.949 119.462C125.435 119.31 125.881 119.172 126.335 119.031C126.365 119.022 126.395 119.013 126.425 119.004C126.445 118.997 126.506 118.976 126.526 118.967C130.147 117.418 132.432 115.588 135.809 113.501C135.82 113.494 135.831 113.487 135.842 113.48C136.867 112.853 137.957 112.157 139.228 111.492C138.022 112.122 136.912 112.825 135.843 113.481C135.832 113.488 135.821 113.495 135.809 113.502C131.923 115.989 128.848 118.128 126.566 119.065C126.545 119.074 126.478 119.097 126.456 119.104C126.426 119.114 126.396 119.124 126.367 119.134C122.661 120.378 122.25 120.575 126.406 119.262C126.436 119.253 126.465 119.243 126.496 119.234C126.52 119.225 126.594 119.201 126.617 119.19C128.681 118.387 131.482 116.491 135.282 113.943C129.588 117.754 130.224 117.428 128.432 118.458C128.175 118.597 127.518 118.947 126.665 119.306C126.639 119.317 126.559 119.344 126.532 119.353C126.503 119.362 126.473 119.372 126.443 119.381C123.516 120.293 118.822 121.863 122.151 120.958C122.523 120.855 125.401 119.887 126.495 119.552C126.526 119.542 126.556 119.532 126.585 119.524C126.615 119.513 126.704 119.483 126.732 119.471C127.131 119.302 127.226 119.27 126.745 119.502C126.716 119.515 126.625 119.546 126.595 119.556C126.591 119.557 126.588 119.559 126.584 119.56C126.558 119.568 126.532 119.577 126.505 119.585C113.069 124.028 126.308 119.67 126.322 119.698C126.067 119.458 112.181 125.845 99.2439 127.493C99.2012 127.497 99.1586 127.501 99.116 127.505C93.1847 128.056 88.1179 129.114 86.1766 129.517C79.4296 130.954 73.4951 132.73 72.0338 133.106C71.2937 133.301 70.772 133.439 70.3929 133.537C70.3668 133.544 70.3414 133.55 70.3167 133.557C68.7302 133.96 70.1564 133.544 70.296 133.477C70.3126 133.47 70.3138 133.467 70.2938 133.469C70.2692 133.472 70.2127 133.484 70.1116 133.508C68.9962 133.89 55.0353 137.146 54.3059 137.187C51.5669 137.674 54.3234 137.056 54.0382 137.105C53.1623 137.257 51.2531 137.616 48.7871 138.021C45.2927 138.566 40.8309 139.342 36.2089 139.336C31.6841 139.245 27.6678 138.749 25.6576 138.53C25.7685 138.67 36.7031 139.598 29.8646 139.128C21.9711 138.432 21.6823 138.101 21.4599 138.077C20.5653 137.991 19.6879 137.916 18.8102 137.862C17.1616 137.761 15.5389 137.735 14.0358 137.896C12.1471 138.094 10.4921 138.616 9.27749 139.583C8.32221 140.322 7.67324 141.19 7.53081 141.85C7.51416 141.919 7.50149 141.987 7.49242 142.054C7.06119 144.938 7.94657 148.253 8.28366 152.109C8.75533 157.845 8.74322 163.538 8.71892 169.15C8.70604 172.525 8.68463 175.876 8.80779 179.166C9.13977 193.208 8.98285 207.026 8.89925 220.947C8.87689 223.714 8.85113 226.479 8.82188 229.245C8.82131 229.299 8.82075 229.353 8.82019 229.407C8.82632 229.389 8.83241 229.334 8.83849 229.245C8.89232 228.462 8.94363 225.009 8.97789 220.948C9.03982 214.041 9.03479 205.359 9.04585 205.037C9.10356 203.565 9.11672 211.569 9.04776 220.949C9.02833 223.665 9.00288 226.497 8.97322 229.247C8.88323 237.114 8.96853 244.299 8.97713 246.196C8.95468 242.519 8.96138 238.868 8.99884 235.201C9.12559 241.456 9.14392 255.3 9.5734 264.364C9.70086 267.286 9.56904 261.668 9.57951 261.781C9.75487 265.072 9.90074 270.353 9.66724 266.405C9.82986 269.87 9.89806 271.623 9.93677 272.994C9.98502 274.811 10.0036 275.942 10.0754 279.474C10.0755 279.484 10.0757 279.494 10.0759 279.504C10.0768 279.555 10.078 279.531 10.0799 279.474C10.0866 279.276 10.1008 278.665 10.1408 279.472C10.1611 279.893 10.1877 280.695 10.2256 282.069C10.2659 284.362 10.6445 296.517 10.7992 298.139C10.8483 298.833 10.8755 292.605 10.6286 291.884C10.3554 278.64 10.3977 287.667 10.2721 282.506C10.2623 281.989 10.3272 282.62 10.2861 279.47C10.2698 278.121 10.2198 276.078 10.1021 272.989C10.0732 272.225 10.0401 271.392 10.0029 270.481C10.0625 270.944 10.1238 271.831 10.1829 272.986C10.2703 274.714 10.3561 277.044 10.3999 279.468C10.4799 284.146 10.5811 289.155 10.6408 290.516C10.7869 293.846 10.5888 286.452 10.4568 279.466C10.4088 277.095 10.3215 274.794 10.2391 272.984C10.1784 271.664 10.1183 270.594 10.0677 269.976C10.3167 271.831 10.0325 268.431 9.86872 263.571C9.69797 258.27 9.82939 260.572 9.74138 257.708C9.53056 249.866 9.48209 253.121 9.47797 246.653C9.21297 252.959 9.26416 235.586 9.46631 230.533C9.41215 238.767 9.52073 246.984 9.7607 255.229C9.76687 254.761 9.77298 254.277 9.78005 253.814C9.83169 255.983 9.89217 258.153 9.95928 260.323C9.93033 259.979 9.90145 259.632 9.87266 259.282C10.2287 267.608 10.3352 271.278 10.3568 272.98C10.3663 273.574 10.369 273.918 10.3766 274.157C10.4317 275.886 10.484 277.661 10.5174 279.465C10.7087 289.944 11.0891 301.246 11.7738 311.368C11.924 313.131 11.8181 311.894 12.9135 324.83C13.2292 328.759 12.888 325.51 13.1476 329.058C13.1629 329.306 13.1796 329.592 13.1954 329.906C13.3375 331.526 13.3502 332.776 13.3158 333.729C13.2428 336.131 13.1349 336.402 13.0932 337.682C12.9572 342.639 13.0637 345.688 13.0597 346.146C13.0786 352.301 13.3656 361.342 13.7444 368.127C13.7521 368.257 13.6433 364.716 13.853 369.125C13.9095 370.153 14.093 376.812 14.7093 384.635C14.773 385.414 14.8367 386.15 14.9125 386.889C15.2431 390.084 15.5881 393.337 16.1807 396.325C15.6472 393.367 15.3357 390.28 15.0121 387.116C15.2753 389.325 16.0794 399.405 18.7672 404.371C18.979 404.8 19.1943 405.198 19.4064 405.56C20.9812 408.171 22.1664 409.319 20.9399 407.746C20.525 407.167 19.9982 406.396 19.487 405.514C19.2717 405.144 19.0575 404.746 18.8511 404.33C17.1837 401.092 16.3104 396.454 16.3319 395.748C16.6414 397.433 17.1973 400.797 18.8776 404.317C19.07 404.714 19.2782 405.111 19.5035 405.505C21.7973 409.579 26.3422 414.119 31.4091 414.95C31.7306 415.005 32.053 415.047 32.3765 415.074C45.7158 415.783 59.3368 415.5 61.1765 415.57C61.6939 415.576 58.5132 415.648 59.2278 415.655C59.7818 415.673 70.7688 415.594 72.231 415.589C73.0948 415.596 68.2455 415.687 68.6399 415.705C68.8271 415.713 72.9491 415.691 76.8199 415.623C80.0703 415.569 83.1352 415.481 83.4789 415.434C81.8937 415.49 78.9658 415.552 76.8191 415.575C74.4063 415.602 72.9862 415.594 75.6158 415.52C75.8097 415.515 76.2618 415.511 76.818 415.508C78.0493 415.501 79.8021 415.491 80.3376 415.472C83.5843 415.355 80.9739 415.401 76.8172 415.461C71.7902 415.537 64.5104 415.591 62.6876 415.594C66.8261 415.546 71.6599 415.497 76.8164 415.413C81.0318 415.342 85.5426 415.257 89.9532 415.084C95.5739 414.819 101.435 414.308 106.83 413.85C108.799 413.68 110.717 413.508 112.562 413.339C118.885 412.859 103.206 414.255 110.358 413.694C125.201 412.515 114.295 413.255 114.756 413.206C115.896 413.085 117.898 412.929 120.107 412.766C125.285 412.441 131.23 412.523 131.249 412.31C136.69 412.254 134.93 412.309 142.572 412.197C141.551 412.186 140.569 412.176 139.549 412.167C148.052 411.891 165.973 412.34 164.632 412.374C161.015 412.443 151.677 412.32 150.875 412.33C149.699 412.351 146.437 412.59 133.484 412.522C128.208 412.759 154.005 412.438 142.26 412.675C147.315 412.606 162.361 412.621 173.833 412.72C180.31 412.769 185.651 412.827 187.4 412.817C187.417 412.817 187.434 412.817 187.45 412.817C188.007 412.803 185.417 412.622 193.412 412.744C197.208 412.792 188.059 412.783 189.793 412.825C191.989 412.92 205.48 412.929 221.685 412.273C226.122 412.119 230.754 411.944 235.456 411.891C248.761 411.736 262.216 411.881 271.65 412.172C276.334 412.311 280.003 412.47 282.22 412.585C283.149 412.634 282.794 412.675 283.691 412.726C284.161 412.753 284.803 412.787 285.621 412.842C289.528 413.129 297.031 413.37 301.058 413.453C293.536 413.174 302.668 413.453 309.768 413.412C312.102 413.406 314.217 413.38 315.44 413.364C320.91 413.279 322.149 413.272 323.674 413.264C324.252 413.258 324.856 413.248 325.735 413.219C332.814 412.999 342.024 412.35 350.487 411.555C355.687 411.08 360.628 410.607 364.64 410.428C365.639 410.382 366.547 410.335 367.404 410.289C367.056 410.207 374.812 409.527 382.534 408.618C386.109 408.24 389.644 408.002 392.201 407.875C393.693 407.797 395.342 407.729 396.882 407.68C401.786 407.522 405.522 407.31 399.127 407.401C409.84 407.151 421.097 406.727 431.053 405.988C432.044 405.913 431.622 405.969 431.735 405.979C431.803 405.986 432.129 405.973 433.24 405.882C433.495 405.858 433.844 405.77 436.247 405.546C440.822 405.11 443.83 404.717 445.833 404.503C452.515 403.836 447.355 404.451 450.272 404.203C452.397 404.032 453.939 403.913 455.087 403.82C452.074 404.08 448.942 404.353 445.854 404.695C440.494 405.338 435.508 405.849 431.746 406.125C429.326 406.311 427.456 406.429 426.39 406.494C427.172 406.484 429.126 406.384 431.751 406.192C435.619 405.924 440.814 405.372 445.861 404.757C451.298 404.157 456.308 403.76 458.921 403.559C459.153 403.542 458.354 403.69 458.589 403.672C458.594 403.671 458.599 403.671 458.603 403.67C459.915 403.566 464.922 403.166 468.927 402.856C472.58 402.571 475.401 402.351 473.826 402.41C473.414 402.427 471.608 402.544 468.919 402.736C465.808 402.959 461.512 403.283 456.823 403.674C459.188 403.461 457.414 403.513 457.831 403.475C460.343 403.246 464.657 402.92 468.911 402.631C473.232 402.335 477.493 402.077 479.712 401.943C480.724 401.881 480.643 401.827 480.808 401.816C482.119 401.738 482.829 401.717 483.324 401.708C484.347 401.683 484.492 401.735 487.18 401.379C490.716 401.116 487.396 401.542 483.329 401.783C479.223 402.025 474.427 402.345 475.166 402.364C475.453 402.373 478.688 402.163 483.335 401.891C486.883 401.69 491.205 401.261 495.648 400.469C500.382 399.637 505.398 398.433 509.868 397.767C517.82 397.298 522.276 398.028 522.353 397.825C522.509 397.847 523.129 397.895 524.388 397.932C525.197 397.952 526.823 397.972 528.7 397.831C531.684 397.662 535.182 396.548 536.545 395.279C537.173 394.757 537.506 394.247 537.697 393.897C537.774 393.759 537.838 393.641 537.889 393.546C538.057 393.23 537.833 393.267 538.041 392.883C538.251 392.402 540.134 389.503 540.417 385.952C540.674 382.871 541.092 379.472 541.533 376.583C541.826 374.648 542.113 372.944 542.308 371.698C542.013 373.303 541.722 374.93 541.458 376.572C541.207 378.132 540.979 379.712 540.782 381.285C540.988 379.53 541.208 377.956 541.42 376.566C543.763 362.644 543.204 365.753 542.179 371.373C542.123 371.687 542.062 371.997 542.009 372.297C541.762 373.648 541.504 375.114 541.276 376.544C540.662 380.312 540.32 383.759 540.303 383.825C540.279 383.949 540.538 380.73 541.179 376.529C541.731 372.786 542.636 368.349 543.106 364.826C543.702 359.693 543.943 355.686 543.839 358.231C543.812 358.646 543.552 362.197 543.22 364.841C542.794 367.9 542.381 370.21 543.065 366.418C543.107 366.169 543.195 365.6 543.295 364.851C543.672 361.97 544.085 355.649 544.123 355.261C544.3 353.224 543.975 360.001 543.467 364.874C543.059 368.212 542.557 371.026 542.798 370.006C543.042 368.391 543.32 366.66 543.544 364.884C543.967 361.178 544.279 356.803 544.525 352.861C544.684 350.204 544.63 349.543 544.649 349.216C544.913 344.306 544.845 347.058 544.935 345.431C544.995 344.557 545.27 334.852 545.45 336.707C546.458 304.782 545.792 327.887 544.709 347.434C544.986 341.238 545.565 329.146 545.717 323.691C545.775 321.749 545.648 322.878 545.736 319.595C545.796 317.307 545.956 312.104 546.093 305.884C546.159 302.915 546.221 299.728 546.271 296.494C546.418 286.482 546.437 276.144 546.46 271.895C546.484 277.096 546.583 275.58 546.581 271.562C546.579 267.536 546.447 270.92 546.434 270.134C546.419 269.296 546.503 250.443 546.509 247.307C546.512 261.501 546.612 258.303 546.664 246.248C546.684 247.994 546.705 249.736 546.727 251.476C546.696 244.417 546.958 229.55 547.009 225.455C547.014 224.811 546.895 227.124 546.898 226.759C546.905 225.686 546.938 223.81 546.989 221.731C547.041 219.609 547.116 217.267 547.197 215.269C547.301 212.673 547.362 210.646 547.358 210.418C547.354 209.945 547.124 215.101 547.154 213.189C547.162 212.777 547.428 207.813 547.477 202.901C547.496 201.086 547.406 202.176 547.409 201.717C547.424 197.885 547.525 200.16 547.571 193.142C547.613 188.004 547.481 184.153 547.792 176.971C547.146 200.471 547.336 180.765 547.991 170.852C548.042 170.07 548.012 170.006 548.063 169.006C548.104 168.254 548.185 166.955 548.447 164.41C548.541 163.507 548.657 162.454 548.79 161.22C548.681 162.448 548.583 163.508 548.503 164.416C547.968 171.219 548.178 168.997 548.612 164.427C549.117 159.826 549.675 152.948 549.784 150.505C549.798 150.219 549.901 150.133 550.015 147.604C550.021 147.392 549.961 147.698 550.035 145.351C550.076 123.091 550.061 137.327 550.107 133.093C550.094 132.405 550.02 130.367 549.869 127.969C549.809 127.007 549.737 125.992 549.657 124.967C549.415 121.875 549.187 118.818 549.093 117.453C549.046 116.777 549.126 117.08 548.946 114.452C548.629 109.807 548.29 105.64 548.071 102.585C548.041 102.227 548.154 102.196 547.68 96.4201C547.544 94.7977 547.353 92.9884 547.52 95.2868C548.037 102.557 548.996 116.149 549.588 124.972C549.617 125.416 549.643 125.845 549.666 126.257C549.806 128.985 549.726 127.765 549.516 124.977C549.097 119.66 548.371 108.712 548.312 107.868C548.28 107.396 548.655 112.274 548.331 107.309C548.038 103.084 547.419 95.2921 546.749 89.1915C546.739 89.1034 546.719 88.896 546.684 88.5716C546.642 88.1704 546.579 87.6003 546.506 87.0646C546.252 85.3725 546.24 83.5608 546.25 83.7113C546.259 83.8063 546.317 85.3465 546.617 87.0455C546.7 87.5174 546.782 88.0661 546.85 88.5499C547.049 89.9857 547.172 91.1304 547.141 90.6537C547.137 90.5982 547.04 89.6313 546.901 88.5432C546.837 88.0453 546.759 87.4865 546.685 87.0338C546.521 86.0397 546.454 85.2036 546.442 84.9531C546.379 84.0674 546.678 81.7539 546.745 80.6501C546.915 77.8028 546.728 79.6478 546.879 77.8229C547.049 75.2256 548.309 68.7015 548.732 64.6568C548.756 64.4162 548.778 64.181 548.797 63.96C548.973 61.9974 549.231 60.7034 549.212 60.5713C549.013 61.6695 548.839 62.7864 548.734 63.955C548.713 64.1837 548.69 64.4182 548.666 64.6504C548.582 65.4452 548.477 66.2496 548.361 67.0587C548.487 66.1507 548.584 65.3532 548.655 64.6494C548.679 64.4065 548.701 64.1723 548.719 63.9538C549.866 55.825 549.299 59.9928 549.528 58.4189C549.887 56.5998 549.882 57.1055 550.757 53.1819C551.324 52.3003 553.357 36.1186 552.716 36.4568C552.676 45.3314 552.395 42.0505 552.464 42.453C552.31 44.0136 552.104 46.0237 551.721 48.1303C548.619 63.0353 551.687 47.9657 550.917 51.4838C550.656 52.6879 550.168 55.133 550.05 55.6535C549.667 57.3477 549.586 57.3643 549.35 58.5221C548.822 61.2428 549.559 58.0847 549.524 58.31C549.332 59.3849 548.819 61.8785 548.628 63.9464C548.604 64.186 548.578 64.4218 548.553 64.6396C548.331 66.3806 548.182 67.1675 548.421 64.6269C548.426 64.5671 548.431 64.505 548.436 64.4404C548.428 64.5039 548.422 64.5658 548.415 64.6263C548.015 67.8061 548.032 68.2803 547.559 70.9782C546.57 76.5138 547.946 68.1731 548.189 66.0601C548.249 65.5561 548.302 65.0748 548.345 64.6197C548.368 64.3837 548.389 64.1509 548.407 63.9285C549.142 57.04 550.573 54.3613 552.025 44.4643C552.591 40.5259 552.456 35.9197 552.225 34.1579C552.22 33.3827 551.481 28.1267 550.029 25.1634C549.813 24.6728 549.621 24.226 549.454 23.8449C549.103 23.0423 548.859 22.5316 548.765 22.4908C547.27 18.3268 545.007 11.7686 541.777 10.5485C540.41 9.9287 539.812 10.0102 539.648 9.99446C539.467 10.0041 539.638 10.0549 539.493 10.0409C539.453 10.0373 539.386 10.0309 539.295 10.0239C538.829 9.98805 537.881 9.91068 536.812 9.82127C535.179 9.68518 533.265 9.51728 532.345 9.44415C530.388 9.28811 531.358 9.42159 528.255 9.15698C520.541 8.49456 520.76 8.39902 519.968 8.31924C510.796 7.42827 514.805 7.95865 512.767 7.80034C511.965 7.75044 506.726 7.27772 500.579 7.01609C499.855 6.9874 499.103 6.97458 498.293 6.96339C490.418 6.89414 481.689 6.93793 478.736 6.95087C481.037 6.92638 483.323 6.90007 485.608 6.8735C481.519 6.80287 477.174 6.92604 477.084 6.79028C476.263 7.0109 467.792 6.85278 465.249 6.84508C464.241 6.84336 464.316 6.88101 463.07 6.87692C458.149 6.86746 447.126 6.73725 444.46 6.71712C432.96 6.66607 462.353 7.13023 464.672 7.10445C460.041 7.12005 433.817 6.86401 445.873 7.11039C447.739 7.14896 451.044 7.08394 452.083 7.08895C459.158 7.12254 453.6 7.1645 454.153 7.1775C455.079 7.19965 459.766 7.14711 460.983 7.16265C461.395 7.16705 458.749 7.23675 465.508 7.26785C462.182 7.35123 443.209 7.12214 440.712 7.08523C439.838 7.07193 445.213 7.33885 429.915 6.92648C429.653 6.91906 429.389 6.91128 429.124 6.90314C429.312 6.92233 429.502 6.94144 429.694 6.96046C429.047 6.94827 428.406 6.93469 427.769 6.91958C419.243 6.74469 410.974 6.01229 402.652 6.00435C403.626 5.97812 408.66 5.98659 402.318 5.91106C401.561 5.90527 401.084 5.90689 400.777 5.91125C400.052 5.92216 400.452 5.94994 400.777 5.969C400.969 5.98011 401.132 5.98837 401.033 5.98832C400.969 5.98828 400.883 5.98808 400.777 5.98777C400.369 5.98662 399.66 5.98335 398.702 5.97953C387.131 5.77926 338.317 6.34471 328.112 6.89607C327.653 6.91243 327.074 6.93424 326.475 6.95794C325.924 6.97965 325.315 7.00457 324.666 7.03209C319.96 7.22831 313.407 7.57525 312.77 7.60685C307.895 7.83617 290.58 8.68383 287.12 8.85263C284.961 8.96222 287.017 8.92813 285.088 9.01735C283.294 9.09951 285.149 8.94915 284.616 8.97178C282.288 9.0638 271.859 9.60672 261.308 9.89085C260.757 9.90551 260.215 9.91941 259.683 9.93257C250.812 10.1672 242.134 10.1704 238.564 10.0626C241.611 10.1626 252.279 10.0865 259.681 9.83734C260.232 9.8208 260.775 9.80392 261.306 9.78694C264.964 9.66834 267.521 9.55068 267.355 9.54306C267.268 9.54247 263.445 9.63689 261.303 9.68844C260.761 9.70226 260.334 9.71454 260.092 9.72499C259.971 9.7247 259.832 9.72559 259.678 9.7275C257.257 9.76288 250.93 10.0237 247.385 10.0049C246.954 9.99541 248.642 9.93039 241.896 9.88847C239.618 9.90594 233.316 9.73424 227.513 9.52972C226.761 9.53624 225.748 9.56103 224.469 9.65947C222.729 9.79161 220.649 9.82855 218.38 9.84653C208.393 9.96365 190.257 9.52228 184.858 15.5959C183.886 16.8175 183.29 17.904 183.014 18.8513C182.601 20.1905 182.611 22.1341 182.344 23.5855C182.207 24.4272 182.099 25.003 182.054 25.2763C182.049 25.3111 182.226 24.482 182.385 23.5926C182.678 21.7891 182.857 20.0479 182.532 23.1392C182.51 23.3024 182.487 23.4541 182.462 23.606C181.58 28.3987 182.133 25.0133 181.168 28.845C181.033 29.3441 180.863 29.9633 180.643 30.7326C180.519 31.2756 178.891 36.5765 177.185 41.4059C176.545 43.2619 175.986 45.1704 175.514 46.7589C174.904 48.8279 174.427 50.3422 174.375 50.5077C173.425 53.5476 174.596 50.3229 175.654 46.801C176.283 44.7354 176.955 42.6128 177.367 41.469C177.586 40.8474 177.717 40.4779 177.707 40.5138C177.684 40.5953 177.569 40.9428 177.389 41.4767C177.008 42.5886 176.383 44.6169 175.735 46.8251C174.704 50.4824 173.217 54.5837 173.057 54.8708C172.857 55.3851 177.024 44.1703 171.723 57.6094C172.489 56.0927 173.137 54.5498 173.711 53.0155C172.455 56.5312 171.467 58.2613 170.844 59.3376C170.384 60.1132 170.121 60.5373 169.786 61.1338C169.115 62.3287 168.442 63.568 167.721 64.8852C165.925 68.1364 163.88 71.9181 160.569 76.5047C160.456 76.6605 160.369 76.7776 160.304 76.8618C160.087 77.145 160.124 77.0619 160.264 76.8341C160.538 76.39 161.19 75.3811 161.097 75.5087C160.81 75.9113 160.514 76.3393 160.202 76.791C159.029 78.4945 157.626 80.483 155.823 82.5078C155.648 82.7052 155.469 82.9024 155.286 83.1001C155.243 83.1465 155.492 82.8476 155.79 82.4801C156.479 81.6293 157.433 80.424 155.739 82.4372C154.886 83.4364 153.344 85.2256 150.667 88.0736C151.387 87.3268 152.105 86.573 152.819 85.8083C152.053 86.7044 148.549 90.4319 145.333 93.7754C143.275 95.93 141.318 97.975 140.229 99.0952C139.917 99.4173 139.668 99.6722 139.523 99.8196C135.286 104.075 138.958 100.297 134.599 104.557C137.016 102.434 128.68 110.525 124.603 112.341C123.766 112.799 123.29 113.046 123.458 112.925C122.707 113.405 120.562 114.644 117.765 116.159C112.603 118.991 105.061 122.578 100.214 124C98.9157 124.399 97.205 124.881 95.2692 125.189C92.666 125.595 89.8398 126.266 87.8248 126.81C86.5733 127.145 85.6342 127.42 85.257 127.525C83.5933 128.003 84.0732 127.743 81.0557 128.655C80.7471 128.749 79.4061 129.18 77.4307 129.82C75.2707 130.512 72.5258 131.217 69.5838 131.937C67.3523 132.48 65.0088 133.024 62.753 133.528C61.1724 133.881 57.8296 134.491 60.7441 133.761C63.1433 133.159 66.5918 132.359 69.5129 131.65C72.6554 130.894 75.2329 130.195 75.147 130.162C75.0758 130.136 72.5503 130.814 69.491 131.561C65.5502 132.532 60.6769 133.686 58.7485 134.134C55.0971 134.977 52.7884 135.51 51.3742 135.837C47.5085 136.745 50.3606 135.97 51.3396 135.696C51.5586 135.634 51.6743 135.6 51.6195 135.608C51.5549 135.618 51.4562 135.637 51.3316 135.663C50.5979 135.815 48.8643 136.214 47.1706 136.676C44.6557 137.407 41.6734 138.096 41.4427 138.098C39.8586 138.443 46.3474 136.863 46.3227 136.735C46.371 136.676 44.3353 137.249 42.3551 137.635C40.3731 138.024 38.6026 138.112 39.6324 137.999C41.3182 137.84 44.6418 137.024 47.0745 136.333C48.924 135.84 50.5159 135.482 50.7224 135.425C50.9051 135.378 51.0782 135.334 51.241 135.292C53.9727 134.593 53.0558 134.755 51.2051 135.145C49.924 135.417 48.1921 135.808 47.0108 136.107C46.6118 136.208 46.2692 136.295 46.0023 136.361C45.5811 136.465 46.3743 136.222 46.9903 136.033C47.3935 135.909 47.7626 135.803 47.5129 135.867C47.3182 135.917 47.1421 135.964 46.9827 136.007C38.5469 138.127 45.6351 136.867 39.2535 137.935C33.4025 138.345 40.9168 137.726 40.6983 137.616C40.3826 137.833 33.4491 138.119 32.4232 137.967C31.8767 138.104 42.9631 137.709 46.9271 135.808C48.0748 135.46 48.804 135.256 48.6398 135.275C48.0637 135.426 47.4643 135.586 46.909 135.744C42.2676 137.311 36.8337 137.914 31.9262 137.707C31.4597 137.65 39.6085 137.672 40.4991 137.303C42.2166 137.047 37.4096 137.607 37.6205 137.481C37.7224 137.519 43.3205 136.752 38.2595 137.294C36.5184 137.436 32.9144 137.591 26.7654 137.194C48.3383 137.415 33.3629 137.218 32.7313 137.189C32.1038 137.152 42.3943 137.128 29.9214 136.992C29.392 136.735 30.1844 136.963 33.7267 136.967C35.9004 136.942 34.4692 136.911 34.4921 136.895C34.4904 136.687 36.0385 137.551 43.8764 135.775C43.051 136.563 30.2305 136.956 29.586 136.692C29.0086 136.666 31.8323 136.707 30.8265 136.657C28.6435 136.55 27.165 136.446 26.1251 136.374C25.9681 136.363 25.8206 136.351 25.6826 136.339C21.8655 135.925 26.3808 136.381 23.6765 136.013C23.3504 136.079 12.279 134.173 20.7199 135.555C22.4828 135.812 24.1436 136.008 25.6972 136.106C25.8467 136.115 25.9934 136.124 26.1373 136.131C37.8355 136.977 43.1066 135.623 45.1817 134.679C39.0597 136.703 31.8226 136.097 26.1477 135.924C26.0026 135.918 25.8566 135.911 25.7099 135.903C21.3884 135.635 17.986 135.055 16.5009 134.831C11.2177 133.927 16.6881 134.88 16.0403 134.747C15.8054 134.759 11.2659 133.891 11.2064 133.885C9.20057 133.49 17.3599 135.183 25.7156 135.812C25.8629 135.822 26.0084 135.831 26.152 135.839C31.247 136.128 36.2978 136.264 39.0676 135.91C37.08 136.085 35.0689 136.067 33.0642 136.006C35.7912 136.036 38.5097 135.992 41.1574 135.487C28.3293 136.434 40.8066 136.073 43.7855 134.645C44.4708 134.453 36.3072 136.523 45.6123 134.045C38.7059 135.8 40.9825 135.347 34.558 135.676C34.702 135.625 40.7139 135.678 46.3272 133.672C47.7883 133.254 49.2379 132.888 50.5717 132.551C52.0911 132.17 53.446 131.839 54.498 131.582C53.0216 131.924 51.7176 132.231 50.5618 132.511C48.8445 132.926 47.4417 133.28 46.307 133.6C37.9248 135.6 43.0853 135.721 28.7793 135.378C25.5177 135.352 33.896 135.643 33.2114 135.603C31.8236 135.623 29.3355 135.533 26.1746 135.39C26.0342 135.384 25.8904 135.377 25.7434 135.369C23.5066 135.236 20.9024 135.085 18.0968 134.881C16.9662 134.76 21.7332 135.378 14.6689 134.524C13.8931 134.387 9.4463 133.557 9.50141 133.57C10.0926 133.677 14.4998 134.498 14.6835 134.526C14.8537 134.562 9.9331 133.648 9.92016 133.647C9.76463 133.617 14.0234 134.409 13.4049 134.293C12.093 133.923 -5.68958 131.169 17.5202 134.729C-1.73337 131.611 14.9287 135.297 22.6026 135.046C23.936 135.127 24.5783 135.145 25.7542 135.196C25.8912 135.202 26.0339 135.208 26.1835 135.213C26.6295 135.229 27.1004 135.247 27.725 135.271C31.2469 135.422 35.3817 135.508 37.1623 135.377C38.1324 135.322 35.8641 135.405 35.3423 135.37C34.7899 135.158 36.1707 136.004 43.8221 134.186C39.3906 135.584 32.6903 135.361 26.1921 135.043C26.0516 135.036 25.9093 135.028 25.7653 135.019C21.2575 134.61 16.6493 134.996 13.3758 134.288C-0.946636 131.698 19.0784 135.384 25.781 134.769C25.9312 134.778 26.0725 134.785 26.2048 134.792C26.8721 134.823 27.3229 134.842 27.6092 134.854C28.3777 134.886 25.8093 134.693 26.3176 134.712C27.2379 134.937 42.6362 135.102 43.9106 133.731C45.3372 133.367 38.5215 134.998 38.0246 134.749C37.9017 134.83 42.7818 134.104 46.1295 132.968C49.0357 132.166 50.5551 131.756 46.1134 132.911C46.042 132.931 45.9696 132.951 45.8965 132.971C40.405 135.206 30.7732 134.808 26.2191 134.507C26.0749 134.498 25.9347 134.487 25.7993 134.476C25.1199 134.42 24.6284 134.383 24.32 134.347C24.8266 134.365 25.3053 134.387 25.8029 134.418C25.9448 134.427 26.0847 134.434 26.2224 134.441C33.1457 134.74 39.6204 135.16 46.0962 132.85C47.529 132.449 48.9503 132.097 50.3751 131.746C51.7933 131.398 53.1989 131.062 54.6095 130.726C53.1945 131.044 51.7845 131.361 50.3616 131.691C48.9319 132.024 47.5062 132.357 46.0654 132.74C43.3097 133.486 40.8019 134.169 38.1652 134.318C40.8767 134.122 43.3559 133.396 46.0381 132.643C47.4923 132.24 48.9122 131.893 50.3268 131.548C56.4154 130.079 62.3083 128.759 68.4154 127.207C68.9163 127.079 69.4172 126.95 69.9253 126.817C69.3927 126.947 68.8889 127.068 68.4093 127.182C54.5065 130.395 60.9776 128.828 68.3696 127.021C71.1159 126.337 74.0327 125.585 75.8831 124.99C77.3908 124.505 78.4025 124.181 78.4637 124.157C78.504 124.139 77.4006 124.465 75.863 124.928C73.6808 125.577 70.2915 126.361 68.3183 126.814C67.6786 126.96 67.1808 127.072 66.9132 127.132C67.3383 127.025 67.8102 126.906 68.31 126.78C70.4021 126.243 73.1571 125.565 75.7988 124.727C79.4144 123.546 83.2995 122.306 86.4212 121.47C92.4896 119.928 95.4007 119.307 87.0797 121.081C88.8054 120.659 91.9768 119.917 94.3947 119.527C95.8939 119.269 97.053 118.905 97.0124 118.918C96.8043 118.945 95.7469 119.227 94.38 119.432C91.9884 119.776 88.7507 120.481 86.3296 121.122C83.7779 121.79 82.0923 122.304 83.0543 121.981C84.007 121.669 85.1 121.352 86.3076 121.038C88.6329 120.436 91.3844 119.847 94.3727 119.385C94.538 119.36 94.7066 119.331 94.8783 119.3C107.252 115.99 110.238 112.947 114.791 110.646C116.571 109.628 118.583 108.463 121.476 106.802C123.616 105.578 126.113 103.825 129.235 100.972C128.887 101.268 128.54 101.555 128.193 101.838C130.714 99.6181 133.161 97.1335 135.61 94.6176C137.309 92.8686 138.994 91.1091 140.703 89.3333C144.223 85.6679 147.747 82.0936 150.899 78.3618C152.333 76.6634 153.687 74.9287 154.931 73.1357C157.458 69.5022 159.711 65.637 161.935 61.6564C162.966 59.8144 163.994 57.9495 165.049 56.079C166.913 52.7939 168.112 48.9594 169.325 44.9066C169.763 43.4536 170.207 41.9702 170.702 40.47C170.818 40.0998 170.945 39.7061 171.083 39.2902C172.098 36.2 173.603 31.9462 174.817 27.198C175.207 25.6602 175.562 24.0703 175.843 22.4542C176.1 21.1815 176.049 19.2196 176.778 16.892C177.454 14.7498 178.647 12.9781 179.84 11.5248C187.786 3.89967 196.231 5.06367 201.636 4.30435C204.284 4.03744 216.455 4.10405 218.338 4.11338C218.428 4.11357 218.496 4.11376 218.54 4.11401C218.929 4.11604 218.768 4.12179 218.338 4.12877C216.749 4.1561 211.303 4.16465 214.876 4.19844C215.101 4.19951 216.44 4.20638 218.338 4.19831C219.971 4.1866 222.076 4.18061 224.05 4.0417C230.8 3.66825 237.278 4.29888 236.438 4.12522C234.063 4.06766 226.138 3.73166 224.689 3.96099C224.404 3.9748 224.189 3.98678 224.046 3.99395C223.811 4.00404 223.82 3.99738 224.045 3.97598C226.614 3.40038 243.534 4.61979 259.541 3.9893C260.071 3.97681 260.61 3.96363 261.156 3.94978C274.174 3.60467 285.989 2.9606 287.343 2.88827C285.834 2.93842 284.326 2.98733 282.819 3.03456C287.111 2.84427 291.407 2.64047 295.704 2.43445ZM149.752 89.533C148.871 90.5263 147.257 92.2113 145.551 93.985C143.899 95.7051 142.152 97.5175 140.849 98.8812C140.716 99.02 140.582 99.1614 140.445 99.3047C136.866 103.23 130.595 109.213 133.298 106.361C135.83 104.059 138.155 101.672 140.442 99.3014C142.158 97.5183 143.838 95.7476 145.533 93.9677C146.932 92.4989 148.343 91.027 149.752 89.533ZM211.611 10.1077C206.478 10.1882 210.434 9.9012 214.69 9.93828C215.174 9.94678 218.618 10.0786 211.611 10.1077ZM178.749 37.4435C178.827 37.2445 180.246 32.8775 180.28 32.7103C181.608 28.8084 177.337 41.967 178.749 37.4435ZM420.292 6.52352C414.542 6.23068 418.686 6.60928 422.282 6.70642C422.509 6.71319 420.668 6.54287 420.292 6.52352ZM416.208 6.30725C411.79 5.90009 402.929 5.95629 409.976 6.12879C410.65 6.13368 416.406 6.31707 416.208 6.30725ZM193.738 11.6192C194.221 11.3981 199.278 10.6201 201.513 10.496C201.447 10.515 195.738 11.0976 193.738 11.6192ZM329.114 6.79912C329.192 6.78718 328.083 6.81711 326.472 6.87146C325.931 6.8897 325.322 6.91124 324.662 6.93578C319.146 7.13465 310.347 7.57317 309.491 7.65032C311.458 7.53862 319.507 7.16781 324.663 6.97461C325.324 6.94919 325.933 6.92628 326.473 6.90611C328 6.84897 329.093 6.80847 329.114 6.79912ZM376.867 5.86659C376.393 5.85985 369.946 5.91748 370.152 5.95208C373.287 5.96696 378.988 5.88546 376.867 5.86659ZM471.916 7.28027C472.271 7.27004 467.453 7.05107 478.883 7.20137C480.556 7.2228 474.576 7.27944 475.164 7.28689C476.417 7.30322 477.402 7.31057 478.198 7.31186C472.848 7.33136 467.345 7.32317 466.786 7.30744C464.271 7.23676 471.781 7.28582 471.916 7.28027ZM521.533 8.71504C522.625 8.77577 529.603 9.43771 531.196 9.59414C531.469 9.621 530.268 9.60917 533.419 9.88228C535.895 10.0924 532.344 9.69509 536.79 10.0855C536.892 10.0943 536.999 10.1036 537.112 10.1133C540.69 10.4196 538.279 10.2606 536.784 10.1578C536.192 10.1172 535.738 10.0847 535.862 10.0968C535.968 10.1069 536.305 10.1353 536.782 10.1741C537.425 10.2265 538.326 10.2986 539.268 10.3726C540.968 10.4479 542.372 11.4491 542.279 11.4317C542.204 11.4123 541.027 10.538 539.264 10.4219C538.438 10.3548 537.581 10.283 536.779 10.215C535.339 10.093 534.078 9.98132 533.43 9.92696C530.816 9.70548 533.978 10.059 529.613 9.64997C526.874 9.39103 528.405 9.40888 527.827 9.35002C527.339 9.29825 517.777 8.50031 521.548 8.71676C521.543 8.71619 521.538 8.71562 521.533 8.71504ZM479.638 7.30626C479.226 7.3105 478.765 7.31279 478.198 7.31186C478.681 7.31021 479.148 7.30821 479.638 7.30626ZM159.751 77.7252C161.076 75.904 158.371 79.904 155.988 82.646C155.365 83.381 154.78 84.0413 154.338 84.5247C154.312 84.5276 155.031 83.7045 155.944 82.6096C157.531 80.7417 159.592 77.9641 159.751 77.7252ZM484.582 7.20354C492.494 7.22586 486.68 7.2756 479.638 7.30626C481.867 7.2824 481.917 7.19579 484.582 7.20354ZM260.092 9.72499C260.428 9.72578 260.644 9.73432 260.672 9.75657C259.781 9.75353 259.709 9.74148 260.092 9.72499ZM278.612 9.10727C284.942 8.75684 272.075 9.32694 272.155 9.36027C272.2 9.38118 278.36 9.12458 278.612 9.10727ZM427.702 6.8015C427.647 6.79947 427.679 6.79769 427.772 6.79596C428.124 6.78995 429.339 6.78186 429.918 6.76528C430.25 6.75566 430.354 6.74445 429.919 6.73146C429.566 6.72091 428.915 6.71041 427.775 6.692C426.668 6.6734 425.147 6.6494 423.022 6.591C430.041 6.85879 422.636 6.63474 422.746 6.64719C422.86 6.67444 425.071 6.77213 427.771 6.83547C428.459 6.8519 429.172 6.86671 429.916 6.88002C433.016 6.93586 436.184 6.98138 437.396 7.01072C438.981 6.95999 433.369 6.91092 429.916 6.85193C428.968 6.83631 428.2 6.8187 427.772 6.80385C427.753 6.80318 427.734 6.80252 427.716 6.80186C427.711 6.80174 427.707 6.80162 427.702 6.8015ZM546.629 72.9503C546.766 71.5466 547.498 67.5976 547.825 64.5697C547.85 64.3368 547.873 64.1062 547.893 63.8869C547.916 63.627 547.942 63.3719 547.971 63.1233C547.955 63.3307 547.934 63.5892 547.913 63.8885C547.899 64.0908 547.88 64.3223 547.857 64.5728C547.684 66.6469 547.048 70.242 546.629 72.9503ZM14.1247 373.402C14.4198 377.938 14.7043 381.708 14.9547 384.613C15.0283 385.46 15.0968 386.206 15.1648 386.861C15.9543 394.174 15.8948 394.443 15.0374 386.875C14.9659 386.221 14.8952 385.475 14.8206 384.625C14.6685 382.887 14.5057 380.749 14.3476 378.357C14.3109 377.93 14.0051 372.007 14.1247 373.402ZM177.328 412.176C178.615 412.259 176.648 412.279 173.836 412.269C171.854 412.262 169.46 412.241 167.488 412.212C166.407 412.196 162.418 412.058 166.976 412.049C166.871 412.156 170.506 412.23 173.836 412.224C175.121 412.222 176.37 412.208 177.328 412.176ZM489.041 7.13506C490.669 7.08837 494.797 7.08591 498.291 7.13706C499.128 7.15056 499.895 7.16683 500.572 7.19574C501.093 7.21837 501.597 7.24237 502.037 7.26431C501.676 7.25629 501.164 7.23997 500.571 7.22165C499.949 7.20307 499.169 7.19217 498.29 7.1833C495.212 7.15515 491.211 7.14869 489.041 7.13506ZM54.2199 415.701C56.6617 415.718 58.316 415.607 57.893 415.598C56.0047 415.56 51.429 415.629 54.2199 415.701ZM466.146 7.11242C465.821 7.07449 475.217 7.05639 475.879 7.15229C473.871 7.14651 466.376 7.14045 466.146 7.11242ZM547.644 66.6518C547.91 65.2292 546.761 72.5674 546.417 74.9698C546.356 74.7267 547.532 67.5152 547.644 66.6518ZM93.4575 414.99C95.6226 414.866 101.072 414.441 101.671 414.346C102.414 414.238 94.4283 414.877 93.4575 414.99ZM62.9829 135.799C63.262 135.774 54.9072 137.742 51.1146 138.338C43.9542 139.589 62.729 136.013 62.9829 135.799ZM31.5322 415.163C31.4793 415.154 31.4276 415.144 31.377 415.134C27.4484 414.015 30.1502 414.883 31.388 415.071C31.7222 415.121 31.9488 415.132 31.9023 415.103C31.7431 415.083 31.5733 415.057 31.3958 415.026C27.3727 414.823 20.7542 408.358 25.7375 412.692C26.7434 413.508 29.6534 414.934 31.3766 415.137C31.4297 415.146 31.4816 415.155 31.5322 415.163ZM37.4829 415.559C38.2085 415.553 43.1694 415.557 38.8884 415.461C36.911 415.415 33.7503 415.41 37.4829 415.559ZM11.3198 139.144C9.98274 139.808 10.9731 138.839 14.0951 138.462C15.3738 138.319 17.0092 138.316 18.7752 138.428C24.8664 138.932 32.4956 139.859 32.9132 139.793C33.3579 139.829 33.6524 139.852 33.8199 139.867C34.1954 139.877 35.1176 139.915 36.1966 139.935C38.4139 139.975 40.8938 139.714 41.3178 139.723C40.2498 139.828 37.9935 140.032 36.1955 139.989C35.2665 139.97 34.5492 139.935 34.3567 139.924C34.1281 139.91 33.9585 139.899 33.8418 139.889C32.6842 139.982 24.7662 139.017 18.7698 138.514C16.9628 138.395 15.3314 138.4 14.1023 138.531C12.4297 138.702 11.5098 139.079 11.3198 139.144ZM9.39864 180.805C9.37244 180.211 9.34661 179.646 9.321 179.146C9.08598 173.628 9.36389 172.572 9.35375 173.14C9.51743 180.754 9.30116 175.791 9.28904 176.027C9.28535 176.303 9.32761 177.875 9.38501 179.144C9.43809 180.4 9.45287 181.377 9.39809 180.783C9.39827 180.791 9.39846 180.798 9.39864 180.805ZM7.97433 143.541C7.97609 143.461 7.9794 142.862 8.07881 142.135C8.08493 142.089 8.09366 142.042 8.10592 141.991C8.13329 141.442 9.35264 140.242 9.4574 140.205C9.52682 140.15 9.59046 140.101 9.64711 140.058C10.0946 139.743 10.0173 139.812 9.66813 140.085C9.10923 140.497 8.21618 141.508 8.16022 142.005C8.14838 142.053 8.13967 142.098 8.13337 142.143C7.90627 143.975 8.05919 145.508 7.97433 143.541ZM548.926 22.9791C549.069 23.3549 549.189 23.6653 549.285 23.9133C549.773 25.1571 549.626 24.8565 549.239 23.932C548.865 23.0397 548.313 21.5888 547.879 20.4229C547.804 20.2206 547.588 19.4208 548.926 22.9791ZM40.8651 415.624C41.8102 415.761 67.0847 415.874 65.5631 415.697C63.4101 415.825 34.7273 415.479 40.8651 415.624ZM229.783 411.573C225.295 411.708 230.178 411.424 232.589 411.424C233.482 411.422 230.911 411.539 229.783 411.573ZM453.469 6.94478C448.832 6.95903 449.79 6.78098 453.813 6.88031C453.971 6.88413 453.652 6.94415 453.469 6.94478ZM194.21 412.406C209.144 412.148 206.055 412.742 187.403 412.57C186.942 412.562 186.47 412.554 185.985 412.546C186.46 412.537 186.933 412.529 187.403 412.521C187.556 412.519 187.709 412.516 187.862 412.513C187.707 412.511 187.555 412.509 187.404 412.507C169.311 412.287 179.768 412.388 187.404 412.466C189.21 412.486 190.838 412.491 191.915 412.49C194.046 412.484 192.259 412.417 194.195 412.406C194.2 412.406 194.205 412.406 194.21 412.406ZM253.373 411.429C266.435 411.822 246.112 411.431 235.453 411.596C233.966 411.612 232.675 411.64 231.679 411.668C232.911 411.62 234.202 411.582 235.453 411.555C242.206 411.423 247.718 411.392 235.9 411.377C256.352 411.232 247.825 411.437 248.652 411.423C249.611 411.434 252.75 411.411 253.373 411.429ZM214.14 412.11C213.287 412.151 206.85 412.281 204.541 412.329C207.765 412.19 219.813 411.867 214.14 412.11ZM9.41393 230.34C9.38797 230.14 9.36566 229.831 9.35279 229.251C9.33111 228.285 9.33484 226.568 9.38069 223.375C9.40046 224.701 9.40429 227.218 9.40939 229.251C9.41038 229.637 9.41189 230.003 9.41393 230.34ZM146.083 92.8309C145.828 93.0961 145.548 93.3859 145.25 93.6958C143.349 95.673 140.763 98.3532 140.148 99.0167C139.976 99.2037 139.963 99.2306 140.169 99.0365C140.209 98.9988 140.257 98.9528 140.314 98.8978C140.448 98.7726 143.714 95.3681 145.269 93.7142C145.765 93.1877 146.088 92.8399 146.083 92.8309ZM113.976 413.498C114.252 413.477 117.045 413.235 120.124 412.962C125.643 412.551 131.728 412.504 127.504 412.536C126.677 412.559 123.497 412.606 120.117 412.879C115.189 413.318 110.235 413.774 113.976 413.498ZM20.3366 407.288C21.0002 408.611 25.1671 412.582 25.3613 412.481C25.5351 412.566 24.2093 411.629 22.9533 410.352C21.6792 409.097 20.5314 407.528 20.3366 407.288ZM133.463 105.508C133.282 105.666 131.162 107.642 128.941 109.302C126.739 110.98 124.469 112.243 125.035 111.942C127.397 110.987 134.781 104.451 133.463 105.508ZM552.393 37.0696C552.417 37.9116 552.321 39.0293 552.309 39.3204C552.763 39.9643 549.913 55.6601 550.938 49.6441C550.993 49.1879 552.13 44.2536 552.26 38.8301C552.504 33.3792 551.006 27.6519 549.879 25.2284C549.644 24.6735 549.475 24.2488 549.37 23.9842C549.353 23.9296 549.345 23.8985 549.345 23.8889C549.345 23.8852 549.346 23.8848 549.349 23.8874C549.38 23.9206 549.584 24.4236 549.92 25.2104C551.002 27.4085 552.066 32.5334 552.132 34.1745C552.162 34.5763 552.318 34.8156 552.393 37.0627C552.393 37.065 552.393 37.0673 552.393 37.0696ZM9.51717 203.76C9.47238 203.037 9.37308 183.718 9.4125 183.918C9.51218 190.551 9.51963 197.158 9.51717 203.76ZM9.46424 213.57C9.39018 217.685 9.43146 208.044 9.45743 205.195C9.50732 205.169 9.47766 212.968 9.46424 213.57ZM50.9504 416.077C52.877 416.073 46.9516 415.923 48.2754 415.912C49.1144 415.91 53.4389 415.976 54.8199 415.944C55.2118 415.936 50.8037 415.82 49.5289 415.811C47.7219 415.802 49.4896 415.896 47.4997 415.877C42.11 415.809 37.0658 415.73 32.3503 415.38C32.0184 415.35 31.6877 415.306 31.3573 415.248C30.8681 415.162 30.3801 415.045 29.893 414.897C29.4602 414.78 32.7832 415.779 29.1186 414.694C28.5931 414.51 25.0725 413.099 21.7874 409.221C20.78 408.097 19.9138 406.903 19.1933 405.682C18.9619 405.29 18.745 404.889 18.5417 404.48C16.1051 399.495 15.5284 393.811 14.7935 386.901C14.7177 386.188 14.6495 385.449 14.5784 384.647C14.3234 381.733 14.0845 378.563 13.8365 375.071C13.8444 375.469 14.1723 380.951 14.4879 384.655C14.564 385.562 14.6367 386.351 14.695 386.912C14.7617 387.553 14.8066 387.983 14.819 388.1C15.372 392.902 15.8719 399.161 18.4287 404.535C18.629 404.949 18.8425 405.356 19.0694 405.753C21.7795 410.53 26.5454 414.69 31.3204 415.461C31.6583 415.519 31.9955 415.563 32.3321 415.592C36.3509 415.89 40.4131 415.931 43.747 415.995C47.3005 416.046 45.6003 415.967 47.1144 415.983C48.3258 415.993 46.8874 416.084 50.9504 416.077ZM147.338 91.4508C146.905 91.8553 146.121 92.6503 145.178 93.6272C143.643 95.2175 141.698 97.2783 140.08 98.9503C139.872 99.1649 139.666 99.3773 139.469 99.5789C139.612 99.4491 139.832 99.236 140.1 98.9694C141.236 97.8385 143.318 95.6434 145.213 93.6601C145.975 92.8622 146.71 92.0981 147.338 91.4508ZM10.9046 299.999C10.9824 301.854 11.2672 307.667 11.3309 308.109C11.3942 308.765 10.9711 300.357 10.9046 299.999ZM549.771 129.052C549.796 129.226 549.969 133.676 549.959 133.847C550.037 137.825 549.499 124.476 549.771 129.052ZM546.466 236.876C546.448 240.313 546.463 243.768 546.372 244.925C546.394 242.737 546.408 236.468 546.466 236.876ZM540.183 385.468C540.212 385.352 540.21 385.533 540.188 385.933C540.306 387.279 538.874 391.395 537.37 393.712C537.208 393.992 537.055 394.186 536.953 394.309C536.994 394.242 537.155 394.035 537.337 393.694C538.732 391.464 540.172 387.26 540.123 385.928C540.149 385.681 540.169 385.522 540.183 385.468ZM9.0847 231.074C9.09079 230.383 9.09528 229.779 9.09816 229.248C9.11972 225 8.99656 225.657 9.09073 222.094C9.10722 221.441 9.45346 219.328 9.26758 226.267C9.23593 227.412 9.2104 223.396 9.11143 229.248C9.10227 229.777 9.09314 230.384 9.0847 231.074ZM182.717 412.509C181.287 412.556 177.123 412.51 173.835 412.484C173.443 412.48 173.062 412.477 172.7 412.475C172.856 412.465 173.264 412.46 173.835 412.457C176.067 412.448 180.8 412.493 182.717 412.509ZM116.697 116.43C114.152 117.937 101.276 123.65 104.476 122.286C105.042 122.237 115.055 117.428 116.697 116.43ZM504.92 7.17082C508.662 7.37018 504.68 7.0547 500.584 6.89774C499.829 6.87063 499.066 6.86218 498.294 6.85639C497.132 6.84885 496.111 6.85375 495.376 6.86301C495.91 6.864 496.995 6.86922 498.294 6.88753C499.062 6.89907 499.836 6.91277 500.582 6.94352C502.725 7.0338 504.73 7.16209 504.92 7.17082ZM544.411 350.003C544.403 350.297 544.006 356.164 543.972 356.455C543.56 361.277 544.688 344.575 544.411 350.003ZM547.356 201.316C547.385 202.796 547.249 209.943 547.009 215.263C546.905 217.673 546.835 219.727 546.79 220.705C546.784 219.86 546.821 217.773 546.908 215.26C547.154 208.769 547.325 199.404 547.356 201.316ZM9.42023 256.919C9.28845 252.439 9.22007 248.174 9.19881 244.069C9.23796 244.934 9.42595 256.443 9.42023 256.919ZM542.179 371.373C542.123 371.687 542.062 371.997 542.009 372.297C542.066 371.984 542.123 371.672 542.179 371.373ZM12.8543 357.503C12.9616 361.251 13.0387 360.47 13.0307 360.239C12.9519 357.419 12.7509 353.262 12.8543 357.503ZM144.259 94.4645C143.677 94.9982 141.893 96.8727 139.982 98.8551C138.71 100.174 137.364 101.55 136.3 102.588C136.721 102.223 138.324 100.637 140.017 98.889C141.604 97.2532 143.278 95.4931 144.259 94.4645ZM269.31 411.881C274.061 412.078 254.712 411.761 250.647 411.744C250.336 411.641 268.615 411.795 269.31 411.881ZM487.623 6.7726C487.261 6.71715 479.134 6.79176 480.87 6.81663C481.971 6.8334 487.847 6.80713 487.623 6.7726ZM240.925 411.709C239.112 411.737 234.874 411.71 236.366 411.654C238.269 411.58 241.395 411.699 240.925 411.709ZM78.5423 415.982C79.3363 415.999 89.9396 415.641 85.5452 415.691C82.5065 415.725 82.0192 415.83 81.3178 415.847C81.0536 415.853 78.9255 415.883 76.8245 415.906C72.9244 415.945 69.0722 415.986 76.8259 415.987C77.3515 415.986 77.9 415.985 78.5423 415.982ZM376.591 409.049C372.891 409.55 368.547 409.997 364.628 410.218C364.334 410.235 364.043 410.253 363.753 410.272C363.95 410.254 364.249 410.231 364.627 410.204C367.503 410.06 375.067 409.218 376.591 409.049ZM518.567 8.09344C517.573 7.81419 491.271 6.22975 506.205 7.16073C507.066 7.16151 521.503 8.40203 518.567 8.09344ZM9.0847 231.074C9.07775 231.866 9.06873 232.781 9.05823 233.84C9.06464 232.789 9.075 231.871 9.0847 231.074ZM10.8542 302.53C10.7284 301.097 11.0865 308.328 11.2694 310.484C11.3589 311.165 10.8526 302.699 10.8542 302.53ZM363.435 410.365C360.977 410.55 356.565 410.909 353.581 411.186C354.074 411.086 362.349 410.357 363.435 410.365ZM532.328 397.081C531.214 397.366 529.94 397.568 528.687 397.664C525.422 397.911 522.362 397.76 522.302 397.814C522.205 397.802 521.977 397.785 521.601 397.761C521.226 397.762 516.158 397.482 513.762 397.421C506.731 397.174 519.822 397.94 528.685 397.63C533.007 397.345 535.818 395.734 536.441 395.152C536.8 394.857 536.852 394.828 536.466 395.183C535.914 395.611 534.171 397.264 528.696 397.783C528.333 397.813 527.953 397.839 527.562 397.861C527.941 397.834 528.321 397.801 528.695 397.763C529.961 397.634 531.191 397.409 532.328 397.081ZM547.732 182.185C547.832 179.439 548.133 171.701 548.008 173.706C547.862 175.11 547.583 184.942 547.732 182.185ZM546.639 287.298C546.66 286.478 546.63 279.018 546.589 278.832C546.542 283.12 546.556 291.006 546.639 287.298ZM549.203 161.041C549.387 159.342 549.466 157.18 549.442 157.382C549.258 159.089 548.85 163.882 549.203 161.041ZM8.81431 244.088C8.79966 246.628 9.05396 254.717 9.1873 256.489C9.18254 256.816 9.18866 257.705 9.21687 259.324C9.21672 259.319 9.21656 259.314 9.21641 259.309C9.22258 259.944 9.42018 265.901 9.67364 273.003C9.74441 275.098 9.81471 277.291 9.85649 279.478C10.1919 295.367 10.8216 310.581 10.0374 283.142C10.0148 281.91 9.98942 283.365 9.90967 279.477C9.90168 279.07 9.89133 278.572 9.87913 278.034C9.87034 277.657 9.92043 277.476 9.88935 276.315C9.87338 275.724 9.83848 274.509 9.78895 272.999C9.6128 267.85 9.30853 259 9.22492 256.828C9.23415 256.804 9.23837 256.623 9.23617 256.235C9.19371 252.777 8.80475 242.12 8.81431 244.088ZM546.488 302.062C546.523 300.966 546.561 298.147 546.556 296.497C546.554 295.911 546.548 295.468 546.535 295.335C546.528 295.646 546.521 296.048 546.513 296.497C546.466 299.558 546.389 305.07 546.488 302.062ZM517.761 7.86316C514.72 7.54881 507.016 7.03519 509.341 7.24132C510.762 7.33855 521.267 8.20166 517.761 7.86316ZM546.686 254.464C546.596 272.03 546.683 258.655 546.754 261.345C546.73 259.054 546.707 256.759 546.686 254.464ZM8.88145 162.857C8.87825 165.681 8.75089 162.371 8.742 159.24C8.74018 158.257 8.88339 161.277 8.88145 162.857ZM106.572 126.307C104.227 126.935 115.645 123.55 111.238 124.978C111.049 125.064 106.763 126.296 106.572 126.307ZM18.8866 137.941C18.8593 137.94 18.8323 137.94 18.8054 137.939C17.483 137.936 16.4189 137.838 14.0516 138.047C13.2964 138.129 12.4192 138.262 11.4738 138.577C12.6698 138.176 13.5333 138.09 14.0487 138.02C16.1261 137.896 13.0259 137.755 18.8057 137.936C18.8324 137.937 18.8594 137.939 18.8866 137.941ZM522.353 397.825C522.323 397.821 522.297 397.817 522.302 397.814C522.336 397.818 522.35 397.822 522.353 397.825ZM550.271 144.772C550.431 142.609 550.406 136.531 550.338 138.342C550.349 138.512 550.263 143.884 550.271 144.772ZM9.1873 256.489C9.19163 256.196 9.20381 256.346 9.22492 256.828C9.21624 256.851 9.20387 256.727 9.1873 256.489ZM547.986 177.723C547.908 177.504 547.669 186.947 547.694 187.317C547.729 192.715 547.804 181.643 547.986 177.723ZM456.013 6.46884C455.535 6.46995 458.644 6.60364 460.565 6.5704C462.043 6.54502 457.833 6.46626 456.013 6.46884ZM37.195 139.38C40.4262 139.326 44.5937 138.71 45.3912 138.663C43.4176 139.004 37.1929 139.519 37.195 139.38ZM101.886 127.219C101.175 127.345 100.278 127.479 99.2516 127.583C99.2093 127.587 99.1667 127.591 99.1239 127.596C95.2314 127.968 89.5161 128.932 85.5878 129.78C85.4929 129.699 94.1931 127.945 99.1216 127.569C99.1645 127.565 99.2071 127.561 99.2494 127.557C100.37 127.452 101.291 127.317 101.886 127.219ZM8.80417 236.067C8.78985 236.305 8.80534 243.726 8.86894 242.711C8.94026 241.232 8.83682 233.975 8.80417 236.067ZM470.483 6.59524C473.813 6.5643 466.149 6.43488 462.634 6.50425C460.83 6.54348 469.918 6.60393 470.483 6.59524ZM549.974 125.811C549.941 125.389 549.917 125.108 549.901 124.949C549.878 124.719 549.873 124.742 549.882 124.951C549.901 125.38 549.974 126.57 550.047 127.959C550.172 130.226 550.269 133.003 550.32 133.711C550.288 132.349 550.212 129.875 550.108 127.955C550.061 127.069 550.012 126.295 549.974 125.811ZM546.873 274.96C547.107 261.127 546.699 268.659 546.732 271.117C546.737 271.459 546.867 275.304 546.873 274.96ZM83.7371 127.291C82.4453 127.7 85.4623 126.829 87.6808 126.262C88.6271 126.016 89.4296 125.818 89.6923 125.736C89.944 125.659 88.9351 125.874 87.6636 126.197C86.1925 126.566 84.3695 127.092 83.7371 127.291ZM455.087 403.82C455.667 403.771 456.252 403.721 456.823 403.674C456.394 403.712 455.825 403.76 455.087 403.82ZM547.095 86.2285C547.123 86.4747 547.153 86.7143 547.187 86.9476C547.258 87.4706 547.318 88.0081 547.367 88.482C547.974 95.5545 547.979 94.8406 548.067 95.5923C548.214 97.3971 548.445 101.633 548.69 105.068C548.387 101.136 548.084 97.2044 547.707 93.3149C548.044 96.3459 549.673 123.417 549.804 123.989C549.924 124.798 549.307 116.278 549.3 116.03C549.285 115.676 549.379 114.331 549.333 113.54C549.233 112.428 548.251 95.0848 547.415 88.4757C547.339 87.8718 547.26 87.3269 547.199 86.9455C547.153 86.6616 547.12 86.4208 547.095 86.2285ZM546.89 246.004C546.858 248.238 546.778 248.862 546.793 249.901C546.799 250.255 546.872 250.31 546.888 251.513C546.888 249.679 546.888 247.845 546.89 246.004ZM548.127 68.205C548.638 65.4636 546.669 77.7416 546.782 78.2819C546.423 80.4339 547.659 70.3043 548.127 68.205ZM548.274 172.998C548.288 172.809 548.394 171.039 548.552 169.044C548.679 167.427 548.842 165.666 548.959 164.462C549.044 163.592 549.095 163.027 549.082 163.041C549.043 163.369 548.988 163.862 548.924 164.459C548.789 165.705 548.627 167.401 548.498 169.04C548.2 172.825 548.065 176.273 548.274 172.998ZM546.889 253.001C546.872 256.34 546.79 262.647 546.903 261.926C546.903 261.921 546.903 261.916 546.903 261.911C546.897 258.942 546.892 255.97 546.889 253.001ZM481.882 6.42234C475.684 6.28931 478.632 6.46091 484.105 6.49977C485.766 6.43745 482.892 6.44375 481.882 6.42234ZM462.082 6.28525C460.355 6.26897 442.61 6.12642 445.328 6.21883C446.292 6.26154 456.485 6.29128 456.963 6.29444C457.675 6.30623 454.421 6.36488 459.862 6.38394C459.546 6.35563 462.668 6.29663 462.082 6.28525ZM476.755 6.33686C470.629 6.23009 469.225 6.41397 473.856 6.42213C475.669 6.42458 477.627 6.3519 476.755 6.33686ZM501.759 6.47035C501.443 6.45335 501.049 6.43331 500.603 6.41303C499.976 6.38457 499.193 6.3663 498.3 6.35302C495.658 6.31538 492.313 6.3227 489.706 6.36383C492.576 6.36635 495.447 6.36454 498.3 6.39844C499.103 6.40935 499.853 6.42147 500.601 6.45076C502.347 6.52167 504.1 6.61751 505.854 6.72871C506.478 6.73199 503.668 6.56913 501.745 6.46969C501.75 6.46991 501.755 6.47013 501.759 6.47035ZM136.471 113.216C136.237 113.36 136.048 113.477 135.895 113.571C135.883 113.578 135.872 113.585 135.861 113.592C135.225 113.989 135.337 113.913 135.856 113.583C135.867 113.576 135.878 113.569 135.889 113.562C137.348 112.485 142.1 110.145 142.474 110.173C143.747 109.649 138.24 111.855 136.471 113.216ZM46.2781 135.012C44.9582 135.335 44.1157 135.593 41.159 136.229C43.0434 135.924 44.8642 135.417 46.6855 134.948C47.748 134.674 48.8539 134.418 49.9458 134.17C52.0039 133.537 48.3454 134.447 46.6736 134.906C46.5236 134.947 46.3907 134.982 46.2781 135.012ZM34.8824 136.3C35.3024 136.257 33.0004 136.225 38.4524 136.074C40.9114 135.993 32.8922 136.606 26.1386 136.106C25.9931 136.099 25.8464 136.091 25.6987 136.082C22.4534 135.865 19.6193 135.352 18.464 135.166C20.2181 135.429 22.9162 135.84 25.7023 136.025C25.8502 136.035 25.9966 136.043 26.1413 136.051C29.5256 136.229 32.9256 136.34 34.8824 136.3ZM2.27913 133.812C2.32095 133.827 2.09892 133.743 1.76529 133.509C1.70077 133.45 1.63917 133.39 1.58451 133.33C1.51872 133.258 1.40734 133.124 1.37323 133C1.31698 132.852 1.44189 132.709 1.59152 132.662C1.88587 132.556 2.27564 132.557 2.62283 132.564C3.36543 132.587 4.16138 132.688 4.92439 132.795C6.4453 133.014 7.78858 133.262 8.138 133.323C10.1583 133.69 9.03973 133.478 7.06652 133.135C6.08001 132.968 4.86832 132.766 3.70776 132.642C3.14442 132.585 2.56648 132.538 2.05852 132.574C1.81722 132.597 1.53477 132.621 1.39673 132.798C1.27879 132.997 1.48874 133.217 1.58451 133.33C1.63873 133.389 1.70013 133.449 1.76529 133.509C1.98334 133.672 2.17841 133.756 2.27913 133.812ZM24.1149 135.046C22.1755 134.908 23.6613 134.976 25.7602 135.101C25.9021 135.109 26.0451 135.117 26.188 135.124C27.8673 135.205 29.8052 135.285 30.7782 135.324C30.9144 135.356 28.2356 135.277 26.1855 135.173C26.0405 135.166 25.8971 135.159 25.7571 135.15C24.9225 135.099 24.2687 135.056 24.1149 135.046ZM88.9623 125.589C85.084 126.145 81.7272 127.148 87.6116 125.931C87.8913 125.875 89.1283 125.566 88.9623 125.589ZM7.3236 133.179C9.07684 133.491 8.03451 133.295 6.27785 133.003C5.38467 132.858 4.31613 132.691 3.30505 132.604C2.79235 132.563 2.29939 132.535 1.86413 132.595C1.65938 132.63 1.40511 132.681 1.36379 132.883C1.34912 132.972 1.39412 133.069 1.43442 133.135C1.48174 133.212 1.53941 133.28 1.58451 133.33C1.6039 133.351 1.62409 133.372 1.64486 133.393C1.65951 133.408 1.63336 133.383 1.58451 133.33C1.53974 133.269 1.37791 133.138 1.36111 132.912C1.37829 132.664 1.72013 132.607 2.02051 132.577C2.63457 132.528 3.39688 132.603 4.14454 132.692C5.63345 132.876 7.07639 133.139 7.3236 133.179ZM86.1928 125.772C81.0733 126.696 82.9489 126.676 83.5793 126.548C86.1842 125.972 95.2324 124.382 97.1237 124.263C83.4729 126.096 88.6304 125.465 86.1928 125.772ZM63.0508 131.409C59.5811 132.196 65.3587 131.019 69.3735 129.953C69.3982 129.946 69.4228 129.94 69.4472 129.933C70.7962 129.576 71.9541 129.267 72.5112 129.102C71.7658 129.292 70.6506 129.575 69.4354 129.888C69.4109 129.895 69.3863 129.901 69.3616 129.907C66.8737 130.548 63.9306 131.205 63.0508 131.409ZM34.7288 135.407C32.2172 135.359 24.6702 134.463 23.3623 134.379C26.1839 134.707 33.6684 135.5 34.7288 135.407ZM29.0192 134.812C25.0605 134.32 24.0703 134.427 28.6685 134.856C28.8452 134.871 29.164 134.831 29.0192 134.812ZM5.86124 137C4.66401 137.984 3.7503 139.66 3.60721 140.399C3.51763 140.76 3.52417 140.84 3.64804 140.489C3.78061 140.15 4.05253 139.345 4.84914 138.302C5.81521 137.106 6.12146 136.807 5.86124 137ZM79.7524 126.766C76.0381 127.58 71.3197 128.875 79.2129 127.017C76.4396 127.676 73.6827 128.379 70.9358 129.104C81.2348 126.603 80.4731 126.693 83.456 126.041C87.6533 125.198 87.3573 125.457 86.5226 125.658C88.3184 125.267 93.2163 124.309 98.7978 123.843C98.8421 123.839 98.8865 123.835 98.931 123.831C103.675 123.473 108.781 121.915 112.595 120.721C108.835 121.861 103.859 123.383 98.9222 123.729C98.8777 123.732 98.8332 123.735 98.7887 123.739C94.1362 124.088 89.6152 124.811 86.1769 125.459C84.0809 125.853 82.064 126.33 80.2957 126.721C77.4588 127.358 79.9605 126.721 79.7671 126.763C79.7622 126.764 79.7573 126.765 79.7524 126.766ZM4.45888 167.248C4.44639 167.986 4.43647 168.609 4.42963 169.131C4.38542 172.592 4.46777 171.472 4.51572 169.131C4.53638 168.13 4.55092 166.906 4.54163 165.722C4.53925 165.535 4.46258 167.055 4.45888 167.248ZM3.757 134.346C3.93143 134.463 4.09641 134.581 4.25171 134.7C4.26806 134.71 4.2548 134.714 4.24522 134.71C3.20212 134.285 2.38325 133.909 1.76529 133.509C1.69417 133.444 1.63446 133.385 1.58451 133.33C1.53739 133.278 1.48453 133.215 1.44116 133.146C1.40161 133.081 1.37181 133.024 1.3622 132.943C1.34195 132.797 1.48074 132.698 1.60665 132.656C1.85408 132.574 2.09344 132.568 2.33817 132.562C2.77147 132.557 3.1818 132.591 3.54804 132.626C4.30617 132.702 5.02768 132.802 6.14907 132.982C7.27938 133.165 8.79597 133.436 11.1826 133.881C12.3749 134.086 13.762 134.417 15.4521 134.615C17.2011 134.471 19.2292 134.294 21.5265 134.216C12.2959 134.77 21.024 134.262 19.2177 134.394C18.4966 134.433 16.7682 134.529 15.611 134.608C15.3187 134.646 15.0761 134.599 14.8931 134.564C14.7097 134.531 14.5852 134.509 14.5428 134.501C14.4612 134.469 14.6908 134.584 15.475 134.619C14.2905 134.515 12.0093 134.016 9.31341 133.535C7.96646 133.29 6.52902 133.029 5.05994 132.814C4.33243 132.71 3.60272 132.614 2.87159 132.574C2.49513 132.557 2.14274 132.545 1.7833 132.609C1.63859 132.639 1.40084 132.697 1.36475 132.877C1.34046 133.056 1.48907 133.22 1.58451 133.33C1.63583 133.386 1.69607 133.446 1.76529 133.509C2.59262 134.024 3.4552 134.392 4.24522 134.71C4.25485 134.714 4.26802 134.71 4.25171 134.7C2.1895 133.166 0.317772 132.739 0.077916 132.781C0.0853865 132.782 0.0934115 132.782 0.100479 132.782C-0.412635 132.807 0.958374 132.521 3.757 134.346ZM34.7165 134.849C32.2146 134.46 31.2094 134.82 26.2053 134.056C22.2401 133.733 29.3348 134.79 36.2987 134.984C41.0036 134.982 46.1369 134.033 47.3737 133.977C30.3039 136.04 41.9912 134.985 48.115 133.931C51.3121 133.383 52.9477 133.052 48.0879 133.765C47.5838 133.836 46.9972 133.917 46.3452 134.003C46.9619 133.914 47.5485 133.826 48.0842 133.743C61.0824 131.537 51.5187 133.071 53.8106 132.61C56.3684 132.112 65.1138 130.267 64.6396 130.251C64.6348 130.252 64.6301 130.253 64.6254 130.254C59.3066 131.477 53.9404 132.566 48.573 133.474C50.9128 133.168 50.0692 133.357 48.0753 133.689C45.559 134.117 41.2156 134.643 39.1718 134.674C38.2009 134.773 37.2182 134.847 36.3014 134.856C35.7714 134.86 35.2483 134.857 34.7165 134.849ZM64.9469 130.5C64.4364 130.677 52.793 133.108 53.5463 132.956C55.1364 132.81 71.5963 129.039 64.9469 130.5ZM116.207 119.466C112.11 120.806 105.824 122.635 103.614 123.061C107.691 122.291 113.99 120.226 116.207 119.466ZM4.39087 246.613C4.52234 252.093 4.35798 235.196 4.32962 240.088C4.32082 240.33 4.37719 246.336 4.39087 246.613ZM22.4253 133.747C16.7587 133.185 19.4577 133.609 23.6093 133.979C23.8494 134.001 22.6858 133.776 22.4253 133.747ZM5.46504 132.874C5.65305 132.883 9.43754 133.546 13.509 134.312C15.4881 134.996 17.7977 134.25 19.5898 134.251C21.404 134.131 22.8271 134.125 23.4721 134.129C22.7777 133.953 18.029 134.811 13.638 134.336C9.33209 133.523 5.24629 132.819 5.46504 132.874ZM123.386 117.031C115.086 119.44 104.24 123.007 103.025 122.961C101.827 123.173 103.686 122.747 103.413 122.793C103.181 122.832 101.256 123.234 98.8956 123.417C98.8511 123.421 98.8065 123.424 98.7617 123.428C94.5334 123.737 89.2084 124.64 88.8077 124.721C88.343 124.807 90.7999 124.509 88.0305 125.031C89.8832 124.677 94.021 123.948 98.7735 123.563C98.818 123.56 98.8626 123.556 98.9071 123.553C107.333 122.849 117.558 118.72 118.369 118.645C119.32 118.346 112.127 120.449 123.372 117.035C123.377 117.034 123.382 117.032 123.386 117.031ZM100.012 123.381C101.384 123.234 100.519 123.385 98.905 123.528C98.861 123.532 98.8165 123.535 98.7714 123.539C96.4724 123.717 92.9256 124.173 91.645 124.365C87.4754 124.982 95.429 123.68 98.7675 123.494C98.813 123.49 98.8576 123.487 98.9012 123.483C99.5243 123.434 99.9419 123.387 100.012 123.381ZM77.4107 127.098C76.7106 127.248 72.3411 128.299 69.2348 129.124C69.2104 129.13 69.186 129.136 69.1616 129.143C67.6324 129.543 66.389 129.848 66.1323 129.931C67.007 129.74 68.0735 129.49 69.1791 129.21C69.2037 129.204 69.2282 129.198 69.2526 129.191C73.8165 128.014 79.3252 126.672 77.4107 127.098ZM3.98955 173.333C3.99537 174.643 3.99622 177.15 4.07642 179.344C4.14256 181.312 4.16353 183.038 4.19606 183.223C4.17828 182.334 4.1586 180.824 4.10887 179.343C4.01098 176.544 4.02908 173.588 3.98955 173.333ZM55.4516 129.888C51.346 130.807 60.8254 128.563 63.5785 127.929C63.7413 127.933 55.8 129.81 55.4516 129.888ZM21.5211 133.125C21.2958 133.103 20.451 133.016 19.1157 132.93C17.7418 132.853 15.851 132.742 13.5201 132.972C11.3551 133.197 8.59493 133.795 6.21507 135.642C4.80573 136.748 3.2653 138.294 2.66268 140.655C2.60504 140.89 2.55912 141.129 2.52579 141.371C1.94707 145.917 3.12527 149.737 3.27234 152.514C3.51872 155.562 3.58307 157.937 3.61839 158.916C3.59972 157.949 3.55065 155.567 3.31644 152.51C3.17989 149.724 2.01539 145.894 2.60024 141.381C2.63353 141.142 2.67926 140.905 2.73658 140.673C3.33672 138.335 4.86694 136.803 6.26637 135.708C8.64518 133.867 11.3914 133.283 13.5294 133.061C15.9124 132.827 17.8065 132.947 19.1103 133.017C20.1684 133.082 20.8346 133.143 21.0133 133.155C21.4219 133.185 21.7168 133.147 21.5211 133.125ZM85.759 124.928C88.5308 124.319 90.3888 124.131 90.7424 124.075C92.9471 123.724 96.6881 123.272 98.7367 123.14C98.7824 123.137 98.8272 123.134 98.8711 123.131C99.8763 123.059 100.375 123.005 99.858 123.088C99.5487 123.119 99.2211 123.148 98.8748 123.174C98.8303 123.177 98.7856 123.181 98.7406 123.184C92.0794 123.566 80.5865 126.123 85.759 124.928ZM3.61941 175.525C3.81531 184.077 3.62242 172.339 3.68403 169.127C3.68211 168.372 3.67319 168.066 3.65422 168.557C3.65311 168.587 3.65034 168.796 3.6465 169.127C3.62559 170.622 3.59954 174.631 3.61941 175.525ZM24.9565 133.461C25.8174 133.495 30.5914 134.203 36.3117 134.353C39.7508 134.385 44.0843 133.752 47.9834 133.13C54.1887 132.116 59.6688 130.944 61.4818 130.553C57.256 131.58 53.7872 132.203 48.0455 133.17C48.0272 133.174 48.0093 133.176 47.9916 133.179C46.5073 133.423 46.9159 133.404 46.752 133.431C44.0716 133.84 46.0704 133.482 44.4173 133.72C44.0257 133.749 40.1466 134.43 36.3102 134.426C30.2294 134.298 23.0364 133.25 24.9565 133.461ZM87.3421 124.579C88.1932 124.403 93.4868 123.416 98.7257 123.013C98.7705 123.009 98.8153 123.005 98.8601 123.002C103.509 122.654 107.994 121.248 108.355 121.18C111.382 120.266 105.155 122.559 98.865 123.059C98.8202 123.063 98.7754 123.066 98.7306 123.07C93.3195 123.482 87.9888 124.472 87.3421 124.579ZM22.1523 133.053C25.5937 133.387 40.2264 134.644 30.1568 133.926C29.1914 133.86 25.0896 133.321 22.1523 133.053ZM3.47159 174.406C3.47313 174.633 3.46531 176.874 3.5546 179.363C3.65584 182.378 3.6757 185.798 3.70642 185.92C3.70436 185.276 3.69346 182.229 3.59626 179.362C3.45051 175.027 3.50561 170.964 3.47159 174.406ZM3.32462 168.778C3.32451 168.977 3.38417 167.543 3.39602 169.126C3.39979 169.612 3.3982 170.383 3.39188 171.577C3.41083 172.011 3.21155 172.754 3.41929 179.262C3.42076 179.297 3.42231 179.333 3.42393 179.368C3.48159 180.595 3.57749 182.49 3.57916 182.35C3.58378 181.543 3.57497 180.474 3.54112 179.364C3.43563 176.169 3.4366 172.169 3.41999 169.126C3.3912 164.276 3.31799 161.78 3.32462 168.778ZM87.6773 124.444C86.644 124.594 89.0971 124.02 91.3635 123.743C92.3376 123.63 90.5321 123.934 87.6773 124.444ZM3.67399 208.627C3.63441 203.503 3.55999 215.715 3.51468 220.903C3.50608 222.064 3.50119 222.872 3.50315 223.055C3.51558 222.908 3.53328 222.087 3.55228 220.903C3.61795 216.988 3.67948 209.11 3.67399 208.627ZM64.877 127.085C64.8722 127.087 64.8674 127.088 64.8626 127.089C69.9736 125.868 66.8221 126.693 67.0661 126.637C67.4592 126.544 67.8497 126.452 68.2078 126.366C74.2911 124.905 75.2756 124.482 75.6718 124.331C75.9179 124.231 75.9462 124.2 76.5301 124.007C80.1429 122.84 79.5556 123.104 85.7997 121.279C75.5258 124.357 84.867 121.568 85.1919 121.567C85.9227 121.503 80.8324 122.859 75.7154 124.467C73.1502 125.232 70.2763 125.894 68.2175 126.405C67.6718 126.539 67.1746 126.662 66.7489 126.77C66.4314 126.85 67.3198 126.653 68.2284 126.45C69.3317 126.203 70.4569 125.946 69.4649 126.209C69.1105 126.303 68.6885 126.41 68.2461 126.521C61.4828 128.199 46.3731 131.385 64.877 127.085ZM93.1048 123.486C93.8473 123.367 96.0753 123.064 98.7123 122.859C98.7571 122.855 98.8019 122.852 98.8469 122.848C104.393 122.507 111.865 119.993 108.652 121.026C108.25 121.135 103.098 122.676 98.8547 122.939C98.8098 122.943 98.765 122.946 98.7202 122.95C94.6466 123.268 91.4179 123.779 93.1048 123.486ZM520.435 403.719C515.883 403.562 526.421 404.209 528.586 403.841C529.575 403.839 522.383 403.877 520.435 403.719ZM551.686 345.28C551.948 339.961 551.88 334.32 551.627 340.955C551.602 341.65 551.614 345.882 551.686 345.28ZM245.456 417.783C250.984 417.906 250.65 417.722 246.596 417.703C245.168 417.699 245.279 417.779 245.456 417.783ZM456.833 409.649C457.38 409.606 463.759 409.09 463.519 409.069C461.159 409.216 453.262 409.9 456.833 409.649ZM243.703 417.806C246.973 417.779 241.334 417.627 237.334 417.784C239.374 417.759 243.356 417.807 243.703 417.806ZM9.55808 133.278C8.67942 133.6 7.31312 134.168 5.91589 135.257C4.60126 136.307 2.887 137.875 2.19467 140.54C2.13315 140.79 2.0839 141.046 2.0481 141.305C1.63683 144.253 2.06828 147.013 2.32429 148.872C2.40861 149.139 1.46 145.832 1.99492 141.298C2.03096 141.038 2.08062 140.78 2.14303 140.527C2.81412 137.911 4.54563 136.284 5.89345 135.228C7.32695 134.122 8.73013 133.566 9.55808 133.278ZM549.74 368.082C550.464 362.955 548.651 373.856 548.896 372.82C548.924 372.705 549.722 368.305 549.74 368.082ZM66.7763 422.17C70.4378 422.087 58.8076 422.081 62.0087 422.164C62.1665 422.17 66.5752 422.177 66.7763 422.17ZM16.2739 412.47C17.1906 413.715 19.9958 416.741 22.6961 418.415C25.3651 420.114 27.4546 420.777 24.9737 419.662C24.5926 419.49 22.0543 418.133 20.0313 416.34C17.9688 414.589 16.367 412.543 16.2739 412.47ZM76.8081 123.85C75.3348 124.212 83.6848 121.596 84.958 121.32C85.4185 121.162 78.6781 123.346 76.8081 123.85ZM281.29 418.605C282.228 418.648 283.681 418.72 285.186 418.827C288.375 419.062 292.019 419.225 292.902 419.224C291.101 419.156 287.832 418.974 285.19 418.775C282.767 418.603 280.834 418.533 281.29 418.605ZM546.12 391.263C546.603 389.922 547.018 388.207 547.164 386.497C547.484 382.88 547.941 379.44 547.651 380.716C546.899 387.343 547.542 382.286 547.124 386.494C547.028 387.56 546.83 389.148 546.12 391.263ZM225.338 418.183C227.628 418.116 229.378 417.933 229.119 417.934C226.637 417.939 223.055 418.206 225.338 418.183ZM397.604 413.546C397.755 413.608 405.119 413.392 404.145 413.376C403.78 413.378 397.522 413.503 397.604 413.546ZM3.1239 229.925C3.09383 231.156 3.07901 230.581 3.08026 229.183C3.08311 227.1 3.1132 223.186 3.155 220.9C3.16183 220.531 3.16903 220.205 3.17662 219.935C3.2025 219.552 3.21317 220.007 3.21416 220.9C3.21719 222.977 3.16273 227.42 3.13553 229.184C3.12935 229.598 3.12533 229.865 3.1239 229.925ZM161.453 418.693C161.11 418.773 172.621 418.766 168.086 418.677C166.949 418.653 161.576 418.662 161.453 418.693ZM51.2325 422.374C59.0289 422.432 26.3227 421.725 34.9099 422.02C35.577 422.143 50.5703 422.415 51.2325 422.374ZM9.30282 394.463C9.51613 395.851 9.01563 395.143 8.5109 389.561C8.44246 388.829 8.90376 392.237 8.85582 391.639C8.84237 391.508 8.64791 389.738 8.42865 387.593C8.34915 386.825 8.27958 386.045 8.20854 385.214C7.94253 382.077 7.73496 378.904 7.71187 378.635C7.66273 378.041 7.61849 378.75 7.56595 378.143C7.49739 377.46 7.11009 370.034 6.93999 366.148C6.60726 358.815 6.54618 358.026 6.51836 357.421C6.46383 355.67 6.43456 352.718 6.393 349.156C6.34196 344.437 6.34698 339.049 6.63826 333.378C6.70515 332.123 6.67479 330.835 6.59032 329.457C5.21866 315.313 4.39478 299.635 4.27348 290.187C4.56894 302.783 5.33051 314.909 6.56532 327.294C6.41547 326.174 6.5453 327.538 6.67601 329.452C6.76106 330.717 6.80907 332.168 6.75086 333.384C6.627 336.486 6.57095 338.393 6.72329 333.382C6.73382 333.095 6.74057 332.783 6.74119 332.441C6.73868 332.678 6.73213 332.994 6.71332 333.382C6.04249 340.716 6.81761 369.926 8.27555 385.208C8.35099 386.062 8.42224 386.829 8.50273 387.585C8.86395 391.067 9.18169 393.611 9.30065 394.448C9.30137 394.453 9.3021 394.458 9.30282 394.463ZM552.65 324.27C552.672 327.559 553.123 310.753 552.996 309.337C552.95 311.55 552.664 323.866 552.65 324.27ZM538.479 402.294C536.928 402.999 535.21 404.057 529.215 404.48C528.191 404.554 527.06 404.594 525.788 404.59C525.781 404.59 525.773 404.59 525.765 404.59C523.242 404.563 526.115 404.514 525.653 404.495C525.447 404.545 517.753 404.202 524.158 404.366C533.097 404.174 526.836 404.442 529.207 404.379C529.496 404.361 529.92 404.331 530.519 404.275C530.947 404.346 538.566 403.227 540.951 400.643C541.476 400.197 541.728 399.92 541.616 400.026C541.598 400.041 541.333 400.301 540.938 400.628C539.956 401.501 538.068 402.445 537.664 402.576C535.504 403.354 536.532 402.872 536.229 402.985C535.828 403.155 532.662 403.98 529.192 404.186C524.058 404.59 518.167 404.079 516.906 403.992C516.555 403.88 522.44 404.542 529.186 404.106C533.204 403.844 537.942 402.959 540.819 400.483C542.573 399.044 543.377 397.553 543.576 397.223C543.584 397.21 543.59 397.199 543.595 397.191C543.916 396.643 543.949 396.972 544.29 396.391C544.367 396.302 547.342 390.895 547.481 386.523C547.58 385.24 547.681 384.229 547.722 383.88C547.764 383.518 547.799 383.25 547.826 383.045C547.669 384.065 548.107 379.99 548.508 377.65C548.662 376.703 548.787 376.038 548.793 376.118C548.793 376.169 548.692 376.806 548.563 377.659C548.279 379.478 547.928 382.281 547.914 382.426C547.901 382.521 547.889 382.6 547.879 382.675C547.949 382.285 547.744 384.059 547.556 386.529C547.391 390.526 545.081 395.27 543.842 397.373C542.404 399.769 541.33 400.522 542.739 399.097C542.084 399.899 541.5 400.417 541.063 400.779C537.42 403.306 543.28 399.302 538.479 402.294ZM508.46 404.603C509.052 404.483 509.647 404.368 510.24 404.259C506.103 404.893 501.637 405.943 496.747 406.785C492.545 407.513 488.129 408.003 483.714 408.25C480.883 408.412 478.013 408.593 475.156 408.787C472.068 409 475.627 408.864 471.577 409.117C470.845 409.163 470.093 409.208 469.391 409.247C466.981 409.381 465.133 409.456 466.497 409.335C466.671 409.32 467.835 409.243 469.383 409.142C471.695 408.991 474.86 408.794 476.84 408.659C480.825 408.386 482.771 408.251 483.709 408.173C485.13 408.053 484.373 408.065 484.721 408.042C485.365 408.026 491.727 407.541 495.166 406.93C495.702 406.843 496.223 406.755 496.726 406.667C502.092 405.719 505.534 404.804 510.799 404.033C512.267 403.827 514.943 403.979 518.037 404.172C512.436 403.962 513.973 404.039 510.829 404.233C510.199 404.326 509.432 404.442 508.46 404.603ZM113.137 420.262C112.888 420.32 110.099 420.559 107.42 420.779C105.803 420.912 104.227 421.039 103.276 421.121C103.472 421.075 105.314 420.921 107.417 420.746C109.517 420.572 111.879 420.377 113.137 420.262ZM329.363 1.01883C327.232 1.14844 343.254 0.704525 339.029 0.76297C338.093 0.769537 331.375 0.946395 329.363 1.01883ZM401.365 0.206465C402.03 0.204517 401.667 0.191497 400.811 0.177897C400.258 0.169129 399.507 0.159954 398.731 0.152676C396.906 0.135267 394.86 0.130724 394.875 0.159644C394.875 0.170571 396.954 0.1821 398.73 0.19281C399.547 0.197606 400.316 0.201764 400.811 0.204151C401.121 0.205653 401.32 0.206625 401.365 0.206465ZM371.555 416.366C371.169 416.431 365.785 416.858 365.024 416.871C364.982 416.873 364.955 416.874 364.945 416.875C364.168 416.901 364.337 416.876 365.021 416.826C367.849 416.716 378.815 415.513 371.555 416.366ZM488.695 1.44034C481.234 1.48295 503.708 1.54287 496.857 1.46056C496.497 1.44618 489.062 1.435 488.695 1.44034ZM520.112 2.90351C518.331 2.73274 510.379 2.04486 510.268 2.07495C510.112 2.08305 519.21 2.87361 520.112 2.90351ZM223.803 418.597C224.068 418.622 223.265 418.664 221.911 418.716C218.878 418.837 213.068 418.998 210.539 419.074C209.788 419.008 217.452 418.82 221.909 418.663C222.648 418.638 223.287 418.617 223.803 418.597ZM289.53 419.688C288.006 419.609 286.544 419.52 285.143 419.42C279.708 419.075 275.061 418.943 271.446 418.824C255.789 418.42 257.679 418.383 271.449 418.729C275.19 418.847 279.897 418.991 285.148 419.344C287.373 419.509 289.729 419.649 292.195 419.765C292.245 419.835 292.355 419.829 289.53 419.688ZM233.303 418.408C233.784 418.379 234.568 418.355 235.515 418.34C237.75 418.306 240.896 418.307 243.251 418.314C242.78 418.35 238.541 418.349 235.515 418.377C234.637 418.384 233.856 418.396 233.303 418.408ZM310.294 1.70534C313.061 1.48693 325.333 1.04652 323.16 1.17274C322.644 1.18249 309.28 1.78405 310.294 1.70534ZM367.794 416.799C368.144 416.806 366.898 416.931 365.035 417.051C361.454 417.269 355.324 417.822 354.642 417.864C351.486 418.089 360.427 417.244 365.031 416.991C366.48 416.908 367.538 416.824 367.794 416.799ZM161.021 419.181C158.684 419.258 152.041 419.219 147.78 419.243C149.722 419.158 157.399 419.171 161.021 419.181ZM191.889 419.448C191.711 419.45 189.195 419.438 187.323 419.411C186.294 419.398 185.455 419.387 185.359 419.384C183.341 419.33 185.043 419.331 187.324 419.355C190.623 419.394 195.123 419.41 191.889 419.448ZM57.5923 128.053C57.7895 128.005 62.178 126.978 62.3311 126.943C66.2666 126.091 53.0814 129.18 57.5923 128.053Z" fill="#B4EE15"/>
</svg>
