<svg width="276" height="26" viewBox="0 0 276 26" fill="none" xmlns="http://www.w3.org/2000/svg">
<g filter="url(#filter0_d_27_238)">
<path d="M4 0.454545H6.90909V3.36364H4V0.454545ZM6.90909 0.454545H9.81818V3.36364H6.90909V0.454545ZM9.81818 0.454545H12.7273V3.36364H9.81818V0.454545ZM9.81818 3.36364H12.7273V6.27273H9.81818V3.36364ZM9.81818 6.27273H12.7273V9.18182H9.81818V6.27273ZM6.90909 6.27273H9.81818V9.18182H6.90909V6.27273ZM4 6.27273H6.90909V9.18182H4V6.27273ZM4 9.18182H6.90909V12.0909H4V9.18182ZM6.90909 12.0909H9.81818V15H6.90909V12.0909ZM4 12.0909H6.90909V15H4V12.0909ZM9.81818 12.0909H12.7273V15H9.81818V12.0909ZM15.625 0.454545H18.5341V3.36364H15.625V0.454545ZM15.625 3.36364H18.5341V6.27273H15.625V3.36364ZM15.625 6.27273H18.5341V9.18182H15.625V6.27273ZM15.625 9.18182H18.5341V12.0909H15.625V9.18182ZM15.625 12.0909H18.5341V15H15.625V12.0909ZM18.5341 0.454545H21.4432V3.36364H18.5341V0.454545ZM21.4432 3.36364H24.3523V6.27273H21.4432V3.36364ZM21.4432 6.27273H24.3523V9.18182H21.4432V6.27273ZM21.4432 9.18182H24.3523V12.0909H21.4432V9.18182ZM18.5341 12.0909H21.4432V15H18.5341V12.0909ZM33.0682 0.454545H35.9773V3.36364H33.0682V0.454545ZM33.0682 3.36364H35.9773V6.27273H33.0682V3.36364ZM30.1591 6.27273H33.0682V9.18182H30.1591V6.27273ZM30.1591 9.18182H33.0682V12.0909H30.1591V9.18182ZM27.25 12.0909H30.1591V15H27.25V12.0909ZM27.25 15H30.1591V17.9091H27.25V15ZM38.875 0.454545H41.7841V3.36364H38.875V0.454545ZM41.7841 0.454545H44.6932V3.36364H41.7841V0.454545ZM44.6932 3.36364H47.6023V6.27273H44.6932V3.36364ZM44.6932 9.18182H47.6023V12.0909H44.6932V9.18182ZM41.7841 12.0909H44.6932V15H41.7841V12.0909ZM38.875 12.0909H41.7841V15H38.875V12.0909ZM41.7841 6.27273H44.6932V9.18182H41.7841V6.27273ZM44.6932 0.454545H47.6023V3.36364H44.6932V0.454545ZM44.6932 12.0909H47.6023V15H44.6932V12.0909ZM44.6932 6.27273H47.6023V9.18182H44.6932V6.27273ZM50.5 0.454545H53.4091V3.36364H50.5V0.454545ZM50.5 3.36364H53.4091V6.27273H50.5V3.36364ZM50.5 6.27273H53.4091V9.18182H50.5V6.27273ZM50.5 9.18182H53.4091V12.0909H50.5V9.18182ZM50.5 12.0909H53.4091V15H50.5V12.0909ZM53.4091 0.454545H56.3182V3.36364H53.4091V0.454545ZM56.3182 3.36364H59.2273V6.27273H56.3182V3.36364ZM56.3182 6.27273H59.2273V9.18182H56.3182V6.27273ZM56.3182 9.18182H59.2273V12.0909H56.3182V9.18182ZM53.4091 12.0909H56.3182V15H53.4091V12.0909ZM70.8438 12.0909H73.7528V15H70.8438V12.0909ZM70.8438 9.18182H73.7528V12.0909H70.8438V9.18182ZM70.8438 6.27273H73.7528V9.18182H70.8438V6.27273ZM70.8438 3.36364H73.7528V6.27273H70.8438V3.36364ZM73.7528 0.454545H76.6619V3.36364H73.7528V0.454545ZM76.6619 3.36364H79.571V6.27273H76.6619V3.36364ZM76.6619 6.27273H79.571V9.18182H76.6619V6.27273ZM76.6619 9.18182H79.571V12.0909H76.6619V9.18182ZM76.6619 12.0909H79.571V15H76.6619V12.0909ZM73.7528 6.27273H76.6619V9.18182H73.7528V6.27273ZM82.4688 12.0909H85.3778V15H82.4688V12.0909ZM82.4688 9.18182H85.3778V12.0909H82.4688V9.18182ZM82.4688 6.27273H85.3778V9.18182H82.4688V6.27273ZM82.4688 3.36364H85.3778V6.27273H82.4688V3.36364ZM82.4688 0.454545H85.3778V3.36364H82.4688V0.454545ZM85.3778 0.454545H88.2869V3.36364H85.3778V0.454545ZM88.2869 0.454545H91.196V3.36364H88.2869V0.454545ZM88.2869 3.36364H91.196V6.27273H88.2869V3.36364ZM85.3778 6.27273H88.2869V9.18182H85.3778V6.27273ZM88.2869 9.18182H91.196V12.0909H88.2869V9.18182ZM88.2869 12.0909H91.196V15H88.2869V12.0909ZM94.0938 0.454545H97.0028V3.36364H94.0938V0.454545ZM97.0028 0.454545H99.9119V3.36364H97.0028V0.454545ZM99.9119 0.454545H102.821V3.36364H99.9119V0.454545ZM97.0028 3.36364H99.9119V6.27273H97.0028V3.36364ZM97.0028 6.27273H99.9119V9.18182H97.0028V6.27273ZM97.0028 9.18182H99.9119V12.0909H97.0028V9.18182ZM97.0028 12.0909H99.9119V15H97.0028V12.0909ZM105.719 0.454545H108.628V3.36364H105.719V0.454545ZM105.719 3.36364H108.628V6.27273H105.719V3.36364ZM105.719 6.27273H108.628V9.18182H105.719V6.27273ZM105.719 9.18182H108.628V12.0909H105.719V9.18182ZM105.719 12.0909H108.628V15H105.719V12.0909ZM117.349 0.454545H120.259V3.36364H117.349V0.454545ZM114.44 0.454545H117.349V3.36364H114.44V0.454545ZM111.531 3.36364H114.44V6.27273H111.531V3.36364ZM111.531 6.27273H114.44V9.18182H111.531V6.27273ZM114.44 6.27273H117.349V9.18182H114.44V6.27273ZM117.349 6.27273H120.259V9.18182H117.349V6.27273ZM117.349 9.18182H120.259V12.0909H117.349V9.18182ZM117.349 12.0909H120.259V15H117.349V12.0909ZM114.44 12.0909H117.349V15H114.44V12.0909ZM111.531 12.0909H114.44V15H111.531V12.0909ZM111.531 0.454545H114.44V3.36364H111.531V0.454545ZM123.156 0.454545H126.065V3.36364H123.156V0.454545ZM126.065 0.454545H128.974V3.36364H126.065V0.454545ZM128.974 0.454545H131.884V3.36364H128.974V0.454545ZM126.065 3.36364H128.974V6.27273H126.065V3.36364ZM126.065 6.27273H128.974V9.18182H126.065V6.27273ZM126.065 9.18182H128.974V12.0909H126.065V9.18182ZM126.065 12.0909H128.974V15H126.065V12.0909ZM143.5 12.0909H146.409V15H143.5V12.0909ZM143.5 9.18182H146.409V12.0909H143.5V9.18182ZM143.5 6.27273H146.409V9.18182H143.5V6.27273ZM143.5 3.36364H146.409V6.27273H143.5V3.36364ZM146.409 0.454545H149.318V3.36364H146.409V0.454545ZM149.318 3.36364H152.227V6.27273H149.318V3.36364ZM149.318 6.27273H152.227V9.18182H149.318V6.27273ZM149.318 9.18182H152.227V12.0909H149.318V9.18182ZM149.318 12.0909H152.227V15H149.318V12.0909ZM146.409 6.27273H149.318V9.18182H146.409V6.27273ZM155.125 12.0909H158.034V15H155.125V12.0909ZM155.125 9.18182H158.034V12.0909H155.125V9.18182ZM155.125 6.27273H158.034V9.18182H155.125V6.27273ZM155.125 3.36364H158.034V6.27273H155.125V3.36364ZM158.034 0.454545H160.943V3.36364H158.034V0.454545ZM160.943 3.36364H163.852V6.27273H160.943V3.36364ZM160.943 6.27273H163.852V9.18182H160.943V6.27273ZM160.943 9.18182H163.852V12.0909H160.943V9.18182ZM160.943 12.0909H163.852V15H160.943V12.0909ZM155.125 0.454545H158.034V3.36364H155.125V0.454545ZM166.75 0.454545H169.659V3.36364H166.75V0.454545ZM166.75 3.36364H169.659V6.27273H166.75V3.36364ZM166.75 6.27273H169.659V9.18182H166.75V6.27273ZM166.75 9.18182H169.659V12.0909H166.75V9.18182ZM166.75 12.0909H169.659V15H166.75V12.0909ZM169.659 0.454545H172.568V3.36364H169.659V0.454545ZM172.568 3.36364H175.477V6.27273H172.568V3.36364ZM172.568 6.27273H175.477V9.18182H172.568V6.27273ZM172.568 9.18182H175.477V12.0909H172.568V9.18182ZM169.659 12.0909H172.568V15H169.659V12.0909ZM187.094 0.454545H190.003V3.36364H187.094V0.454545ZM187.094 3.36364H190.003V6.27273H187.094V3.36364ZM187.094 6.27273H190.003V9.18182H187.094V6.27273ZM187.094 9.18182H190.003V12.0909H187.094V9.18182ZM187.094 12.0909H190.003V15H187.094V12.0909ZM190.003 0.454545H192.912V3.36364H190.003V0.454545ZM192.912 3.36364H195.821V6.27273H192.912V3.36364ZM192.912 6.27273H195.821V9.18182H192.912V6.27273ZM192.912 9.18182H195.821V12.0909H192.912V9.18182ZM190.003 12.0909H192.912V15H190.003V12.0909ZM198.719 0.454545H201.628V3.36364H198.719V0.454545ZM198.719 3.36364H201.628V6.27273H198.719V3.36364ZM198.719 6.27273H201.628V9.18182H198.719V6.27273ZM198.719 9.18182H201.628V12.0909H198.719V9.18182ZM198.719 12.0909H201.628V15H198.719V12.0909ZM201.628 0.454545H204.537V3.36364H201.628V0.454545ZM201.628 12.0909H204.537V15H201.628V12.0909ZM201.628 6.27273H204.537V9.18182H201.628V6.27273ZM204.537 0.454545H207.446V3.36364H204.537V0.454545ZM204.537 12.0909H207.446V15H204.537V12.0909ZM216.162 0.454545H219.071V3.36364H216.162V0.454545ZM213.253 0.454545H216.162V3.36364H213.253V0.454545ZM210.344 3.36364H213.253V6.27273H210.344V3.36364ZM210.344 6.27273H213.253V9.18182H210.344V6.27273ZM213.253 6.27273H216.162V9.18182H213.253V6.27273ZM216.162 6.27273H219.071V9.18182H216.162V6.27273ZM216.162 9.18182H219.071V12.0909H216.162V9.18182ZM216.162 12.0909H219.071V15H216.162V12.0909ZM213.253 12.0909H216.162V15H213.253V12.0909ZM210.344 12.0909H213.253V15H210.344V12.0909ZM210.344 0.454545H213.253V3.36364H210.344V0.454545ZM221.969 0.454545H224.878V3.36364H221.969V0.454545ZM221.969 3.36364H224.878V6.27273H221.969V3.36364ZM221.969 6.27273H224.878V9.18182H221.969V6.27273ZM221.969 9.18182H224.878V12.0909H221.969V9.18182ZM221.969 12.0909H224.878V15H221.969V12.0909ZM233.599 0.454545H236.509V3.36364H233.599V0.454545ZM230.69 0.454545H233.599V3.36364H230.69V0.454545ZM227.781 0.454545H230.69V3.36364H227.781V0.454545ZM227.781 3.36364H230.69V6.27273H227.781V3.36364ZM227.781 6.27273H230.69V9.18182H227.781V6.27273ZM227.781 9.18182H230.69V12.0909H227.781V9.18182ZM227.781 12.0909H230.69V15H227.781V12.0909ZM230.69 12.0909H233.599V15H230.69V12.0909ZM233.599 9.18182H236.509V12.0909H233.599V9.18182ZM233.599 6.27273H236.509V9.18182H233.599V6.27273ZM239.406 12.0909H242.315V15H239.406V12.0909ZM239.406 9.18182H242.315V12.0909H239.406V9.18182ZM239.406 6.27273H242.315V9.18182H239.406V6.27273ZM239.406 3.36364H242.315V6.27273H239.406V3.36364ZM242.315 0.454545H245.224V3.36364H242.315V0.454545ZM245.224 3.36364H248.134V6.27273H245.224V3.36364ZM245.224 6.27273H248.134V9.18182H245.224V6.27273ZM245.224 9.18182H248.134V12.0909H245.224V9.18182ZM245.224 12.0909H248.134V15H245.224V12.0909ZM239.406 0.454545H242.315V3.36364H239.406V0.454545ZM251.031 0.454545H253.94V3.36364H251.031V0.454545ZM251.031 3.36364H253.94V6.27273H251.031V3.36364ZM251.031 6.27273H253.94V9.18182H251.031V6.27273ZM251.031 9.18182H253.94V12.0909H251.031V9.18182ZM251.031 12.0909H253.94V15H251.031V12.0909ZM253.94 0.454545H256.849V3.36364H253.94V0.454545ZM253.94 12.0909H256.849V15H253.94V12.0909ZM253.94 6.27273H256.849V9.18182H253.94V6.27273ZM256.849 0.454545H259.759V3.36364H256.849V0.454545ZM256.849 12.0909H259.759V15H256.849V12.0909ZM262.656 12.0909H265.565V15H262.656V12.0909ZM262.656 9.18182H265.565V12.0909H262.656V9.18182ZM262.656 6.27273H265.565V9.18182H262.656V6.27273ZM262.656 3.36364H265.565V6.27273H262.656V3.36364ZM262.656 0.454545H265.565V3.36364H262.656V0.454545ZM265.565 0.454545H268.474V3.36364H265.565V0.454545ZM268.474 0.454545H271.384V3.36364H268.474V0.454545ZM268.474 3.36364H271.384V6.27273H268.474V3.36364ZM265.565 6.27273H268.474V9.18182H265.565V6.27273ZM268.474 9.18182H271.384V12.0909H268.474V9.18182ZM268.474 12.0909H271.384V15H268.474V12.0909Z" fill="#FF3175"/>
</g>
<defs>
<filter id="filter0_d_27_238" x="0" y="0.454544" width="275.384" height="25.4546" filterUnits="userSpaceOnUse" color-interpolation-filters="sRGB">
<feFlood flood-opacity="0" result="BackgroundImageFix"/>
<feColorMatrix in="SourceAlpha" type="matrix" values="0 0 0 0 0 0 0 0 0 0 0 0 0 0 0 0 0 0 127 0" result="hardAlpha"/>
<feOffset dy="4"/>
<feGaussianBlur stdDeviation="2"/>
<feComposite in2="hardAlpha" operator="out"/>
<feColorMatrix type="matrix" values="0 0 0 0 0 0 0 0 0 0 0 0 0 0 0 0 0 0 0.25 0"/>
<feBlend mode="normal" in2="BackgroundImageFix" result="effect1_dropShadow_27_238"/>
<feBlend mode="normal" in="SourceGraphic" in2="effect1_dropShadow_27_238" result="shape"/>
</filter>
</defs>
</svg>
