<svg width="45" height="36" viewBox="0 0 45 36" fill="none" xmlns="http://www.w3.org/2000/svg">
<g filter="url(#filter0_d_27_240)">
<path d="M4.63873 1.71897L9.63556 1.54089L9.81364 6.53772L4.81681 6.7158L4.63873 1.71897ZM9.63556 1.54089L14.6324 1.36281L14.8105 6.35964L9.81364 6.53772L9.63556 1.54089ZM14.8105 6.35964L19.8073 6.18155L19.9854 11.1784L14.9885 11.3565L14.8105 6.35964ZM15.1666 16.3533L20.1635 16.1752L20.3415 21.172L15.3447 21.3501L15.1666 16.3533ZM10.3479 21.5282L15.3447 21.3501L15.5228 26.3469L10.526 26.525L10.3479 21.5282ZM5.35105 21.7063L10.3479 21.5282L10.526 26.525L5.52913 26.7031L5.35105 21.7063ZM9.99172 11.5345L14.9885 11.3565L15.1666 16.3533L10.1698 16.5314L9.99172 11.5345ZM14.6324 1.36281L19.6292 1.18473L19.8073 6.18155L14.8105 6.35964L14.6324 1.36281ZM15.3447 21.3501L20.3415 21.172L20.5196 26.1689L15.5228 26.3469L15.3447 21.3501ZM14.9885 11.3565L19.9854 11.1784L20.1635 16.1752L15.1666 16.3533L14.9885 11.3565ZM24.6065 1.00734L29.6034 0.829262L29.7814 5.82609L24.7846 6.00417L24.6065 1.00734ZM24.7846 6.00417L29.7814 5.82609L29.9595 10.8229L24.9627 11.001L24.7846 6.00417ZM24.9627 11.001L29.9595 10.8229L30.1376 15.8197L25.1408 15.9978L24.9627 11.001ZM25.1408 15.9978L30.1376 15.8197L30.3157 20.8166L25.3188 20.9947L25.1408 15.9978ZM25.3188 20.9947L30.3157 20.8166L30.4938 25.8134L25.4969 25.9915L25.3188 20.9947ZM29.6034 0.829262L34.6002 0.651182L34.7783 5.64801L29.7814 5.82609L29.6034 0.829262ZM34.7783 5.64801L39.7751 5.46993L39.9532 10.4668L34.9563 10.6448L34.7783 5.64801ZM34.9563 10.6448L39.9532 10.4668L40.1313 15.4636L35.1344 15.6417L34.9563 10.6448ZM35.1344 15.6417L40.1313 15.4636L40.3093 20.4604L35.3125 20.6385L35.1344 15.6417ZM30.3157 20.8166L35.3125 20.6385L35.4906 25.6353L30.4938 25.8134L30.3157 20.8166Z" fill="white"/>
</g>
<defs>
<filter id="filter0_d_27_240" x="0.638672" y="0.473114" width="43.8486" height="35.23" filterUnits="userSpaceOnUse" color-interpolation-filters="sRGB">
<feFlood flood-opacity="0" result="BackgroundImageFix"/>
<feColorMatrix in="SourceAlpha" type="matrix" values="0 0 0 0 0 0 0 0 0 0 0 0 0 0 0 0 0 0 127 0" result="hardAlpha"/>
<feOffset dy="5"/>
<feGaussianBlur stdDeviation="2"/>
<feComposite in2="hardAlpha" operator="out"/>
<feColorMatrix type="matrix" values="0 0 0 0 0 0 0 0 0 0 0 0 0 0 0 0 0 0 0.25 0"/>
<feBlend mode="normal" in2="BackgroundImageFix" result="effect1_dropShadow_27_240"/>
<feBlend mode="normal" in="SourceGraphic" in2="effect1_dropShadow_27_240" result="shape"/>
</filter>
</defs>
</svg>
