<svg width="119" height="354" viewBox="0 0 119 354" fill="none" xmlns="http://www.w3.org/2000/svg">
<path d="M109.456 177.19C108.253 163.746 108.707 150.19 108.401 136.555C106.883 133.339 107.184 130.707 106.961 125.426C106.085 94.0917 107.722 76.8233 106.274 64.7772C105.398 57.517 106.185 47.3873 100.186 43.6401C97.2977 41.8363 93.8115 40.6218 90.3512 39.4163C83.4048 36.9962 84.7928 37.631 72.9433 34.1896C62.1789 31.0632 51.8723 22.7883 46.3758 14.1711C40.1973 4.48473 40.8152 0.610209 30.9296 4.48473C23.556 7.3747 3.70226 20.9383 3.12635 29.6692C2.25045 42.9479 6.21563 68.9322 6.21554 95.5364C6.21545 118.488 8.38982 134.222 8.68704 139.448C9.56294 154.848 12.5198 168.765 13.012 184.005C13.8879 211.124 17.9548 237.352 17.9548 259.276C17.9548 317.677 18.7982 321.61 21.0779 330.239L21.2083 330.733C23.4135 339.088 23.9917 341.279 30.9296 345.991C37.5899 350.514 46.7506 348.666 53.806 349.952C63.701 351.755 74.4032 351.229 91.2729 348.393C100.223 346.888 108.325 348.803 112.656 341.836C116.984 334.875 116.604 283.605 114.373 254.878C113.81 247.617 115.191 240.237 112.925 224.042C111.486 213.754 111.859 204.026 109.456 177.19Z" fill="#B4EE15"/>
<path d="M106.462 108.274C106.409 108.847 106.195 111.181 106.119 112.187C106.156 111.039 106.649 106.189 106.462 108.274ZM114.447 211.041C114.38 210.206 114.316 209.378 114.252 208.555C114.369 210.905 114.565 214.082 114.712 216.236C114.736 216.591 114.614 215.675 114.675 216.514C114.738 217.344 114.795 217.185 114.908 218.393C114.98 219.158 115.181 221.461 115.483 223.684C115.714 225.397 115.908 227.088 116.017 228.071C116.022 228.121 116.028 228.171 116.033 228.217C117.083 236.487 116.762 245.274 116.827 253.145C116.71 245.675 116.593 251.862 116.828 254.687C116.852 254.997 116.875 255.274 116.894 255.498C116.922 255.85 117 255.95 117.215 258.678C117.315 259.959 117.441 261.801 117.581 264.514C117.84 269.968 117.426 264.955 117.915 274.028C117.747 267.03 118.06 273.905 118.237 279.391C118.276 280.329 118.463 287.966 118.509 291.338C118.529 292.49 118.622 294.251 118.638 295.78C118.648 296.826 118.617 297.636 118.625 299.195C118.658 306.499 118.583 313.659 118.248 321.006C118.252 316.707 118.024 324.384 117.972 324.705C117.838 326.43 118.22 318.569 118.038 321.666C117.83 326.054 117.564 330.393 116.98 334.855C117.464 331.193 116.624 339.602 115.668 341.484C115.712 341.372 115.656 341.918 114.904 343.233C114.415 344.025 113.666 345.083 112.52 346.124C105.988 351.792 95.1201 349.807 93.3877 350.693C92.9125 350.776 95.309 350.47 91.7131 351.011C90.7126 351.183 89.3159 351.42 87.3054 351.727C86.4289 351.859 86.5404 351.806 86.296 351.833C86.2439 351.839 86.1756 351.849 86.0783 351.864C85.7533 351.916 83.742 352.384 81.5667 352.576C80.7577 352.604 85.8569 352.026 74.6712 353.233C79.2249 353.213 58.9159 354.275 55.1236 352.919C55.8682 353.055 56.6158 353.178 57.3661 353.287C55.1641 352.99 54.0394 352.783 53.3112 352.666C52.8927 352.598 52.6211 352.568 52.3282 352.526C50.2261 352.222 47.3008 352.142 44.6247 352.035C43.6078 351.993 42.6289 351.944 41.7532 351.884C38.0119 351.511 37.9397 351.83 33.4346 350.378C34.4941 350.789 35.5689 351.106 36.6374 351.354C34.1545 350.832 31.5853 349.905 29.3227 348.357C28.8149 348.011 28.3237 347.668 27.8234 347.304C28.4904 347.766 28.9813 348.086 29.346 348.323C30.7101 349.161 30.299 348.91 29.356 348.308C28.2671 347.61 26.3704 346.219 26.1417 346.011C25.4152 345.41 26.4883 346.253 25.2817 345.219C25.1664 345.078 25.2604 345.412 23.493 343.505C23.0899 343.043 22.763 342.616 22.4887 342.225C20.4755 339.012 20.9576 339.316 20.2409 337.552C20.2046 337.385 20.2562 337.973 19.2876 334.658C18.7721 332.817 18.4799 331.672 18.2936 330.975C17.9482 329.66 18.054 330.035 18.3098 330.971C18.676 332.323 19.3864 334.892 19.4587 335.102C19.5379 335.365 19.3713 334.583 19.4921 334.853C19.7338 335.129 19.5749 336.372 21.9922 341.127C20.3087 337.953 20.5758 337.619 20.3964 337.272C20.2114 336.923 18.8013 331.792 18.7483 331.547C18.6762 331.285 18.6164 331.072 18.5677 330.902C18.1683 329.507 18.5667 331.222 18.4433 330.791C18.2901 330.472 16.894 324.033 16.6327 322.529C16.4734 319.401 16.7834 324.354 18.1551 329.411C18.3397 330.168 17.1018 324.541 17.1295 324.216C16.1614 316.907 16.5846 320.958 16.3053 319.382C16.1741 318.535 16.0527 315.61 16.136 318.318C15.6582 311.76 16.0183 315.749 15.9916 315.307C15.9842 315.103 15.9618 314.738 15.9349 314.305C15.8763 313.366 15.8121 312.331 15.8053 312.112C15.7928 311.687 15.9035 313.159 15.8426 311.491C15.8332 311.237 15.6461 308.578 15.7576 311.993C15.5729 307.419 15.5443 307.789 15.6202 306.256C15.2903 303.105 15.7016 303.99 15.6836 302.715C15.6481 299.483 15.481 300.378 15.4676 300.22C15.375 299.078 15.3162 289.885 15.2786 287.706C15.4195 288.606 15.3543 294.892 15.4068 296.313C15.5637 300.99 15.3837 289.7 15.6021 293.095C15.5377 291.695 15.4747 290.201 15.4147 288.81C15.5027 286.172 15.5763 289.896 15.4862 282.815C15.3826 281.661 15.5367 287.83 15.4533 286.58C15.4028 285.911 15.3658 281.736 15.3433 281.698C15.3141 281.592 15.3716 285.331 15.3252 284.741C15.2164 283.437 15.2482 269.984 15.3437 280.241C15.3275 277.335 15.5063 275.894 15.4415 273.405C15.4013 271.794 15.1663 280.81 15.1844 267.291C15.2699 266.989 15.2197 272.721 15.2277 272.855C15.2379 273.062 15.431 272.037 15.4402 271.856C15.4604 271.363 15.402 264.466 15.4099 259.276C15.4128 257.152 15.3839 255.333 15.3924 254.48C15.3403 255.207 15.2487 250.871 15.0587 247.263C14.9554 245.175 14.841 243.334 14.7987 242.873C14.768 242.54 14.7786 243.793 14.7485 243.436C14.575 241.214 14.246 235.173 14.0094 232.372C13.7506 229.233 13.7221 229.639 13.7078 229.463C13.5923 228.08 13.7276 229.18 13.6546 228.337C13.5478 227.063 12.7757 218.292 12.7295 217.85C12.7155 217.721 12.774 219.161 12.5925 217.247C12.5628 216.914 12.6539 217.122 12.1356 211.446C11.5225 204.606 12.4361 216.206 12.1138 213.37C11.8596 208.968 11.7586 209.117 11.6701 207.925C11.6403 207.51 11.4914 204.43 11.2479 201.085C11.4348 203.486 11.6358 205.88 11.8465 208.276C11.6696 205.92 11.3038 201.342 11.1955 199.394C11.1416 198.444 11.2748 199.222 11.1387 197.159C11.1133 196.72 10.7861 194.999 11.2425 200.394C11.1999 200.831 11.0689 198.259 10.9742 197.066C10.9597 196.884 10.7925 196.183 10.7773 194.652C10.7896 194.283 11.309 198.258 10.5521 187.979C10.5295 187.648 10.5356 188.803 10.5124 188.479C10.4941 188.258 10.406 185.626 10.3918 185.336C10.3742 185.039 10.3727 186.311 10.3502 185.958C10.3082 185.307 10.2967 184.582 10.3046 184.092C10.3147 183.465 10.3555 183.235 10.4045 184.089C10.4219 184.404 10.4405 184.863 10.461 185.498C10.4528 185.028 10.4456 184.558 10.4393 184.088C10.4294 183.324 10.4132 182.564 10.391 181.8C10.3325 182.711 10.2993 181.434 10.2321 180.002C10.2029 179.372 10.1675 178.714 10.1292 178.197C9.17883 167.363 9.70118 174.628 9.49232 172.77C9.10538 169.778 9.60435 172.046 9.02675 167.594C8.96134 167.178 9.5283 172.601 8.29923 162.036C8.49801 163.597 8.69437 165.155 8.88253 166.71C8.91962 165.798 8.18438 161.084 8.13512 160.717C7.59978 156.554 7.984 159.375 7.17217 153.171C7.10109 152.615 6.99625 151.399 6.85141 150.209C6.24494 145.274 7.5312 156.73 7.54624 157.032C7.50115 157.202 6.13858 144.877 6.18803 144.428C6.07814 142.618 6.72971 150.043 6.67608 148.62C6.66763 148.374 6.21673 144.273 5.94595 139.604C5.8969 138.781 5.81398 137.86 5.73029 136.954C5.32498 132.753 4.9358 128.638 4.82475 127.107C4.51577 123.039 4.59134 121.185 4.37471 121.179C4.5026 120.016 4.29556 119.015 4.26378 118.485C3.91221 112.178 3.92491 112.164 3.71488 106.754C3.67311 105.544 3.71239 104.552 3.69146 104.12C3.67948 103.874 3.62103 104.33 3.5741 103.133C3.53605 102.187 3.4893 98.6324 3.51549 95.5364C3.52188 94.6693 3.52447 93.8404 3.52524 93.1206C3.52659 91.8493 3.52291 90.9175 3.53008 90.7104C3.54544 90.2555 3.5766 91.9572 3.59736 93.12C3.61101 93.8381 3.62433 94.3492 3.64626 94.0119C3.64507 93.7135 3.64325 93.4161 3.64084 93.1196C3.61405 89.8763 3.52049 86.7305 3.39902 83.4403C3.34246 81.9468 3.41608 82.712 3.39021 82.0671C3.38731 81.7961 3.09357 76.6395 3.08326 76.8598C3.15249 77.3767 3.69468 93.2773 3.47918 89.0915C3.45023 88.2877 3.46356 85.428 3.35541 85.887C2.95093 71.6672 1.5414 57.4926 0.682912 43.0817C1.25509 51.3739 2.00113 60.5733 2.5838 69.1474C2.66815 70.3161 2.90486 74.2906 2.93447 73.8035C2.51854 66.5149 1.74092 57.4682 1.26269 50.4184C1.24755 50.1932 1.36289 51.0151 1.31006 50.1723C1.2041 48.5915 0.778704 43.4612 0.762911 42.5742C0.756948 42.425 1.00489 45.3605 0.997537 44.464C0.978597 42.1638 0.685623 41.5948 0.601123 39.6109C0.56501 38.5856 0.384483 33.5829 0.67384 29.5074C0.907602 26.8497 1.96558 25.1641 2.37423 24.324C3.42661 22.6636 0.881167 25.7565 0.575904 29.501C0.467623 31.0328 0.444444 32.2392 0.422889 31.9566C0.434902 31.14 0.463369 30.3069 0.512266 29.4968C0.727854 26.7683 1.87864 24.7545 3.03656 22.9646C5.68004 19.0826 8.91151 16.1738 12.0554 13.5121C12.1472 13.4363 11.3169 14.0531 12.4719 13.0865C14.4963 11.4241 15.103 11.0923 16.1262 10.343C17.2143 9.51338 21.2155 6.80089 21.7993 6.50216C21.8733 6.4586 21.0777 7.05619 20.9599 7.13684C19.2128 8.31204 18.5525 8.67011 18.394 8.77416C17.8008 9.18118 17.2469 9.62215 16.7142 10.0065C15.8387 10.6413 15.3383 10.9664 14.2067 11.8404C13.4284 12.4482 14.2186 11.9116 13.4713 12.5001C13.1864 12.6968 10.1965 15.0158 10.0484 15.3961C10.0199 15.4334 15.5432 10.4907 22.2531 6.37914C24.7581 4.83776 27.3327 3.34939 30.0562 2.25631C32.3934 1.36469 34.6418 0.581195 37.011 0.616473C39.4615 0.618922 41.2161 2.05405 41.6369 2.45436C40.3603 1.16369 38.0606 0.444675 36.3961 0.58146C34.6792 0.660496 33.312 1.06332 31.9728 1.4874C33.329 1.06008 34.8024 0.613765 36.5898 0.556928C38.3719 0.428493 40.6242 1.3256 41.7227 2.45702C43.9016 4.67272 44.4087 6.17729 44.5224 6.42176C44.9243 7.1069 45.2953 7.76514 45.6702 8.42404C46.5483 9.9723 47.4094 11.4494 48.3435 12.916C53.2851 20.522 60.8216 26.728 69.1864 30.3929C70.6258 31.0125 72.095 31.5483 73.5843 31.9823C78.8022 33.5584 84.0817 34.7964 89.3834 36.6632C90.2214 36.9551 90.7059 37.1356 91.0939 37.2845C91.4505 37.422 91.6919 37.5218 91.996 37.6424C92.6229 37.902 93.5079 38.1849 96.2633 39.2604C94.8617 38.65 93.46 38.1087 92.0785 37.5844C93.4885 38.1346 97.6162 39.3938 101.381 41.7268C101.823 42.0043 102.237 42.3102 102.624 42.64C105.774 45.4159 106.439 48.8183 106.755 49.6906C106.805 49.9704 107.176 50.3776 107.686 53.7579C108.069 56.7352 107.97 57.1906 108.078 58.737C108.156 60.0314 108.274 61.4496 108.3 61.8187C108.319 62.1068 108.276 62.2199 108.327 62.9036C108.465 64.5826 108.481 63.8561 108.51 64.5074C108.522 64.6968 108.536 64.9904 108.553 65.474C108.516 65.1521 108.476 64.8332 108.435 64.5174C108.407 64.3082 108.38 64.096 108.355 63.8804C108.375 64.0917 108.397 64.306 108.42 64.5182C108.478 65.0389 108.53 65.5945 108.568 66.0764C108.712 68.0225 108.755 69.2429 108.484 66.2899C108.475 66.2035 108.469 66.1373 108.465 66.0864C108.435 65.7294 108.511 66.1239 108.465 65.6733C108.424 65.2736 108.381 64.8927 108.337 64.5291C107.153 49.7526 107.675 57.7388 108.286 64.5345C108.35 65.0523 108.409 65.5902 108.46 66.0869C108.555 67.0275 108.629 67.9185 108.687 68.688C108.83 70.5289 108.96 80.5967 108.91 80.9237C108.888 81.387 108.84 79.6752 108.779 81.9142C108.781 82.4023 108.654 95.7571 108.618 90.9367C108.611 89.9506 108.71 83.5448 108.712 81.9925C108.541 85.6352 108.638 94.1436 108.629 95.0959C108.565 98.9654 108.577 87.6835 108.468 96.3722C108.401 103.051 108.551 96.7775 108.575 99.35C108.58 100.786 108.465 108.354 108.616 108.135C108.643 110.739 108.56 109.211 108.556 109.534C108.549 109.835 108.637 114.939 108.637 116.593C108.637 116.795 108.552 116.159 108.549 116.369C108.54 116.779 108.649 121.673 108.665 121.88C108.672 122.006 108.711 120.829 108.738 121.312C108.758 121.692 108.805 123.833 108.851 125.373L108.85 125.346C108.856 125.486 108.862 125.619 108.867 125.743C108.892 126.353 108.901 126.794 108.908 126.87C108.918 126.988 108.917 126.474 108.893 125.742C108.889 125.617 108.884 125.484 108.879 125.345L108.88 125.372C108.844 123.811 108.806 121.769 108.867 122.371C108.881 123.235 108.908 124.274 108.945 125.37L108.944 125.342C108.951 125.476 108.957 125.608 108.963 125.74C109.065 127.927 109.016 130.106 109.053 131.163C109.033 130.775 109.084 128.203 109.072 127.274C109.203 127.775 109.114 133.137 109.059 131.316C109.107 132.441 109.122 131.672 109.17 132.292C109.169 132.463 109.275 133.97 109.354 134.244C109.341 134.284 109.235 132.736 109.284 133.041C109.316 133.328 109.398 134.567 109.762 135.812C110.108 137.061 110.686 138.335 110.767 138.528C111.203 139.607 109.595 135.82 109.607 135.547C109.494 135.489 110.684 138.717 110.778 138.775C110.763 138.978 109.379 135.401 109.547 135.836C109.799 136.711 110.154 137.595 110.571 138.488C108.359 135.189 109.057 128.698 108.829 126.64C108.915 129.567 108.699 132.382 109.047 134.28C109.372 136.211 110.044 137.542 109.977 137.563C109.903 137.587 109.043 135.431 109.096 135.518C109.054 135.866 110.473 138.841 110.582 138.948C110.629 139.041 110.651 139.085 110.65 139.086C110.518 139.101 108.648 134.836 108.777 134.603C108.637 134.245 109.08 136.219 109.106 136.225C109.088 136.191 108.788 135.408 108.62 134.75C108.447 134.091 108.354 133.562 108.426 134.107C108.49 135.224 109.715 137.906 109.805 137.988C109.938 138.243 109.346 137.229 108.905 136.092C108.446 134.96 108.233 133.686 108.216 133.612C108.128 133.548 108.776 136.178 108.872 136.245C108.858 136.321 108.159 134.366 108.035 133.552C107.891 132.955 108.193 134.716 108.137 134.408C107.905 134.236 107.637 129.316 107.682 129.043C107.665 128.675 107.635 129.854 107.62 129.681C107.597 129.438 107.589 127.814 107.574 128.026C107.503 128.207 107.633 134.441 107.853 134.369C107.603 134.355 107.119 127.732 107.571 133.892C107.557 133.941 107.979 135.384 108.013 135.418C108.15 135.862 107.792 134.955 107.686 134.615C107.632 134.254 107.412 134.63 108.756 137.287C107.428 134.846 107.344 133.301 107.212 132.652C107.115 131.984 107.117 132.107 107.15 132.525C107.176 133.367 107.706 135.341 107.432 134.555C107.06 133.965 106.7 129.629 106.741 129.621C106.69 130.039 106.814 131.411 106.84 131.881C106.806 132.138 106.549 128.284 106.551 129.155C106.49 129.59 106.869 133.722 107.029 133.889C107.419 135.51 106.859 133.539 106.932 133.897C106.903 134.16 107.813 136.561 107.898 136.591C107.852 136.742 106.584 133.466 106.578 132.72C106.455 132.18 106.814 134.222 106.741 133.845C106.11 131.539 106.184 126.774 106.248 131.394C106.242 131.676 106.523 133.459 106.557 133.512C106.721 134.626 106.094 131.329 106.079 130.761C105.893 129.763 106.429 134.453 105.974 130.556C106.176 133.416 106.502 135.408 108.51 138.249C105.579 134.219 105.988 130.455 105.757 129.897C105.71 129.552 105.688 129.815 105.756 130.831C105.865 131.818 105.885 133.753 107.127 136.295C105.727 133.018 106.051 133.301 105.796 132.299C105.606 131.61 105.488 126.873 105.34 129.051C105.296 129.306 105.632 132.274 105.475 131.347C104.971 124.347 105.359 131.158 105.409 131.204C105.337 131.167 105.1 128.814 105.005 125.893C105 125.768 104.995 125.64 104.989 125.509C104.989 125.504 104.988 125.487 104.988 125.481C104.832 120.265 104.79 113.143 104.771 111.355C104.723 108.005 104.602 105.004 104.603 104.29C104.609 101.876 104.667 103.877 104.692 103.338C104.71 102.813 104.638 95.9601 104.653 95.6409C104.693 94.3073 104.754 95.6612 104.76 95.5233C104.817 93.8792 104.887 84.7349 104.916 82.1923C104.87 82.2733 104.812 87.3886 104.767 84.1984C104.711 80.4628 104.916 80.2612 104.928 80.1614C104.935 75.5565 104.901 70.9592 104.475 66.4714C104.429 65.9913 104.375 65.4887 104.318 65.0124C103.463 57.8359 104.156 49.772 99.8918 45.8512C99.6567 45.6511 99.4098 45.4702 99.1457 45.305C96.6317 43.7383 93.6583 42.652 90.6155 41.5845C90.3136 41.4788 90.0104 41.3732 89.7064 41.2673C88.9364 40.9993 88.1774 40.7365 87.4124 40.4767C87.4582 40.527 88.376 40.8557 89.6879 41.3203C89.9754 41.422 90.2801 41.5292 90.5959 41.6405C93.8191 42.6954 97.8483 44.5176 97.9304 44.6512C98.5181 44.9959 95.0926 43.1701 90.5777 41.6925C90.2776 41.5878 89.974 41.4823 89.6684 41.3762C85.3382 39.8034 80.8659 38.6042 79.7658 38.2696C81.4667 38.7741 83.1471 39.253 84.7667 39.7821C82.1972 39.1114 76.5017 37.4395 72.3484 36.2376C71.9767 36.1317 71.6168 36.0245 71.2718 35.9184C70.0969 35.5489 71.7537 36.1396 72.3271 36.3111C72.4408 36.3472 72.5083 36.3687 72.4989 36.3666C72.4421 36.352 72.3838 36.3369 72.3242 36.3212C70.6951 35.9062 68.4544 35.0066 70.2849 35.6048C68.8197 35.1154 68.018 34.7754 67.4158 34.5161C66.4383 34.0806 65.9822 33.862 64.2756 32.9858C64.1367 32.9072 65.2814 33.5868 63.1128 32.4478C62.0506 31.9833 56.9626 28.6083 56.3371 28.0788C56.0458 27.9004 58.4274 29.9049 58.8579 29.9565C64.4248 33.6025 60.6843 31.0424 62.9039 32.3642C63.2556 32.5034 62.4071 32.3914 67.3672 34.6293C67.6587 34.7526 67.9688 34.88 68.3047 35.0127C68.1106 34.9645 67.7756 34.8501 67.3451 34.6808C65.0005 33.8531 60.276 31.0056 59.4022 30.3728C57.4513 29.1568 63.9826 33.5541 67.3272 34.7225C67.8388 34.9302 68.2548 35.0821 68.5183 35.1665C67.5937 34.9291 69.2153 35.5295 71.5753 36.2729C71.8473 36.358 72.0786 36.4278 72.2761 36.4866C73.8755 36.962 73.1393 36.783 74.3139 37.1221C77.9528 38.1659 76.4751 37.6434 79.4509 38.5733C76.594 37.5112 84.6039 39.903 86.7489 40.7824C83.1342 39.5591 79.2627 38.6234 75.4483 37.5186C75.6673 37.5962 75.8802 37.6719 76.0872 37.7458C75.0814 37.4566 74.0895 37.1692 73.0773 36.8741C73.2369 36.9061 73.4023 36.9397 73.5719 36.9745C73.0858 36.8425 72.6709 36.729 72.2404 36.6095C69.424 35.8086 68.0409 35.1482 67.2872 34.8155C66.8759 34.6263 66.659 34.5164 66.5233 34.4551C61.0753 32.0151 55.4246 28.0653 51.1603 23.866C50.5713 23.1851 50.7111 23.9136 46.5743 18.7826C45.3219 17.089 46.5523 18.6523 45.154 16.7122C44.7781 16.2356 44.488 15.8363 44.2666 15.5165C43.419 14.2841 43.454 14.1409 43.0989 13.5556C42.3788 12.3559 41.8394 11.4347 41.4713 10.8177C41.1945 10.3527 41.018 10.0616 40.973 9.9835C40.243 8.72836 39.3305 7.08657 38.4708 6.22459C38.038 5.80092 37.7618 5.65909 37.359 5.5728C36.949 5.48693 36.3382 5.51804 35.7058 5.63718C35.6529 5.64645 36.9679 5.47921 35.3311 5.75532C35.0688 5.80568 33.7752 6.06174 31.8302 6.78265C29.9008 7.48458 27.2096 8.91914 24.8005 10.4576C24.5717 10.6036 24.3422 10.7524 24.1132 10.9034C24.3474 10.7574 24.5799 10.6141 24.8105 10.4736C25.8442 9.84356 26.8832 9.24086 27.9228 8.67765C27.4897 8.90954 26.244 9.6159 24.8321 10.5082C21.4312 12.6044 17.1368 15.9727 18.8445 14.7393C20.3107 13.6543 23.9311 11.0326 24.4407 10.9215C21.9224 12.3508 10.9888 20.099 7.39817 25.8584C6.05425 27.858 5.79806 29.223 5.75429 29.4843C5.70396 29.6507 5.8868 28.6384 5.83168 28.8583C5.81456 28.9166 5.68105 29.3584 5.65085 29.8357C5.5352 31.4234 5.5262 33.9115 5.51929 34.3557C5.50457 34.7627 5.48295 32.4916 5.46839 32.6818C5.40146 32.8346 5.51061 39.2904 5.62483 39.6657C5.50996 38.0633 5.46461 33.6218 5.55571 35.9434C5.56559 36.2504 5.56685 37.7983 5.59071 38.1775C5.76894 41.5694 5.43292 31.4125 5.68385 29.9541C5.35529 36.1192 6.03956 46.1347 6.65113 53.6142C6.82768 56.6405 6.23298 49.1348 6.44724 52.5599C6.89846 59.6717 6.66414 54.4556 6.68657 54.6654C6.87473 56.4224 7.05243 62.4767 7.26523 62.4605C7.42362 65.0535 7.33858 64.2118 7.62274 67.8623C7.60442 67.3797 7.58578 66.899 7.56689 66.4203C7.99847 70.4577 8.16219 79.0895 8.09276 78.4468C7.94705 76.7105 7.78051 72.2304 7.7502 71.8468C7.70782 71.2874 7.40654 69.7253 7.15031 63.5381C6.82872 61.0216 7.74042 73.3426 7.25122 67.7376C7.59481 71.5152 8.25307 87.1678 8.27856 89.4286C8.28906 89.6975 8.42467 88.4403 8.40539 92.3183C8.39215 94.1602 8.33364 89.7209 8.3099 90.5645C8.30224 90.8995 8.30744 91.7804 8.31082 93.0784C8.31255 93.7818 8.3135 94.6081 8.31028 95.5364C8.04617 105.981 9.70396 129.256 10.3757 134.551C10.4172 134.985 10.3571 134.831 10.3969 135.246C10.4252 135.542 10.468 135.958 10.5239 136.515C10.6005 137.289 10.7025 138.274 10.7731 139.329C10.874 140.885 11.0048 142.527 11.0845 143.625C10.7927 138.858 11.5243 148.101 11.8256 150.46C12.212 154.039 12.1182 153.827 12.2857 155.377C12.9549 161.342 14.3319 170.639 14.515 175.383C14.5882 175.248 14.7473 177.22 14.8561 179.723C14.9145 181.059 14.9567 182.544 14.9786 183.941C14.9986 185.226 15.0292 186.428 15.0679 187.36C15.1875 190.321 15.5458 194.609 15.4035 190.61C15.6511 195.719 16.0593 201.096 16.4501 205.89C16.5148 206.682 16.376 205.594 16.4889 206.947C16.4997 207.07 16.5635 207.236 16.6637 208.396C17.5159 217.982 17.0199 213.326 17.1408 215.124C17.2109 216.128 17.2679 216.872 17.3132 217.417C16.8012 211.822 16.2584 205.38 16.1317 203.655C16.113 205.133 17.1692 216.042 17.4357 219.247C17.4445 219.358 17.3483 218.977 17.358 219.09C17.3582 219.092 17.3584 219.094 17.3586 219.097C17.4612 220.293 18.1632 227.941 18.0966 226.361C18.0798 225.935 17.7664 222.413 17.3881 218.244C17.5021 219.371 17.4963 218.522 17.5169 218.721C17.766 221.132 18.2285 227.066 18.3981 229.171C18.4375 229.652 18.4787 229.613 18.4856 229.692C18.6382 231.604 18.4463 230.836 18.7397 232.785C18.8726 236.27 18.1683 226.285 18.1196 227.003C18.1027 227.427 19.2962 241.107 19.6257 247.024C19.73 248.653 19.7956 249.688 19.8224 249.672C19.8123 249.749 19.8096 250.057 19.8158 250.685C19.849 252.041 19.993 257.94 19.9911 259.276C19.9918 259.318 19.9925 259.355 19.9932 259.388C19.9977 259.572 20.119 259.499 20.1202 259.727C20.1221 260.335 20.0331 267.848 20.1137 270.652C20.1268 269.064 20.1411 267.657 20.1558 266.097C20.1742 275.276 20.2122 273.869 20.2386 270.796C20.2385 270.641 20.2427 270.489 20.2429 270.34C20.2637 267.983 20.2857 264.939 20.2953 264.871C20.3248 264.762 20.3934 280.293 20.2731 277.301C20.254 276.883 20.2811 269.694 20.212 273.24C20.1987 273.79 20.2412 278.534 20.2342 278.71C20.1805 280.362 20.0634 270.272 19.9859 271.501C20.0721 273.926 20.0418 277.094 20.0777 279.906C20.0942 281.201 20.1572 281.501 20.1592 281.659C20.1898 283.962 20.1178 282.68 20.1247 283.471C20.1275 283.932 20.3022 288.526 20.1078 287.67C20.4297 302.971 20.2646 291.924 20.195 282.498C20.2806 285.506 20.3021 291.314 20.3555 293.889C20.3745 294.848 20.4288 294.295 20.4648 295.872C20.5215 298.337 20.6346 307.856 20.9713 314.02C21.0736 315.987 21.1927 317.591 21.277 318.565C21.0519 316.137 21.0372 316.844 21.2056 318.727C21.3903 320.596 21.3284 319.011 21.3736 319.376C21.2893 319.845 22.6218 327.979 23.2675 329.661C23.2755 329.69 23.283 329.718 23.2899 329.743C23.2824 329.715 23.275 329.688 23.2677 329.661C21.7059 323.557 21.9021 324.696 23.1637 329.688C23.2135 329.878 23.2638 330.069 23.3146 330.261C23.2604 330.075 23.2053 329.885 23.1493 329.692C22.9703 329.075 22.7971 328.478 22.6306 327.878C22.7663 328.399 22.9276 329.011 23.1096 329.703C24.0003 333.315 25.379 338.06 26.275 339.023C26.4134 339.238 25.9802 338.424 26.0603 338.544C26.1834 338.749 26.3569 339.032 26.5805 339.349C27.5765 340.97 30.696 343.294 30.9013 343.403C31.0669 343.519 29.2376 342.072 29.9416 342.579C30.0382 342.65 30.9119 343.369 32.1348 344.216C32.5955 344.538 33.1215 344.85 33.6769 345.118C34.3644 345.438 33.9753 345.191 34.1495 345.269C35.652 345.83 34.6604 345.7 37.6083 346.428C39.8044 346.868 41.5212 346.935 44.8064 347.093C44.8339 347.094 44.8614 347.095 44.8891 347.097C44.8614 347.095 44.8338 347.094 44.8064 347.093C36.2076 346.412 40.4313 346.816 44.8096 347.005C45.8401 347.042 46.8898 347.068 47.7833 347.095C48.5631 347.153 47.8255 346.876 52.5531 347.374C45.3613 346.983 49.9397 347.073 54.2104 347.733C55.6532 347.995 57.0349 348.176 57.7003 348.258C57.833 348.273 57.8667 348.352 59.0469 348.476C59.1464 348.485 59.0077 348.434 60.1049 348.528C70.5741 348.999 63.8862 348.71 65.8735 348.833C66.7231 348.893 71.8596 348.652 73.2546 348.512C73.5717 348.488 73.4262 348.548 74.6642 348.444C76.8475 348.256 78.8068 347.987 80.2483 347.808C80.4186 347.784 80.4309 347.869 83.1688 347.478C83.9409 347.366 84.794 347.22 83.7033 347.353C80.0699 347.818 73.199 348.675 69.118 348.703C65.3955 348.831 77.1377 348.209 77.7521 348.004C77.9749 347.982 75.6832 348.255 78.0199 348.017C79.783 347.836 82.8368 347.359 85.5664 346.95C85.9229 346.897 86.2862 346.844 86.6239 346.796C86.8478 346.766 89.2404 346.496 89.1352 346.517C89.0298 346.543 85.394 347.122 85.9225 347.069C85.9934 347.064 88.3081 346.71 88.612 346.681C88.9903 346.649 90.0279 346.748 90.5277 346.672C90.7179 346.643 90.8621 346.62 90.9718 346.602C91.6289 346.494 91.0997 346.532 91.8365 346.426C93.7335 346.089 100.017 345.83 100.168 345.708C99.1605 345.778 98.1353 345.832 97.0978 345.896C102.801 345.516 100.336 345.619 101.141 345.548C101.973 345.445 101.769 345.579 103.561 345.325C103.948 345.391 108.5 344.163 109.488 342.804C109.78 342.53 109.937 342.345 109.917 342.359C109.762 342.527 109.621 342.667 109.482 342.797C108.413 343.751 107.965 343.871 107.898 343.912C107.816 343.938 108.03 343.793 107.961 343.831C107.402 344.143 106.653 344.533 105.763 344.792C99.1623 346.111 105.852 344.761 104.276 345.033C103.746 345.137 102.641 345.337 102.401 345.359C101.618 345.441 101.594 345.379 101.068 345.432C99.822 345.548 101.287 345.512 101.187 345.523C100.108 345.688 95.576 345.889 98.3806 345.621C96.6953 345.695 96.4952 345.819 95.1293 345.882C92.3915 346.036 96.4932 345.687 97.5599 345.625C101.339 345.229 102.781 345.652 107.136 344.056C107.952 343.691 108.732 343.156 109.305 342.604C109.778 342.157 110.129 341.705 110.327 341.441C110.394 341.35 110.597 341.1 110.852 340.714C111.419 340.021 112.134 336.672 111.902 336.589C112.302 334.622 112.862 331.405 113.036 329.24C113.188 327.347 113.031 327.928 113.042 327.753C113.062 327.455 113.233 325.16 113.264 324.332C113.301 323.41 113.236 323.881 113.3 322.4C113.442 318.737 113.528 318.799 113.553 318.438C113.79 314.048 113.566 315.964 113.586 314.994C113.645 314.08 113.874 301.343 113.787 298.651C113.812 299.738 113.833 300.839 113.852 301.93C113.923 299.969 113.806 297.902 113.924 297.863C113.735 297.463 113.831 293.426 113.806 292.213C113.798 291.735 113.766 291.773 113.756 291.174C113.723 288.835 113.631 283.565 113.575 282.297C113.362 276.815 113.603 290.839 113.576 291.943C113.578 289.733 113.207 277.233 113.267 282.985C113.277 283.871 113.399 285.442 113.412 285.941C113.505 289.317 113.374 286.664 113.372 286.929C113.371 287.378 113.485 289.598 113.484 290.185C113.484 290.381 113.399 289.123 113.442 292.342C113.371 290.758 113.229 281.713 113.163 280.525C113.139 280.101 113.103 282.758 112.968 275.01C112.958 275.101 112.948 275.191 112.938 275.282C112.771 270.974 112.564 266.667 112.301 262.368C112.36 262.833 112.563 265.27 112.37 262.204C112.256 260.463 112.268 261.755 112.256 261.596C112.238 261.35 112.18 260.424 112.084 259.023C112.013 257.976 111.914 256.575 111.796 255.078C111.478 246.548 111.799 234.206 110.876 228.645C110.795 227.925 110.718 227.295 110.664 226.86C110.591 226.284 110.471 225.393 110.324 224.406C109.997 222.238 109.734 219.733 109.709 219.459C109.436 217.064 109.006 208.727 108.914 207.085C108.853 206.059 108.849 207.04 108.801 206.119C108.756 205.254 108.861 206.148 108.849 205.891C108.79 203.786 107.69 187.813 107.385 184.046C107.583 186.36 108.498 197.899 108.503 197.667C108.507 197.623 108.367 194.805 108.305 194.227C108.29 193.266 107.913 190 107.804 188.207C107.791 188.006 107.937 188.792 107.702 185.607C107.655 184.981 107.544 183.831 107.419 182.388C107.325 181.295 107.218 179.99 107.14 178.741C107.108 178.408 107.067 177.96 107.016 177.409C106.229 171.031 106.153 152.029 106.105 150.652C106.1 150.607 106.083 153.733 106.038 151.621C105.981 148.816 106.15 151.333 106.153 148.066C106.161 147.569 106.085 138.508 106.053 138.217C105.927 135.481 105.994 143.382 105.971 143.275C105.951 142.996 105.857 136.431 105.846 136.168C105.848 135.914 106.069 141.257 105.896 134.835C105.899 135.571 105.901 136.307 105.9 137.043C105.844 135.003 105.85 134.211 105.86 133.685C105.864 133.432 105.868 133.241 105.864 133.004C105.837 131.679 105.765 130.294 105.722 128.648C105.692 127.502 105.69 126.083 105.758 124.585C105.801 123.605 105.833 125.227 105.84 125.101C105.889 123.932 105.779 122.429 105.922 120.66C105.941 120.535 105.848 124.634 106.094 117.458C106.066 117.956 106.038 118.45 106.012 118.939C105.997 117.912 106.418 110.691 106.521 109.7C106.752 106.868 106.589 109.348 106.816 106.478C106.598 108.31 107.411 99.6362 107.39 100.133C107.655 98.9232 107.882 91.5519 107.916 88.0893C107.957 85.8974 108.062 81.4523 108.081 80.7491C108.103 79.9003 108.096 80.1534 108.136 78.6345C108.147 78.2025 108.27 73.6441 108.402 69.6536C108.427 68.8874 108.481 67.2725 108.433 68.7031C108.35 71.1498 108.212 75.8302 108.215 75.7531C108.214 75.7156 108.406 69.3927 108.466 67.7274C108.742 59.9214 108.584 64.4306 108.59 64.2286C108.607 63.7067 108.769 59.4892 108.78 59.2786C108.809 58.5487 108.689 61.5476 108.688 61.6009C108.684 61.6537 108.85 57.5495 108.812 58.4835C108.753 59.8725 108.612 63.5918 108.604 63.8296C108.491 66.9566 108.644 62.7043 108.692 61.5004C108.706 61.1378 108.65 62.5819 108.662 62.2822C108.838 57.7691 108.697 61.3413 108.819 58.3179C108.929 55.6919 108.788 59.0643 108.792 58.9824C108.796 58.856 108.933 55.6273 108.955 55.1721C108.96 54.871 108.62 63.2252 108.639 62.8853C108.74 60.206 108.846 57.5686 108.966 54.9222C108.973 54.733 108.809 58.5197 108.795 58.9142C108.762 59.7097 108.853 57.4971 108.849 57.6071C108.847 57.6397 108.74 60.2284 108.837 57.8995C108.871 57.1038 108.94 55.3798 109.083 52.4431C108.615 62.741 108.94 55.5426 108.948 55.31C108.963 54.9787 108.745 59.8826 109.011 53.9461C109.023 53.6887 109.003 54.082 108.928 55.7655C108.842 57.8096 109.036 53.0686 108.727 60.6047C108.739 60.1763 108.996 54.1286 109.018 53.786C109.031 53.5078 108.969 54.8527 108.991 54.3714C109.264 48.7116 109.074 52.6384 109.159 50.9443C109.149 50.8395 109.501 45.4717 109.238 49.5128C108.838 56.9511 108.753 60.1394 108.698 61.3395C108.908 55.8598 109.218 49.1146 109.381 47.4815C109.385 47.4481 109.385 47.4433 109.391 47.3899C109.398 47.3316 109.404 47.2885 109.41 47.2589C109.421 47.2026 109.431 47.1818 109.439 47.2433C109.443 47.269 109.447 47.332 109.449 47.3679C109.449 47.385 109.45 47.4029 109.451 47.4212C109.452 47.458 109.453 47.4968 109.453 47.536C109.456 47.6694 109.456 47.8032 109.456 47.9001C109.456 48.0437 109.456 48.1017 109.456 47.9001C109.456 47.7838 109.456 47.6443 109.453 47.536C109.452 47.4702 109.451 47.4146 109.449 47.3719C109.445 47.2625 109.434 47.1914 109.425 47.207C109.412 47.2274 109.403 47.3009 109.413 47.242C109.416 47.2367 109.424 47.1712 109.437 47.2294C109.452 47.3536 109.45 47.4236 109.453 47.536C109.455 47.6263 109.456 47.7458 109.456 47.9001C109.456 48.5788 109.456 49.4599 109.456 49.479C109.456 49.9595 109.456 49.2345 109.456 47.9001C109.456 47.7606 109.455 47.6378 109.453 47.536C109.45 47.4263 109.457 47.4306 109.438 47.2334C109.421 47.1391 109.4 47.3123 109.386 47.4397C109.377 47.5194 109.367 47.6209 109.357 47.7458C109.352 47.8083 109.346 47.8766 109.34 47.9509C109.336 48.0077 109.333 48.0504 109.329 48.104C109.314 48.3106 109.296 48.567 109.278 48.8523C109.265 49.0703 109.25 49.3143 109.234 49.5847C109.173 50.6402 109.117 51.7357 109.063 52.8453C108.958 55 108.867 57.1714 108.819 58.3319C108.856 57.4222 108.901 56.3663 108.942 55.4562C108.885 56.7271 108.829 58.0546 108.776 59.3695C109.037 53.131 108.782 59.1408 108.723 60.6992C108.709 61.058 108.87 56.9752 108.687 61.6224C108.821 58.2159 108.777 59.2896 108.911 56.1571C108.9 56.2946 108.617 63.2381 108.525 66.027C108.892 56.2247 108.663 61.8571 109.037 53.3898C109.111 51.823 108.922 55.8647 108.939 55.5211C108.997 54.3094 109.103 51.5615 109.32 48.2244C109.338 47.9797 109.311 48.3584 109.304 48.4652C109.3 48.5167 109.303 48.4721 109.319 48.2425C109.328 48.1199 109.335 48.0147 109.36 47.7142C109.365 47.6508 109.371 47.5886 109.376 47.5302C109.384 47.4612 109.382 47.4558 109.402 47.3095C109.416 47.217 109.429 47.1503 109.442 47.2664C109.445 47.2896 109.448 47.3548 109.449 47.3703C109.449 47.3848 109.45 47.4006 109.45 47.4176C109.452 47.4517 109.453 47.4909 109.453 47.536C109.455 47.599 109.455 47.6736 109.456 47.7621C109.456 47.7949 109.456 47.8403 109.456 47.9001C109.456 48.4651 109.456 50.3377 109.456 50.3083C109.456 50.0555 109.456 48.3616 109.456 47.9001C109.456 47.8141 109.456 47.7665 109.456 47.7535C109.456 47.7392 109.456 47.7875 109.456 47.9001C109.456 48.3671 109.456 50.099 109.456 50.1054C109.456 50.179 109.456 48.1079 109.456 48.4079C109.456 48.6665 109.456 50.7646 109.456 51.5076C109.456 51.4819 109.456 51.4551 109.456 51.4277C109.456 50.7053 109.456 50.8871 109.456 51.4277C109.456 51.4547 109.456 51.4816 109.456 51.5076C109.456 51.1305 109.456 49.8159 109.456 47.9001C109.456 47.7589 109.455 47.6367 109.453 47.536C109.456 47.4566 109.432 46.9817 109.395 47.3616C109.372 47.5515 109.359 47.7077 109.339 47.9738C109.36 47.7003 109.372 47.5523 109.396 47.3518C109.433 46.9843 109.456 47.461 109.453 47.536C109.455 47.6376 109.456 47.7601 109.456 47.9001C109.456 50.6876 109.456 52.6096 109.456 47.9001C109.456 47.7573 109.455 47.6356 109.453 47.536C109.452 47.4583 109.451 47.4239 109.447 47.3376C109.439 47.1771 109.423 47.1864 109.411 47.2515C109.405 47.2852 109.397 47.3376 109.389 47.4083C109.385 47.4419 109.383 47.4671 109.379 47.5004C109.373 47.565 109.366 47.64 109.359 47.7253C109.352 47.8046 109.342 47.926 109.337 47.9935C109.332 48.059 109.327 48.1284 109.322 48.2015C109.311 48.3476 109.301 48.5083 109.289 48.6816C109.267 49.0264 109.253 49.2543 109.235 49.5655C109.226 49.7144 109.218 49.8661 109.209 50.0184C109.202 50.1427 109.196 50.2637 109.189 50.3841C109.165 50.8281 109.149 51.1364 109.13 51.5028C109.114 51.8186 109.095 52.1832 109.062 52.8702C108.98 54.5534 108.894 56.5249 108.855 57.4529C108.818 58.3822 109.037 53.0227 108.72 60.7729C108.879 57.3677 109.075 49.9799 109.453 47.536C109.455 47.6362 109.456 47.7582 109.456 47.9001C109.456 48.0753 109.456 48.2554 109.456 48.4228C109.456 52.6239 109.456 50.7527 109.456 47.9001C109.456 47.7575 109.455 47.6357 109.453 47.536C109.452 47.4611 109.451 47.4202 109.447 47.3448C109.44 47.1825 109.424 47.1849 109.413 47.2459C109.375 47.4866 109.378 47.5268 109.36 47.7139C109.353 47.7937 109.344 47.9057 109.338 47.9842C109.333 48.0493 109.328 48.1185 109.323 48.1915C109.312 48.3376 109.301 48.4993 109.29 48.6752C109.267 49.0275 109.253 49.2619 109.234 49.5912C109.225 49.7453 109.215 49.9237 109.207 50.067C109.199 50.2003 109.192 50.3355 109.184 50.471C109.121 51.6344 109.082 52.4642 109.065 52.8035C109.047 53.1799 109.108 51.921 109.096 52.1736C109.065 52.6005 108.738 60.1284 108.716 60.8714C108.686 61.622 108.827 58.0903 108.837 57.8822C108.837 57.7076 108.49 66.8275 108.677 61.8966C108.801 58.4842 109.084 52.2403 109.146 51.1852C108.89 56.1814 108.696 61.2048 108.52 66.1709C108.617 63.4121 108.718 60.7402 108.834 57.9688C108.601 63.584 108.435 68.4123 108.274 73.7501C108.678 60.9577 108.139 77.8985 108.15 78.1027C108.147 78.1521 108.291 73.1136 108.318 72.3073C108.163 76.7637 107.857 90.3526 108.04 82.4033C108.004 83.841 107.93 87.3329 107.932 87.2868C107.935 86.8451 108.116 79.2383 108.088 80.4738C108.051 81.9266 108.003 83.9287 107.956 86.1418C107.772 97.5017 107.592 94.3844 108.633 105.775C108.618 105.549 108.602 105.324 108.586 105.098C109.303 112.911 109.927 120.702 110.498 128.404C110.627 130.113 110.719 131.822 110.776 133.53C110.872 136.417 110.925 139.299 110.957 142.174C111.15 147.043 111.212 159.908 111.468 166.156C111.488 167.421 111.769 173.594 111.815 174.055C111.848 174.918 111.532 170.185 111.631 172.327C111.64 172.528 111.768 174.694 111.972 176.965C112.15 178.952 112.327 180.992 112.422 181.971C112.469 182.452 112.496 182.682 112.497 182.544C112.485 182.391 112.469 182.195 112.45 181.968C112.325 180.466 112.048 177.578 112.011 177.03C112.01 177.006 112.008 176.983 112.007 176.962C111.981 176.529 111.993 176.561 112.036 176.959C112.115 177.686 112.287 179.528 112.494 181.965C113.262 190.397 114.118 205.941 114.192 207.045C114.174 206.32 114.155 205.589 114.136 204.874C114.24 206.932 114.339 208.99 114.447 211.041ZM105.946 116.646C105.963 115.429 106.202 112.303 106.344 110.462C106.517 107.934 106.884 103.621 106.781 105.475C106.423 109.2 106.132 112.924 105.946 116.646ZM106.386 171.052C106.292 168.532 106.52 170.477 106.59 172.544C106.6 172.773 106.54 174.463 106.386 171.052ZM105.987 144.811C105.989 144.915 105.994 147.064 105.992 147.14C105.944 149.067 105.929 142.588 105.987 144.811ZM112.862 270.826C112.731 268.104 112.699 270.08 112.823 271.774C112.831 271.88 112.87 271.004 112.862 270.826ZM112.775 268.882C112.791 266.767 112.324 262.491 112.533 265.89C112.555 266.236 112.776 268.972 112.775 268.882ZM106.112 162.089C106.159 162.37 106.203 164.959 106.234 166.067C106.19 166.038 106.136 163.172 106.112 162.089ZM110.776 227.321C110.794 227.363 110.647 226.052 110.417 224.393C110.033 221.724 109.724 218.226 109.669 217.858C109.746 218.707 110.026 221.919 110.381 224.398C110.606 226.011 110.758 227.285 110.776 227.321ZM111.741 249.876C111.742 249.634 111.769 246.532 111.738 246.63C111.675 248.123 111.71 250.913 111.741 249.876ZM113.478 295.401C113.484 295.569 113.668 293.26 113.569 298.722C113.554 299.524 113.493 296.662 113.486 296.945C113.476 297.543 113.472 298.015 113.472 298.393C113.449 295.844 113.411 293.213 113.419 292.954C113.46 291.754 113.477 295.329 113.478 295.401ZM113.298 319.19C113.313 319.725 113.135 323.052 113.073 323.791C113.062 323.926 113.017 323.334 112.93 324.847C112.856 326.049 113.061 324.281 112.89 326.584C112.7 328.96 112.875 325.782 112.852 326.003C112.838 326.255 112.583 329.895 112.533 329.794C112.519 329.669 112.848 325.839 112.891 324.852C112.957 323.596 112.809 325.095 112.94 323.046C113.018 321.742 113.086 322.47 113.106 322.194C113.132 321.951 113.264 317.389 113.298 319.197C113.298 319.195 113.298 319.192 113.298 319.19ZM113.479 299.08C113.475 298.889 113.472 298.665 113.472 298.393C113.474 298.624 113.477 298.853 113.479 299.08ZM105.743 123.905C105.696 125.209 105.711 121.356 105.813 119.856C105.832 119.858 105.737 123.664 105.743 123.905ZM113.566 301.438C113.526 305.197 113.509 302.442 113.479 299.08C113.501 300.139 113.576 300.169 113.566 301.438ZM108.305 194.227C108.308 194.384 108.302 194.484 108.283 194.497C108.277 194.086 108.287 194.046 108.305 194.227ZM108.813 203.023C109.047 206.04 108.695 199.908 108.649 199.948C108.635 199.976 108.805 202.899 108.813 203.023ZM113.002 274.332C112.996 274.055 113.352 278.336 112.964 272.116C113.079 275.447 112.915 271.937 112.9 271.987C112.865 272.139 113.124 277.701 113.137 278.943C113.253 279.907 113.022 275.246 113.002 274.339C113.002 274.336 113.002 274.334 113.002 274.332ZM94.0719 345.499C94.8583 345.361 97.3314 345.209 98.9315 345.116C98.193 345.217 95.7642 345.334 94.0719 345.499ZM33.6112 6.26057C33.0134 6.46312 32.4413 6.67871 31.8768 6.90154C28.0716 8.54074 25.9163 10.0203 25.8013 10.0049C25.6666 10.0947 27.5131 8.71016 31.5251 6.94969C31.5585 6.93621 31.686 6.88584 31.8476 6.82692C32.5977 6.53783 34.0699 6.08748 33.6112 6.26057ZM8.55635 84.5404C8.49933 85.6001 8.3644 82.1045 8.29058 79.8112C8.27529 79.2908 8.27591 77.3716 8.40163 79.5585C8.2863 79.4943 8.39721 82.8874 8.55635 84.5404ZM113.615 303.567C113.67 304.673 113.596 308.06 113.554 309.826C113.528 308.751 113.592 305.15 113.615 303.567ZM6.51757 27.1137C6.0478 27.9859 5.9656 28.5697 6.01664 28.4286C6.23095 27.8082 7.10665 26.1473 6.51757 27.1137ZM113.583 292.644C113.619 292.488 113.694 296.969 113.606 297.286C113.61 296.325 113.564 292.754 113.583 292.644ZM97.2104 345.283C97.9244 345.253 94.2505 345.525 93.0958 345.663C93.1917 345.589 96.7634 345.284 97.2104 345.283ZM5.91587 44.4597C5.97174 45.5129 6.14756 48.1087 6.20251 48.398C6.26634 48.7476 5.9928 44.9464 5.91587 44.4597ZM104.269 99.8068C104.252 99.9231 104.178 95.8693 104.228 94.0459C104.317 90.6203 104.273 99.6447 104.269 99.8068ZM13.0994 19.2967C15.5378 17.2293 12.8295 19.5306 13.0009 19.5014C14.5429 18.0264 18.7891 14.6914 15.8461 16.9432C15.2742 17.3841 13.8373 18.6223 13.0994 19.2967ZM10.9706 21.3015C10.7352 21.5634 9.27259 23.2598 10.5947 21.8392C11.221 21.1775 12.1955 20.0935 10.9706 21.3015ZM104.398 74.6589C104.473 71.7136 104.474 85.2119 104.41 85.629C104.401 85.8371 104.393 85.9749 104.387 86.0524C104.405 86.5395 104.376 89.1144 104.314 89.4176C104.329 88.6394 104.35 86.5356 104.359 86.2974C104.363 86.1933 104.367 86.116 104.37 86.0627C104.349 85.1361 104.44 75.2113 104.398 74.6589ZM102.675 52.5887C103.323 55.6759 103.095 56.3517 103.084 56.0541C102.598 52.5652 102.999 54.8288 102.998 54.7183C102.997 54.457 102.521 52.0697 102.676 52.5983C102.676 52.5951 102.675 52.5919 102.675 52.5887ZM104.276 70.1157C104.294 70.251 104.395 73.0466 104.388 73.1651C104.416 75.4593 104.115 67.5543 104.276 70.1157ZM111.842 336.801C111.434 338.722 111.779 336.839 111.997 335.563C112.015 335.435 112.15 335.162 111.842 336.801ZM9.91789 22.4358C9.80196 22.5643 8.41419 24.0068 7.2459 25.7574C6.21104 27.2581 5.5487 28.9866 5.55202 29.8292C5.49803 30.8105 5.49918 31.4431 5.52993 31.2618C5.53394 31.1085 5.55403 30.5445 5.60166 29.8325C5.61374 29.0054 6.26218 27.3088 7.30151 25.7943C8.93603 23.3616 10.9511 21.4305 9.91789 22.4358ZM8.90208 109.713C8.82318 107.594 9.00275 109.906 9.01689 111.034C9.02147 111.45 8.92262 110.256 8.90208 109.713ZM113.562 286.598C113.465 284.385 113.638 284.839 113.624 286.76C113.623 286.835 113.566 286.685 113.562 286.598ZM8.66634 92.703C8.66859 92.8297 8.67063 92.954 8.67247 93.0752C8.68757 94.0738 8.68921 94.8936 8.68401 95.5364C8.6689 97.8944 8.58428 97.8355 8.53929 95.5364C8.52791 94.8894 8.51769 94.0677 8.50665 93.0767C8.49318 91.8708 8.47847 90.4161 8.45736 88.7154C8.47778 89.0169 8.4978 89.3187 8.51738 89.6208C8.24547 78.4812 8.55624 88.8555 8.58914 91.588C8.60886 92.626 8.64897 91.7547 8.66663 92.6958C8.66653 92.6982 8.66644 92.7006 8.66634 92.703ZM9.50441 120.867C9.79808 127.926 8.95146 114.466 8.82975 110.613C9.07452 114.349 9.33975 119.223 9.08373 112.592C9.61663 122.271 9.34158 118.248 9.34361 118.635C9.3637 119.089 9.49246 120.573 9.50441 120.867ZM8.68042 102.28C8.66344 101.865 8.66466 98.8094 8.65484 97.6902C8.7246 99.2397 8.77459 104.989 8.68042 102.28ZM86.8505 40.773C87.0822 40.7958 87.6386 40.937 89.5812 41.6265C89.7152 41.6741 89.8555 41.7242 90.0025 41.7769C89.8802 41.7394 89.7358 41.6941 89.5754 41.6431C88.7983 41.396 87.6357 41.0156 86.8505 40.773ZM106.269 114.297C106.36 112.603 106.61 109.249 106.508 110.278C106.491 110.406 106.241 114.274 106.269 114.297ZM6.48841 54.2947C6.50901 54.6501 7.20802 63.8766 7.02873 60.6839C6.97586 59.7183 6.32486 51.3356 6.48841 54.2947ZM19.0516 14.3746C18.4345 14.8107 16.0374 16.7069 16.0055 16.7669C15.8618 16.921 18.7993 14.5907 19.0516 14.3746ZM106.896 105.795C106.908 105.578 107.367 100.436 107.316 101.002C107.195 102.068 106.819 106.558 106.896 105.795ZM109.542 342.339C109.463 342.418 109.371 342.498 109.276 342.573C109.086 342.724 108.896 342.842 108.834 342.891C108.742 342.99 107.444 343.925 106.108 344.326C104.79 344.749 103.687 344.902 104.983 344.591C105.178 344.523 107.561 344.052 109.213 342.503C109.798 341.975 110.32 341.328 110.745 340.648C111.311 339.688 111.699 337.691 111.785 337.298C111.857 337.092 111.757 337.689 111.557 338.492C111.366 339.291 110.992 340.354 110.77 340.663C110.56 340.993 110.379 341.239 110.262 341.396C110.158 341.522 110.171 341.68 109.543 342.336C109.543 342.337 109.542 342.338 109.542 342.339ZM98.2446 45.2361C98.2963 45.2553 98.5612 45.3939 98.9459 45.6249C99.1558 45.75 99.4002 45.915 99.6565 46.1278C101.363 47.2541 102.527 51.3218 102.417 51.275C101.872 49.1443 100.979 47.2748 99.6338 46.1545C99.4128 45.9676 99.1813 45.799 98.9333 45.6451C98.7084 45.5053 98.4783 45.3688 98.2446 45.2361ZM94.3022 43.3652C92.5618 42.6306 96.6917 44.2427 97.7204 44.8969C97.753 44.9004 94.5885 43.4433 94.3022 43.3652ZM6.95563 25.7927C6.78504 26.0688 6.89753 25.917 7.09165 25.6551C7.38147 25.2602 7.913 24.6014 7.70658 24.8974C7.62045 25.0216 7.39227 25.3316 7.14928 25.6933C6.76597 26.2554 6.37536 26.9436 6.247 27.2401C6.18673 27.3606 6.7662 26.3596 7.21616 25.7377C7.31612 25.5941 7.39844 25.4781 7.45651 25.3933C7.90638 24.7526 7.41185 25.334 7.92402 24.6393C9.6805 22.3346 11.6365 20.4814 13.7633 18.5886C13.9552 18.4177 12.4326 19.7125 14.0793 18.2566C14.3349 18.0348 15.9139 16.7348 18.0154 15.1236C20.2974 13.2675 22.4162 11.8089 24.7432 10.3659C26.8048 9.10957 29.1087 7.74207 31.7688 6.62594C32.1304 6.48157 32.4555 6.35495 32.8237 6.21811C32.7431 6.24231 32.3564 6.37289 31.7584 6.5995C30.3149 7.11521 27.6248 8.5761 27.4312 8.69366C26.591 9.16391 25.6952 9.69097 24.7054 10.3054C19.3014 13.6055 12.2508 19.161 8.87111 23.2594C7.85745 24.4818 8.37713 23.9223 7.95919 24.4552C7.66217 24.8623 7.9047 24.367 7.05752 25.6324C7.02475 25.6832 6.99077 25.7366 6.95563 25.7927ZM106.246 115.195C106.331 114.382 106.462 111.58 106.596 109.763C106.516 110.411 106.34 113.414 106.246 115.195ZM55.5908 27.5216C54.8384 26.958 52.6608 25.0295 52.4793 24.8695C52.2106 24.7065 55.3783 27.4682 55.5908 27.5216ZM67.7925 348.693C67.7066 348.703 65.5983 348.712 65.5224 348.703C63.6412 348.653 69.9538 348.618 67.7925 348.693ZM24.6633 334.452C24.2036 332.957 23.7677 331.361 23.6848 330.818C23.9351 331.837 24.7506 334.639 24.6633 334.452ZM20.2753 264.109C20.2082 264.396 20.2311 261.004 20.2453 259.276C20.2479 258.959 20.2493 258.707 20.2498 258.557C20.2574 258.628 20.2662 258.896 20.2732 259.276C20.3003 260.798 20.3206 263.927 20.2753 264.109ZM86.5948 40.4268C88.7134 41.1448 88.9242 41.1577 89.66 41.4004C89.8882 41.4764 90.1661 41.5753 90.5656 41.7271C90.594 41.7379 90.623 41.7489 90.6527 41.7603C90.86 41.8399 91.3592 42.1516 90.5073 41.8937C90.2959 41.8299 90.0011 41.7314 89.5956 41.5853C89.3323 41.4907 89.0676 41.3921 88.7171 41.2602C88.16 41.0532 90.3787 41.7434 86.5948 40.4268ZM8.41994 87.143C8.34743 86.3713 8.28537 83.9562 8.22059 82.325C8.27811 82.6922 8.38843 85.981 8.41994 87.143ZM107.763 96.5211C107.807 95.1036 107.898 88.556 107.876 90.1763C107.864 90.4071 107.803 95.6018 107.763 96.5211ZM113.744 311.222C113.743 313.897 113.876 308.36 113.833 306.589C113.831 307.398 113.747 311.035 113.744 311.222ZM20.287 281.275C20.2835 281.171 20.2735 278.23 20.2764 278.15C20.3252 275.813 20.3534 283.898 20.287 281.275ZM34.3189 345.297C34.0178 345.184 33.1273 344.796 32.1808 344.148C30.2164 342.855 28.0859 341.012 27.6141 340.371C28.0466 340.868 30.2197 342.742 32.2298 344.076C33.5742 345.005 34.7877 345.45 34.3189 345.297ZM74.754 37.0117C76.8173 37.6026 78.8058 38.1791 80.6986 38.729C80.285 38.6597 74.966 37.1091 74.754 37.0117ZM20.2386 270.796C20.2385 270.641 20.2427 270.489 20.2429 270.34C20.2415 270.495 20.2399 270.648 20.2386 270.796ZM38.5668 5.86641C38.1483 5.48518 37.9996 5.47159 37.939 5.45102C37.8812 5.44165 37.9248 5.48362 37.9474 5.49662C38.4803 5.74 39.5489 6.95963 38.5668 5.86641ZM106.424 113.115C106.494 112.504 106.653 109.441 106.794 107.7C106.731 108.204 106.493 111.722 106.424 113.115ZM9.96541 128.419C10.0809 130.671 9.22096 121.535 9.16935 119.59C9.18301 119.452 9.92369 128.083 9.96541 128.419ZM113.935 302.888C113.988 302.716 113.929 298.84 113.906 299.665C113.894 300.186 113.906 303 113.935 302.888ZM8.92373 114.984C8.86007 114.13 8.81597 112.114 8.88142 112.819C8.96473 113.733 8.93973 115.201 8.92373 114.984ZM5.20265 37.3297C5.1885 37.7183 5.47787 42.7342 5.43337 40.6541C5.40317 39.2185 5.32127 38.9766 5.30765 38.645C5.25587 38.252 5.237 30.2243 5.20265 37.3297ZM15.0361 179.914C15.0315 179.847 15.0269 179.781 15.0222 179.713C14.8921 177.808 14.7362 175.55 14.5515 173.594C14.6641 174.361 15.0071 178.506 15.0316 179.713C15.0342 179.794 15.0357 179.861 15.0361 179.914ZM113.667 317.773C113.747 317.3 114.012 304.626 113.809 311.838C113.812 312.245 113.565 319.19 113.667 317.773ZM86.5948 40.4268C86.237 40.3067 85.8357 40.1715 85.3615 40.0144C85.8334 40.1675 86.2352 40.304 86.5948 40.4268ZM54.6878 26.6236C55.2592 27.0677 52.4903 24.6988 51.7238 23.9406C51.4313 23.7704 54.5816 26.5936 54.6878 26.6236ZM14.4842 173.445C14.355 172.281 14.161 170.167 13.9966 168.731C14.0651 168.968 14.4811 172.936 14.4842 173.445ZM20.0353 254.868C20.008 252.539 19.8744 249.688 19.8281 249.646C19.8328 249.598 19.8351 249.485 19.834 249.298C19.8333 249.172 19.7762 248.071 19.7193 247.019C19.6893 246.46 19.6604 245.923 19.6443 245.55C19.5635 243.766 19.6493 244.869 19.7701 247.016C20.1453 252.641 20.2168 265.514 19.8826 252.295C19.938 253.145 19.9894 254.015 20.0353 254.868ZM42.4759 347.059C43.0049 347.117 43.9478 347.166 44.8029 347.19C45.9741 347.222 46.9753 347.224 46.4244 347.195C46.2032 347.182 45.536 347.158 44.8051 347.13C43.342 347.08 41.6417 346.966 42.4759 347.059ZM20.6583 311.301C20.6628 311.539 20.738 312.925 20.8179 314.029C20.8676 314.722 20.9155 315.269 20.9294 315.313C20.9085 314.9 20.8871 314.496 20.8614 314.026C20.7534 312.067 20.6342 309.891 20.6583 311.301ZM52.6298 347.685C53.1629 347.756 53.7972 347.825 54.185 347.872C54.4023 347.896 54.5321 347.905 54.4969 347.897C54.4102 347.878 54.3063 347.857 54.1919 347.835C53.1362 347.62 51.3383 347.495 52.6298 347.685ZM80.7711 38.444C79.6106 38.0975 75.8258 37.0891 75.0031 36.9079C74.8546 36.854 74.4469 36.7224 73.7007 36.4894C73.703 36.49 73.7054 36.4907 73.7077 36.4914C73.5812 36.4522 73.1393 36.3221 72.388 36.1014C71.2065 35.7572 69.4146 35.1597 67.4958 34.3299C59.4622 30.8774 49.7689 23.1265 62.7154 32.0405C63.3195 32.3701 62.4979 31.9128 64.9844 33.206C65.1498 33.2887 65.2139 33.3689 65.7295 33.6189C66.0282 33.7629 66.6554 34.0628 67.4608 34.4113C68.8378 35.0141 70.756 35.7269 72.3638 36.1846C73.5041 36.5145 74.4016 36.7681 74.8395 36.8831C74.8484 36.8936 74.9319 36.9251 75.1065 36.9821C76.6866 37.5025 81.686 38.7202 80.7711 38.444ZM20.4081 304.269C20.4086 304.935 20.4939 307.269 20.5387 307.467C20.5167 306.384 20.4004 302.605 20.4081 304.269ZM113.821 317.387C113.907 315.906 113.947 312.231 113.89 313.343C113.865 314.038 113.732 319.065 113.821 317.387ZM22.3299 326.527C20.881 318.618 21.949 324.641 21.6672 323.439C21.8546 324.479 22.0751 325.504 22.3299 326.527ZM103.827 60.8499C103.749 59.5098 103.952 61.0665 104.013 62.5743C104.032 63.0472 103.869 61.5997 103.827 60.8499ZM104.779 121.227C104.845 120.08 104.924 125.68 104.807 123.501C104.802 123.407 104.777 121.309 104.779 121.227ZM104.87 78.8957C104.804 77.992 104.805 77.4082 104.783 74.8687C104.846 78.6267 104.873 75.1303 104.87 78.8957ZM19.8224 249.672C19.8243 249.657 19.8256 249.644 19.8281 249.646C19.8265 249.663 19.8246 249.67 19.8224 249.672ZM60.3661 348.716C61.376 348.869 64.2445 348.974 63.3921 348.886C63.3067 348.889 60.7836 348.723 60.3661 348.716ZM75.0031 36.9079C75.1336 36.9553 75.0656 36.9422 74.8395 36.8831C74.8309 36.8732 74.8914 36.8836 75.0031 36.9079ZM44.5357 347.254C44.6196 347.243 40.292 346.954 40.1504 346.891C37.7339 346.666 42.6701 347.26 44.5357 347.254ZM114.016 287.802C114.008 287.571 113.941 289.062 113.993 289.974C114.034 290.681 114.049 288.666 114.016 287.802ZM104.829 87.575C104.811 88.9887 104.785 90.9901 104.732 91.3658C104.751 90.4027 104.793 87.5505 104.829 87.575ZM104.803 119.035C104.711 117.36 104.657 113.496 104.651 111.046C104.721 111.004 104.747 117.467 104.803 119.035ZM84.4238 39.5215C84.3335 39.4758 80.9482 38.4925 81.3941 38.6734C82.0759 38.9291 85.3561 39.826 84.4238 39.5215ZM114.065 294.708C114.112 296.298 114.18 292.635 114.075 290.96C114.025 290.1 114.06 294.438 114.065 294.708ZM69.3288 348.949C71.3893 348.849 66.2839 348.969 65.5801 348.978C66.5216 348.996 68.5997 348.992 69.3288 348.949ZM20.8623 317.153C21.3002 323.614 21.2647 320.088 21.118 318.941C21.0963 318.792 20.851 316.993 20.8623 317.153ZM108.098 80.0671C108.122 79.1261 108.034 82.6349 108.024 83.0809C108.017 83.3595 108.082 80.6747 108.098 80.0671ZM17.3132 217.417C17.3384 217.695 17.3634 217.971 17.3881 218.244C17.3674 218.04 17.3426 217.77 17.3132 217.417ZM88.1008 347.139C87.0232 347.258 86.236 347.346 85.6366 347.419C83.6719 347.654 83.8974 347.714 83.5945 347.757C82.7258 347.876 80.7232 348.084 79.1012 348.278C80.9572 348.04 82.8121 347.772 84.6651 347.482C83.1938 347.8 70.4459 348.996 70.1881 348.885C69.8056 348.967 73.8178 348.711 73.9285 348.689C74.0981 348.683 74.7359 348.769 75.1078 348.741C75.5755 348.734 81.9245 348.061 85.6476 347.493C86.8042 347.327 87.6952 347.195 88.1008 347.139ZM23.1866 330.415C23.1197 330.145 23.0673 329.919 23.0243 329.725C22.9072 329.197 22.8714 328.952 22.7707 328.604C22.7247 328.444 22.6654 328.433 22.5137 327.889C22.67 328.498 22.8331 329.105 23.002 329.731C23.0649 329.964 23.1264 330.192 23.1866 330.415ZM96.5199 345.882C97.8769 345.823 91.8256 346.31 91.6104 346.416C90.5558 346.493 95.4402 345.851 96.5199 345.882ZM46.7606 347.378C46.9543 347.367 51.619 347.625 51.6074 347.635C50.3003 347.424 44.196 347.252 46.7606 347.378ZM22.3446 327.219C21.9587 325.716 21.538 322.854 21.5204 323.196C21.5208 323.199 21.5211 323.201 21.5215 323.203C21.7384 324.55 22.0142 325.885 22.3446 327.219ZM114.249 300.146C114.359 297.201 114.218 298.588 114.18 301.211C114.232 302.004 114.23 300.634 114.249 300.146ZM114.259 290.694C114.281 289.87 114.062 281.405 114.026 282.698C114.021 283.156 114.186 288.025 114.182 288.249C114.182 288.59 114.086 287.038 114.145 289.634C114.166 289.482 114.256 290.976 114.259 290.694ZM114.317 297.704C114.39 294.764 114.215 294.113 114.233 296.315C114.239 297.178 114.306 298.124 114.317 297.704ZM114.238 309.683C114.273 308.645 114.331 305.823 114.285 303.884C114.266 306.484 114.23 309.053 114.17 311.666C114.195 311.965 114.209 310.619 114.238 309.676C114.238 309.679 114.238 309.681 114.238 309.683ZM107.444 136.942C106.858 135.813 107.226 136.574 107.854 137.544C108.48 138.519 109.447 139.604 109.524 139.688C109.971 140.227 107.946 137.991 107.444 136.942ZM108.68 61.8062C108.706 61.1371 108.72 60.7594 108.779 59.304C108.721 60.7353 108.663 62.225 108.612 63.6138C108.572 64.711 108.651 62.5656 108.68 61.8062ZM108.904 56.3094C108.896 56.5127 108.942 55.4017 108.831 58.0348C108.751 59.8537 109.164 50.143 109.307 48.4162C109.171 50.3811 108.98 54.5575 108.904 56.3094ZM109.456 48.1735C109.456 48.0886 109.456 50.235 109.456 51.4277C109.456 51.4566 109.456 51.4832 109.456 51.5076C109.456 51.5316 109.456 51.5568 109.456 51.5603C109.456 51.5409 109.456 51.5179 109.456 51.5034C109.456 51.4639 109.456 51.4337 109.456 51.3953C109.456 51.3307 109.456 51.267 109.456 51.211C109.456 51.1025 109.456 51.0196 109.456 50.9744C109.456 50.4627 109.456 50.3626 109.456 50.523C109.456 50.602 109.456 50.7464 109.456 50.9342C109.456 51.0321 109.456 51.1338 109.456 51.2505C109.456 51.3049 109.456 51.365 109.456 51.4288C109.456 51.4565 109.456 51.4937 109.456 51.5202C109.456 51.5704 109.456 51.5512 109.456 51.5076C109.456 51.4829 109.456 51.4563 109.456 51.4277C109.456 50.205 109.456 48.493 109.456 48.1735ZM109.15 51.1141C109.242 49.3551 109.038 53.2616 108.993 54.3284C108.987 54.4342 109.132 51.4008 109.15 51.1141ZM107.662 112.993C107.761 111.16 107.498 109.47 107.572 112.336C107.575 112.471 107.657 113.072 107.662 112.993ZM109.456 51.3696C109.456 50.992 109.456 50.8772 109.456 50.95C109.456 50.9868 109.456 51.067 109.456 51.1805C109.456 51.24 109.456 51.305 109.456 51.3775C109.456 51.4158 109.456 51.4484 109.456 51.4937C109.456 51.511 109.456 51.537 109.456 51.5533C109.456 51.5754 109.456 51.529 109.456 51.5076C109.456 51.4832 109.456 51.4566 109.456 51.4277C109.456 50.5445 109.456 49.1477 109.456 48.5329C109.456 48.4446 109.456 50.5713 109.456 51.4277C109.456 51.4576 109.456 51.4841 109.456 51.5076C109.456 51.6305 109.456 51.4841 109.456 51.4592C109.456 51.4221 109.456 51.3838 109.456 51.3696ZM107.929 111.693C107.994 109.208 107.719 110.093 107.709 110.397C107.669 111.69 107.83 116 107.875 116.914C107.744 110.386 107.903 112.85 107.929 111.693ZM107.748 100.316C107.731 98.042 107.641 103.864 107.724 104.989C107.719 103.855 107.752 100.959 107.748 100.316ZM107.983 86.4202C108.01 85.1848 108.065 81.5128 108.02 80.9054C108.026 82.2487 107.945 85.8969 107.983 86.4202ZM108.145 83.6279C108.221 81.7085 108.048 81.2374 108.083 83.4597C108.085 83.546 108.141 83.6988 108.145 83.6279ZM108.148 72.7557C108.179 71.4838 107.946 70.0261 108.022 72.1002C108.041 72.7061 108.143 72.8913 108.148 72.7557ZM108.213 108.6C108.236 106.795 108.11 104.477 108.106 108.322C108.083 106.976 108.062 105.606 108.045 104.266C107.977 109.309 108.156 108.949 108.155 110.387C108.16 112.428 108.021 112.252 107.973 111.855C108.065 113.514 108.166 120.557 108.302 124.64C108.237 121.054 108.198 115.24 108.196 111.712C108.194 110.684 108.149 109.724 108.15 108.858C108.151 107.468 108.211 108.701 108.213 108.607C108.213 108.604 108.213 108.602 108.213 108.6ZM107.098 58.5195C106.876 54.7664 106.915 57.1595 107.089 59.2586C107.098 59.3487 107.103 58.6123 107.098 58.5195ZM109.456 46.8318C109.456 49.8359 109.456 49.698 109.456 51.4277C109.456 51.4555 109.456 51.4822 109.456 51.5076C109.456 50.9805 109.456 49.7072 109.456 47.9001C109.456 47.759 109.455 47.6368 109.453 47.536C109.45 47.4367 109.456 47.3687 109.434 47.2177C109.424 47.1875 109.417 47.2189 109.407 47.2778C109.402 47.3084 109.396 47.3487 109.39 47.399C109.386 47.4372 109.385 47.4454 109.382 47.4708C109.365 47.6323 109.336 47.9994 109.323 48.1801C109.308 48.3947 109.285 48.7466 109.27 48.9783C109.255 49.2247 109.238 49.5049 109.22 49.8241C109.498 45.5262 109.232 49.5477 109.286 48.7392C109.293 48.6258 109.303 48.4731 109.314 48.3159C109.326 48.1387 109.331 48.0629 109.353 47.7978C109.361 47.6911 109.37 47.5978 109.377 47.52C109.381 47.4812 109.385 47.4461 109.388 47.415C109.397 47.3379 109.406 47.2765 109.413 47.2435C109.426 47.1686 109.444 47.2162 109.449 47.3694C109.451 47.4196 109.452 47.4777 109.453 47.536C109.456 47.6861 109.456 47.8329 109.456 47.8482C109.456 47.87 109.457 47.739 109.453 47.536C109.453 47.4883 109.451 47.4384 109.449 47.3916C109.451 47.4293 109.452 47.4764 109.453 47.536C109.455 47.6252 109.456 47.7424 109.456 47.9001C109.456 48.7179 109.456 50.2628 109.456 51.5076C109.456 51.4827 109.456 51.456 109.456 51.4277C109.456 48.4554 109.456 45.1336 109.456 44.8976C109.456 44.9012 109.456 44.9052 109.456 44.9094C109.456 44.6801 109.456 45.2475 109.456 46.8318ZM108.43 86.4077C108.65 85.1678 108.329 84.6786 108.519 82.2423C108.304 78.994 108.428 91.2156 108.194 92.673C108.377 79.4416 107.884 101.413 108.306 92.1818C108.109 99.7972 108.318 94.6768 108.345 95.8532C108.374 97.1038 108.299 101.406 108.379 101.186C108.379 101.184 108.379 101.181 108.379 101.179C108.387 98.5503 108.405 95.9224 108.43 93.2905C108.234 95.8679 108.345 90.4819 108.504 88.6587C108.48 87.9194 108.455 87.1496 108.43 86.4077ZM108.124 101.302C108.125 101.054 108.147 95.3113 108.113 95.6967C108.076 96.4499 108.058 104.588 108.124 101.302ZM108.464 126.472C108.458 126.251 108.45 126.003 108.441 125.76C108.437 125.632 108.432 125.5 108.427 125.364L108.427 125.385C108.378 123.414 108.339 121.053 108.268 120.126C108.299 121.691 108.334 123.906 108.395 125.386L108.394 125.365C108.402 125.506 108.409 125.638 108.416 125.761C108.433 126.039 108.448 126.291 108.464 126.472ZM80.5543 34.8463C78.017 34.1867 85.7925 36.3864 83.5551 35.6944C83.4389 35.6559 80.6803 34.8797 80.5543 34.8463ZM108.447 80.4282C108.513 77.7562 108.314 79.0145 108.359 81.0046C108.362 81.1207 108.444 80.5515 108.447 80.4282ZM109.456 50.8526C109.456 50.883 109.456 51.0895 109.456 51.4277C109.456 51.4552 109.456 51.482 109.456 51.5076C109.456 50.9284 109.456 49.317 109.456 47.9001C109.456 47.7557 109.455 47.6345 109.453 47.536C109.45 47.435 109.455 47.368 109.435 47.2189C109.425 47.1874 109.418 47.2167 109.408 47.2682C109.399 47.3151 109.386 47.439 109.384 47.4548C109.376 47.535 109.366 47.6337 109.357 47.7491C109.347 47.8658 109.337 48.0004 109.331 48.0747C109.305 48.4225 109.274 48.9171 109.256 49.2096C109.213 49.9287 109.184 50.4712 109.169 50.7459C109.179 50.572 109.203 50.1127 109.248 49.3426C109.259 49.1623 109.269 48.9968 109.281 48.8038C109.296 48.5701 109.311 48.3498 109.325 48.153C109.336 48.0028 109.363 47.6596 109.38 47.4916C109.385 47.4478 109.389 47.4053 109.402 47.3093C109.413 47.2358 109.42 47.1986 109.431 47.2083C109.436 47.2158 109.44 47.2416 109.444 47.2864C109.448 47.3392 109.449 47.3807 109.45 47.3938C109.451 47.4344 109.452 47.4818 109.453 47.536C109.455 47.6345 109.456 47.7556 109.456 47.9001C109.456 49.3106 109.456 50.9263 109.456 51.5076C109.456 51.482 109.456 51.4552 109.456 51.4277C109.456 51.0388 109.456 50.8144 109.456 50.8526ZM108.664 130.08C108.728 128.755 108.761 127.218 108.697 125.75C108.692 125.619 108.686 125.486 108.68 125.353L108.681 125.378C108.589 122.617 108.459 120.227 108.454 119.849C108.447 119.25 108.543 120.187 108.543 120.05C108.533 119.723 108.429 113.319 108.427 112.986C108.421 112.763 108.324 113.928 108.276 112.601C108.333 114.555 108.439 121.696 108.549 125.381L108.549 125.359C108.554 125.497 108.56 125.629 108.564 125.755C108.602 126.768 108.605 127.451 108.609 127.585C108.614 128.051 108.733 124.5 108.664 130.074C108.664 130.076 108.664 130.078 108.664 130.08ZM108.449 118.322C108.431 119.934 108.347 115.413 108.355 114.34C108.362 111.904 108.445 118.13 108.449 118.322ZM108.381 107.48C108.386 106.976 108.4 102.309 108.354 101.926C108.275 104.12 108.36 108.65 108.381 107.48ZM107.192 55.543C107.103 54.3165 106.534 50.8554 106.393 50.6636C106.755 51.9317 107.149 55.3599 107.192 55.543ZM108.503 66.6509C108.573 64.6468 108.411 69.3012 108.37 70.6599C108.366 70.7249 108.496 66.8276 108.503 66.6509ZM108.872 79.9758C108.877 79.4473 108.931 71.2501 108.373 66.0952C108.318 65.5442 108.257 65.0072 108.2 64.5457C108.08 63.5797 108.016 62.8328 107.982 62.4729C108.006 62.8294 108.061 63.5785 108.173 64.5481C108.227 65.0107 108.284 65.5479 108.336 66.0989C108.856 71.1954 108.795 79.2589 108.812 79.7413C108.817 79.9324 108.87 80.0673 108.872 79.9758ZM108.711 111.561C108.787 112.884 108.719 113.764 108.72 113.935C108.727 115.577 108.801 119.009 108.725 118.257C108.69 115.342 108.559 108.893 108.711 111.561ZM107.364 54.4428C106.667 49.3138 107.812 59.1561 107.666 57.8392C107.673 57.763 107.45 54.9795 107.364 54.4428ZM108.885 81.6153C108.951 82.7337 108.707 97.3362 108.709 99.6771C108.626 97.5759 108.715 95.8833 108.742 93.0647C108.749 92.3005 108.706 92.5057 108.707 92.4235C108.72 91.1137 108.756 92.1029 108.766 91.2821C108.777 90.7716 108.833 80.0816 108.885 81.6153ZM108.763 112.318C108.793 113.153 108.964 122.212 108.977 122.602C108.953 125.339 108.729 113.031 108.763 112.318ZM108.977 80.2687C109.095 81.8548 108.938 89.1262 108.933 84.1486C108.933 83.6634 108.999 81.6608 108.977 80.2687ZM107.535 54.9778C107.605 54.748 106.63 49.3054 106.415 49.202C106.914 50.0409 107.85 57.8583 107.535 54.9778ZM107.911 57.7117C107.897 57.5831 107.937 58.8276 107.736 56.3536C107.698 56.1413 107.831 55.7731 107.316 52.5862C107.206 51.9363 106.938 50.9336 106.949 51.0085C107.713 54.46 108.341 64.0033 107.911 57.7117ZM108.828 112.483C108.856 111.997 108.965 113.165 108.928 114.248C108.913 114.709 108.842 113.841 108.828 112.483ZM98.2249 40.2085C100.862 41.3271 93.7258 38.1585 91.9758 37.7001C91.7807 37.6328 91.6504 37.5886 91.6044 37.5742C91.6398 37.5915 91.7696 37.6416 91.9701 37.7163C93.3174 38.1729 97.9754 40.0244 98.2249 40.2085ZM108.347 71.3707C108.347 71.3683 108.347 71.3659 108.347 71.3635C108.269 73.8694 108.318 72.3177 108.314 72.4343C108.152 77.8327 108.199 76.3874 108.174 77.2374C108.124 79.0632 108.131 78.7381 108.055 81.8057C108.182 76.7543 108.066 81.3471 108.062 81.4986C108.046 82.0424 108.235 74.8064 108.319 72.272C108.329 71.9186 108.251 74.5056 108.278 73.6069C108.361 70.7013 108.67 61.6329 108.347 71.3707ZM108.947 115.063C109.006 116.245 109.144 125.107 109.045 122.758C109.013 122.367 108.831 113.344 108.947 115.063ZM15.4096 249.06C15.2617 246.941 15.4285 251.861 15.4844 252.765C15.5217 253.218 15.4808 249.994 15.4096 249.06ZM15.5126 283.753C15.54 286.324 15.7743 288.944 15.7158 285.816C15.7095 285.495 15.5397 283.461 15.5126 283.753ZM4.47815 117.41C4.56784 120.08 4.69972 119.916 4.57369 117.955C4.53109 117.268 4.47553 117.325 4.47815 117.41ZM12.9697 218.404C12.9878 218.667 13.2681 221.726 13.2901 221.611C13.2088 220.482 12.8516 216.689 12.9697 218.404ZM4.40825 116.56C4.52715 118.149 4.46214 115.406 4.27123 113.485C4.32642 114.471 4.39575 116.404 4.40825 116.56ZM109.249 74.7404C109.177 73.4093 109.076 69.6225 108.876 67.4167C108.972 67.1902 109.249 73.1923 109.249 74.7404ZM15.5481 272.96C15.6071 275.338 15.6362 270.228 15.5685 270.677C15.5648 270.751 15.5455 272.873 15.5481 272.96ZM0.602386 31.6522C0.601704 32.9042 0.688057 30.5793 0.765291 29.5135C0.813838 28.8737 0.857303 28.5767 0.751739 29.2228C0.749487 29.241 0.736892 29.3471 0.7243 29.5108C0.67347 30.0715 0.599101 31.5758 0.602386 31.6522ZM15.5137 11.0319C14.3847 11.7915 9.91714 15.5623 11.6855 14.1283C11.941 13.8791 15.4419 11.1036 15.5137 11.0319ZM108.17 77.3879C108.188 76.682 108.078 80.8113 108.064 81.4232C108.058 81.6472 108.143 78.3295 108.17 77.3879ZM5.86546 134.676C5.92025 135.211 6.00027 136.045 6.08115 136.922C6.17535 137.938 6.26286 138.979 6.3062 139.583C6.32433 139.834 6.34083 140.024 6.35395 140.131C6.34349 139.97 6.33237 139.785 6.321 139.582C6.28168 138.869 6.20058 137.842 6.11894 136.918C5.99957 135.573 5.88369 134.424 5.86546 134.676ZM15.5319 261.99C15.4491 264.041 15.4617 267.68 15.5692 266.781C15.558 262.788 15.4709 267.207 15.5319 261.99ZM3.91395 107.667C3.945 108.787 4.08222 109.62 4.08217 109.496C4.08197 108.303 3.91874 106.569 3.91395 107.667ZM10.8464 190.037C10.8016 190.103 11.0089 193.648 11.0136 193.173C11.0119 193.018 10.8772 189.984 10.8464 190.037ZM88.5465 36.2679C87.4832 35.8814 89.4202 36.5001 91.1551 37.109C91.4707 37.2192 91.7822 37.3289 92.0696 37.432C92.4916 37.5832 92.862 37.7202 93.1179 37.8206C93.3608 37.9339 92.8252 37.7535 92.0503 37.4872C91.7678 37.39 91.4537 37.2812 91.1339 37.1698C89.9321 36.7502 88.6539 36.3058 88.5465 36.2679ZM3.19598 77.183C3.12863 77.0243 3.42896 82.5055 3.38094 80.3411C3.37146 79.7982 3.22274 77.2399 3.19598 77.183ZM2.86672 23.3459C2.31128 24.2886 2.51894 23.9542 3.13717 23.0313C4.74983 20.32 10.5996 14.8808 8.27394 17.0045C8.04457 17.1203 3.93638 21.4631 3.09073 23.0005C2.96603 23.1881 2.88879 23.3101 2.86672 23.3459ZM22.7073 5.98948C22.1482 6.33477 22.2724 5.94986 24.7009 4.63829C25.0159 4.46746 23.5909 5.36262 23.8529 5.22717C23.9578 5.09852 29.2851 2.30094 29.6863 2.25977C29.9757 2.13608 29.6065 2.20853 29.8983 2.08318C29.9155 2.07589 29.9416 2.06525 29.976 2.05172C30.5851 1.82053 33.7843 0.577732 36.2015 0.464781C38.5747 0.285269 40.2783 1.20707 40.935 1.66217C41.6499 2.15462 41.8021 2.32576 41.9514 2.45749C42.8304 3.2774 43.765 4.68689 44.6508 6.20574C45.0613 6.90088 45.4529 7.59334 45.8641 8.31351C46.6966 9.77528 47.5675 11.2702 48.5398 12.7908C52.2311 18.6752 58.3909 23.883 62.2713 26.4586C57.5261 23.2673 53.3762 19.5498 49.9769 15.0485C50.5114 15.6569 49.2946 14.112 48.4704 12.8351C47.5935 11.4819 46.9581 10.488 48.4904 12.8223C48.5284 12.8787 48.568 12.9372 48.6093 12.9978C48.5759 12.9475 48.537 12.8883 48.4931 12.8206C48.0261 12.1058 47.0354 10.5143 45.8042 8.34765C44.494 6.45982 43.9461 3.59893 39.9628 1.20264C35.4306 -0.534498 32.5111 1.40768 30.0216 2.16805C25.9459 3.86881 23.3562 5.64214 22.7135 5.98564C22.7114 5.98692 22.7094 5.9882 22.7073 5.98948ZM15.5455 293.783C15.4453 292.235 15.5805 300.261 15.6921 300.955C15.6764 299.863 15.5538 294.033 15.5455 293.783ZM15.1843 256.816C15.1561 256.084 15.0223 255.392 14.9634 251.534C14.9633 251.531 14.9632 251.527 14.9631 251.524C14.942 250.391 15.0272 251.679 15.032 251.472C15.038 251.391 14.9621 247.878 15.0968 250.795C15.2734 255.252 15.007 251.219 15.0808 253.595C15.1011 253.888 15.2534 258.368 15.2584 258.111C15.2614 258.084 15.2312 256.732 15.234 256.511C15.2483 255.669 15.3007 256.078 15.3011 255.959C15.3273 255.572 15.0019 248.461 14.9919 247.422C15.053 247.085 15.4809 258.76 15.3879 259.205C15.3872 259.232 15.3854 259.255 15.3827 259.276C15.3572 259.481 15.251 259.404 15.2395 259.684C15.2327 259.885 15.2822 264.576 15.2715 265.212C15.2682 265.395 15.2647 265.535 15.2618 265.637C15.3005 264.924 15.3031 269.233 15.2585 269.079C15.2405 269.019 15.2466 266.072 15.2498 265.952C15.251 265.905 15.2528 265.864 15.254 265.825C15.2201 266.21 15.2074 261.534 15.1814 259.276C15.1694 258.367 15.1501 257.924 15.1319 258.563C15.071 255.697 15.2448 258.969 15.1843 256.816ZM14.5307 243.011C14.5633 243.308 14.5955 243.604 14.6273 243.9C14.2845 238.858 13.8768 233.034 13.3666 227.204C13.2372 225.724 13.3041 227.432 13.1566 225.493C13.0378 223.937 12.9611 222.211 13.053 223.054C13.0753 223.258 13.3062 226.429 13.4478 228.01C13.8645 232.677 13.83 231.493 13.8561 231.765C13.8842 232.067 14.0765 235.004 14.201 236.609C14.4965 240.462 14.6804 242.308 14.9042 247.271C14.9138 247.497 14.9234 247.73 14.9328 247.969C14.9158 247.705 14.8997 247.474 14.8846 247.272C14.7136 245.056 14.7036 246.247 14.5307 243.011ZM1.37412 54.0014C1.31476 53.818 1.10229 50.4754 1.01139 49.2731C1.06802 49.4604 1.27382 52.7903 1.37412 54.0014ZM115.868 226.927C115.805 226.586 115.864 227.204 115.952 228.078C116.145 229.915 116.399 232.988 116.322 231.609C116.304 231.271 116.146 229.422 115.998 228.073C115.947 227.602 115.899 227.186 115.868 226.927ZM117.307 261.424C117.373 262.258 117.25 259.676 117.165 258.681C117.146 258.456 117.13 258.316 117.121 258.318C117.117 258.32 117.124 258.461 117.137 258.683C117.184 259.484 117.3 261.327 117.307 261.424ZM9.90558 177.469C9.89424 177.279 9.67667 174.506 9.66786 174.42C9.60699 172.577 10.2771 181.7 9.90558 177.469ZM118.578 303.42C118.554 299.828 118.465 310.644 118.545 307.338C118.553 307.159 118.583 303.604 118.578 303.42ZM118.316 318.456C118.351 317.605 118.48 313.771 118.457 313.717C118.431 313.643 118.281 318.03 118.316 318.456ZM3.61428 106.932C3.53923 107.349 3.46336 102.295 3.43944 100.54C3.51016 100.122 3.53807 105.177 3.61428 106.932ZM5.79105 138.632C5.74547 138.075 5.69232 137.496 5.64197 136.962C3.9378 119.003 4.35797 122.225 5.69658 136.957C5.77262 137.82 5.85238 138.738 5.89949 139.606C5.90341 139.68 5.90737 139.754 5.91139 139.827C5.88138 139.844 5.87569 139.869 5.85947 139.609C5.84989 139.458 5.83425 139.162 5.79105 138.632ZM3.73711 111.543C3.82288 112.329 3.9222 114.723 4.01383 116.366C3.95737 116.078 3.7941 112.728 3.73711 111.543ZM114.917 217.939C115.036 218.939 115.388 222.539 115.536 223.677C115.578 224.04 115.586 224.169 115.547 223.925C115.543 223.901 115.531 223.815 115.512 223.68C115.313 222.532 114.833 217.523 114.917 217.939ZM9.69591 175.735C9.67649 176.226 9.10412 169.983 9.04874 169.499C8.91789 167.563 9.66818 175.235 9.69591 175.735ZM2.81275 76.9983C2.69215 75.8936 2.53787 72.7239 2.40261 70.6917C2.51973 71.6159 2.72395 75.2741 2.81275 76.9983ZM3.28728 91.6581C3.28637 91.532 3.23773 88.7012 3.23445 88.5755C3.251 86.2565 3.38502 94.259 3.28728 91.6581ZM108.462 67.8574C108.457 67.9776 108.387 70.0963 108.385 70.1836C108.321 72.1155 108.537 65.622 108.462 67.8574Z" fill="#D7F205"/>
</svg>
