<svg width="124" height="67" viewBox="0 0 124 67" fill="none" xmlns="http://www.w3.org/2000/svg">
<g filter="url(#filter0_d_13_197)">
<path d="M13.0352 5.45808C11.5332 6.48779 12.9839 4.39147 13.9569 4.39147C17.5418 0.2242 21.6187 -0.0470521 30.4774 0.00512803C72.3672 0.251871 61.1381 1.5288 69.4791 1.66892C83.7442 1.90856 104.177 -1.51931 109.154 1.66888C115.008 5.41941 121.133 16.7217 122.725 34.0909C123.456 42.0643 123.023 49.0087 117.727 53.0972C114.996 55.2051 99.4206 57.5809 91.7732 56.3754C84.0666 55.1605 80.2537 53.049 50.9873 57.5809C40.3339 59.2305 29.6887 60.1125 23.7565 56.3754C21.1066 55.7017 18.5212 54.6488 16.1237 53.0972C15.7509 52.2848 15.2166 51.3751 14.5915 50.346C14.0686 49.6401 13.5653 48.823 13.0909 47.8686C10.686 43.8051 7.852 38.2296 7.228 30.3215C6.78822 27.1395 7.01259 23.5174 7.66128 19.9667C7.79038 19.1182 7.94351 18.2501 8.12235 17.3617C9.72887 9.38192 9.77907 9.22067 13.0352 5.45808Z" fill="#D7F205"/>
</g>
<defs>
<filter id="filter0_d_13_197" x="0" y="0" width="124" height="67" filterUnits="userSpaceOnUse" color-interpolation-filters="sRGB">
<feFlood flood-opacity="0" result="BackgroundImageFix"/>
<feColorMatrix in="SourceAlpha" type="matrix" values="0 0 0 0 0 0 0 0 0 0 0 0 0 0 0 0 0 0 127 0" result="hardAlpha"/>
<feOffset dx="-3" dy="4"/>
<feGaussianBlur stdDeviation="2"/>
<feComposite in2="hardAlpha" operator="out"/>
<feColorMatrix type="matrix" values="0 0 0 0 0 0 0 0 0 0 0 0 0 0 0 0 0 0 0.25 0"/>
<feBlend mode="normal" in2="BackgroundImageFix" result="effect1_dropShadow_13_197"/>
<feBlend mode="normal" in="SourceGraphic" in2="effect1_dropShadow_13_197" result="shape"/>
</filter>
</defs>
</svg>
