<svg width="136" height="383" viewBox="0 0 136 383" fill="none" xmlns="http://www.w3.org/2000/svg">
<g filter="url(#filter0_d_13_196)">
<path d="M127.588 187.705C126.224 173.218 126.739 158.61 126.392 143.916C124.673 140.452 125.014 137.615 124.761 131.924C123.768 98.1591 125.623 79.5509 123.982 66.5703C122.99 58.7468 123.882 47.8312 117.086 43.7932C113.815 41.8495 109.866 40.5407 105.947 39.2417C98.078 36.6338 99.6502 37.3179 86.2278 33.6094C74.0345 30.2405 62.3598 21.3236 56.1336 12.0378C49.135 1.59993 49.8349 -2.57521 38.637 1.59992C30.2847 4.71412 7.79548 19.3301 7.14312 28.7384C6.15095 43.0473 10.6425 71.0476 10.6424 99.7159C10.6423 124.449 13.1053 141.403 13.442 147.034C14.4341 163.629 17.7835 178.626 18.341 195.048C19.3332 224.272 23.9399 252.534 23.9399 276.159C23.9399 339.091 24.8953 343.33 27.4776 352.628L27.6253 353.161C30.1232 362.164 30.7783 364.525 38.637 369.602C46.1814 374.476 56.5582 372.485 64.5501 373.87C75.7586 375.814 87.8815 375.246 106.991 372.19C117.128 370.569 126.306 372.633 131.212 365.125C136.114 357.624 135.684 302.376 133.157 271.42C132.519 263.596 134.084 255.643 131.517 238.192C129.886 227.106 130.309 216.623 127.588 187.705Z" fill="#D7F205"/>
</g>
<defs>
<filter id="filter0_d_13_196" x="0" y="0" width="136" height="383" filterUnits="userSpaceOnUse" color-interpolation-filters="sRGB">
<feFlood flood-opacity="0" result="BackgroundImageFix"/>
<feColorMatrix in="SourceAlpha" type="matrix" values="0 0 0 0 0 0 0 0 0 0 0 0 0 0 0 0 0 0 127 0" result="hardAlpha"/>
<feOffset dx="-3" dy="4"/>
<feGaussianBlur stdDeviation="2"/>
<feComposite in2="hardAlpha" operator="out"/>
<feColorMatrix type="matrix" values="0 0 0 0 0 0 0 0 0 0 0 0 0 0 0 0 0 0 0.25 0"/>
<feBlend mode="normal" in2="BackgroundImageFix" result="effect1_dropShadow_13_196"/>
<feBlend mode="normal" in="SourceGraphic" in2="effect1_dropShadow_13_196" result="shape"/>
</filter>
</defs>
</svg>
