<svg width="159" height="140" viewBox="0 0 159 140" fill="none" xmlns="http://www.w3.org/2000/svg">
<path d="M3.74149 15.2542C4.14583 12.1614 4.84019 10.0902 5.83935 9.50597C6.4223 8.34405 7.15672 7.52222 8.0742 7.10011C12.6692 1.32637 17.2585 1.61111 28.1173 2.39192C92.7992 7.04291 81.3824 6.41529 92.7992 7.04291C112.325 8.11628 147.506 -4.10728 154.09 2.39192C161.836 10.0375 156.616 48.2798 157.525 82.613C157.943 98.3735 155.993 120.885 148.438 128.728C144.586 132.727 137.633 134.021 128.675 135.689L128.376 135.744C117.723 137.728 109.475 140.761 61.1823 139.277C44.7544 138.772 33.6329 139.122 25.683 137.617C25.4397 137.648 25.19 137.677 24.9326 137.703C16.7493 137.911 7.9879 135.776 0.755404 128.564C-0.884576 122.681 0.86103 116.141 2.61035 104.766C3.65777 92.8051 4.5822 78.309 4.93177 68.8932C4.99312 67.2408 5.02523 65.5509 5.03404 63.8347C5.03403 63.8341 5.03401 63.8335 5.034 63.8329C4.63548 48.849 1.57505 26.8338 4.37369 14.7581C3.97567 15.1261 3.73299 15.3193 3.74149 15.2542Z" fill="#FF3175"/>
</svg>
