<svg width="222" height="198" viewBox="0 0 222 198" fill="none" xmlns="http://www.w3.org/2000/svg">
<g filter="url(#filter0_d_13_204)">
<path d="M30.7199 2.5197C31.6065 1.99849 31.8023 1.90545 30.8411 2.50902C34.5974 2.18594 39.1996 2.50645 45.2449 2.94114C132.338 9.20363 116.966 8.35855 132.338 9.20363C158.629 10.6489 205.999 -5.80993 214.865 2.94114C225.295 13.2358 218.266 64.7285 219.491 110.958C220.053 132.179 217.428 162.49 207.255 173.05C202.068 178.435 192.706 180.178 180.645 182.423L180.242 182.498L180.157 182.514C165.853 185.178 154.702 187.254 89.7664 187.254C81.0755 187.254 72.3859 187.741 64.1874 188.156C57.2424 189.756 44.3551 190.708 41.328 188.612C40.3051 188.565 39.3052 188.504 38.3301 188.426C38.0684 188.407 37.8063 188.384 37.5438 188.358C30.2497 187.695 24.4036 186.03 20.7643 182.498C18.9864 181.449 17.2343 180.279 15.5215 179C13.7926 178.001 12.1192 176.907 10.8343 175.14C10.0097 174.394 9.19852 173.624 8.40253 172.83C6.19432 164.909 8.54475 156.102 10.9002 140.787C12.3105 124.681 13.5553 105.162 14.0259 92.4841C14.1085 90.2591 14.1518 87.9837 14.1636 85.6729C14.1636 85.6721 14.1636 85.6713 14.1636 85.6705C13.6253 65.4301 9.47964 35.6612 13.3111 19.4357C14.1177 14.1317 15.6302 10.4893 18.2572 9.28066C21.8586 4.75544 25.4573 2.99415 30.7199 2.5197Z" fill="#D7F205"/>
</g>
<defs>
<filter id="filter0_d_13_204" x="0.519775" y="0.36377" width="221.163" height="197.455" filterUnits="userSpaceOnUse" color-interpolation-filters="sRGB">
<feFlood flood-opacity="0" result="BackgroundImageFix"/>
<feColorMatrix in="SourceAlpha" type="matrix" values="0 0 0 0 0 0 0 0 0 0 0 0 0 0 0 0 0 0 127 0" result="hardAlpha"/>
<feOffset dx="-3" dy="4"/>
<feGaussianBlur stdDeviation="2"/>
<feComposite in2="hardAlpha" operator="out"/>
<feColorMatrix type="matrix" values="0 0 0 0 0 0 0 0 0 0 0 0 0 0 0 0 0 0 0.25 0"/>
<feBlend mode="normal" in2="BackgroundImageFix" result="effect1_dropShadow_13_204"/>
<feBlend mode="normal" in="SourceGraphic" in2="effect1_dropShadow_13_204" result="shape"/>
</filter>
</defs>
</svg>
