<svg width="517" height="51" viewBox="0 0 517 51" fill="none" xmlns="http://www.w3.org/2000/svg">
<path d="M23.1406 10.5352C24.0837 10.1659 25.1541 9.92719 26.3547 9.92719C39.5833 6.00337 64.4986 3.91668 103.049 3.94896C285.34 4.10161 236.475 4.89159 272.772 4.97828C334.849 5.12653 470.045 -1.61037 491.702 0.362024C517.178 2.68231 509.645 3.96419 516.575 14.7098C519.757 19.6425 504.757 43.6818 481.71 46.2111C469.828 47.5152 445.393 47.6207 416.715 48.2392C383.146 48.9632 319.02 46.6001 191.662 49.4037C170.274 49.8746 150.947 49.9408 133.796 49.6484C125.207 49.502 117.163 49.2657 109.681 48.9453C86.6566 49.4178 60.3986 51.1792 39.4253 49.6873C33.6406 49.9205 30.1604 49.6445 31.5366 48.2392C31.5716 48.2034 31.6034 48.168 31.6321 48.133C28.0591 47.0948 23.527 45.7675 19.0177 44.1784C12.1405 42.8954 5.01121 41.119 4.74501 37.4927C-0.666727 33.686 -2.43512 29.1734 4.74501 24.1032C11.8578 19.0805 8.64608 13.6718 23.1406 10.5352Z" fill="#FF3175"/>
</svg>
