<svg width="144" height="97" viewBox="0 0 144 97" fill="none" xmlns="http://www.w3.org/2000/svg">
<path d="M9.35936 10.8559C10.5871 7.55394 12.1863 5.28091 14.2811 4.55244C18.315 0.502019 22.4053 0.95895 32.1202 1.38491C83.39 3.6329 71.1631 0.594851 81.3678 1.17169C98.8203 2.15823 130.632 -1.53861 136.585 3.21488C143.587 8.8068 142.256 31.33 143.445 56.0709C143.99 67.4283 142.495 83.6223 135.833 89.1892C132.436 92.0277 126.239 92.8842 118.257 93.9875L117.99 94.0243C108.496 95.337 101.162 97.4313 58.0092 95.8345C43.3298 95.2913 33.3996 95.4217 26.282 94.2513C26.065 94.2706 25.8423 94.2888 25.6126 94.3049C18.3053 94.3653 10.456 92.7316 3.91662 87.4576C1.1125 79.6555 -2.09192 56.1668 3.88255 27.1198C5.71987 18.1871 6.82344 14.6996 9.35936 10.8559Z" fill="#FF3175"/>
</svg>
