<svg width="95" height="320" viewBox="0 0 95 320" fill="none" xmlns="http://www.w3.org/2000/svg">
<path d="M88.0076 159.627C86.9359 147.291 87.2051 134.84 86.8576 122.322C85.6065 119.38 85.8311 116.961 85.6116 112.113C84.6747 83.3479 85.8735 67.481 84.6141 56.4298C83.8526 49.7692 84.4159 40.4628 79.5347 37.0619C77.1851 35.4249 74.3557 34.3328 71.5474 33.2489C65.9096 31.0729 67.0372 31.6466 57.4252 28.5653C48.6934 25.7662 40.2945 18.2366 35.7848 10.3607C30.7155 1.50764 31.1872 -2.05409 23.2174 1.5692C17.2727 4.27179 1.30864 16.8579 0.906272 24.8785C0.294305 37.077 3.69157 60.9096 3.88521 85.3379C4.05226 106.413 5.92601 120.845 6.20453 125.641C7.02532 139.776 9.51891 152.535 10.0281 166.525C10.9342 191.421 14.4155 215.476 14.5752 235.607C15.0004 289.231 15.7114 292.837 17.6187 300.745L17.7278 301.198C19.5727 308.855 20.0565 310.863 25.704 315.143C31.1255 319.252 38.5236 317.494 44.2411 318.628C52.26 320.219 60.9148 319.664 74.5428 316.948C81.7727 315.507 88.342 317.211 91.7955 310.785C95.2459 304.365 94.5652 257.29 92.5515 230.928C92.0426 224.265 93.1067 217.479 91.1553 202.624C89.9157 193.187 90.1469 184.253 88.0076 159.627Z" fill="#FF3175"/>
</svg>
