<svg width="206" height="140" viewBox="0 0 206 140" fill="none" xmlns="http://www.w3.org/2000/svg">
<g filter="url(#filter0_d_13_200)">
<path d="M21.8278 11.0868C22.6615 9.38181 23.8016 7.54865 24.5624 7.52745C26.5103 4.81908 28.5427 2.98987 30.5827 2.33548C35.1693 0.058473 40.8563 0.530068 51.0465 0.97687C121.503 4.0661 104.7 -0.108849 118.724 0.683854C142.707 2.03958 186.424 -3.0407 194.604 3.49165C204.227 11.1762 202.397 42.128 204.031 76.1276C204.781 91.7351 202.726 113.989 193.571 121.639C188.902 125.54 180.387 126.717 169.417 128.233L169.051 128.284C156.004 130.088 145.925 132.966 86.6237 130.771C54.2254 129.573 36.4297 134.341 26.6749 126.677C24.679 126.098 22.704 125.377 20.7691 124.493C18.6111 124.006 16.412 123.308 14.3204 120.794C13.6338 120.309 12.9562 119.798 12.2885 119.26C11.8261 117.973 11.3559 116.377 10.9004 114.494C9.92747 111.922 9.3496 108.371 9.04053 104.264C6.92996 88.5851 6.48241 64.343 12.2417 36.3423C15.215 21.8865 16.79 17.8078 21.8278 11.0868Z" fill="#D7F205"/>
</g>
<defs>
<filter id="filter0_d_13_200" x="0.596191" y="0.0688324" width="204.576" height="139.494" filterUnits="userSpaceOnUse" color-interpolation-filters="sRGB">
<feFlood flood-opacity="0" result="BackgroundImageFix"/>
<feColorMatrix in="SourceAlpha" type="matrix" values="0 0 0 0 0 0 0 0 0 0 0 0 0 0 0 0 0 0 127 0" result="hardAlpha"/>
<feOffset dx="-3" dy="4"/>
<feGaussianBlur stdDeviation="2"/>
<feComposite in2="hardAlpha" operator="out"/>
<feColorMatrix type="matrix" values="0 0 0 0 0 0 0 0 0 0 0 0 0 0 0 0 0 0 0.25 0"/>
<feBlend mode="normal" in2="BackgroundImageFix" result="effect1_dropShadow_13_200"/>
<feBlend mode="normal" in="SourceGraphic" in2="effect1_dropShadow_13_200" result="shape"/>
</filter>
</defs>
</svg>
