<svg width="600" height="466" viewBox="0 0 600 466" fill="none" xmlns="http://www.w3.org/2000/svg">
<g filter="url(#filter0_d_13_186)">
<path d="M41.5326 139.994C41.5338 139.994 41.535 139.994 41.5363 139.994C41.5636 139.991 41.5903 139.989 41.6163 139.986C42.4904 139.907 43.3662 139.828 44.2407 139.748C56.9881 138.588 69.4787 137.396 72.6877 136.368C79.3063 134.248 85.9001 132.136 92.7915 131.072C101.836 129.675 114.49 122.639 123.918 117.318C130.778 113.447 136.04 107.805 145.939 97.4902C152.183 90.9841 157.524 85.5711 161.936 79.2106C166.348 72.85 169.654 66.5133 173.231 60.1528C176.594 54.1754 177.917 47.4555 180.123 41.095L180.123 41.0948C182.329 34.7343 184.527 28.3976 185.634 22.0371C186.241 18.5486 185.634 16.1229 189.212 11.7142C196.65 2.54963 224.458 5.08363 235.192 4.28162C242.757 3.71635 244.549 5.08363 275.858 4.28162C297.93 3.71619 325.526 1.90733 347.506 1.10532C354.752 0.840901 385.317 -0.22079 429.375 0.0412548C445.077 0.134644 447.256 0.827389 461.469 1.09738C501.851 1.86451 532.646 1.36736 539.248 1.62941C551.963 2.13407 568.458 4.00369 581.935 5.06775C590.58 5.75033 592.718 15.629 596.023 23.2997C603.076 39.6681 595.494 56.9209 594.66 67.2359C594.062 74.619 591.627 83.8877 592.999 91.8681C594.086 98.1924 591.627 117.525 592.999 136.368C594.504 157.053 592.734 172.173 591.908 180.32C590.08 198.342 591.082 211.877 590.255 236.009C589.483 258.558 585.84 305.034 585.567 328.229C585.102 367.738 586.401 390.407 585.567 396.768C584.721 403.214 583.096 409.465 582.262 419.78C581.935 423.823 580.336 426.95 578.692 429.857C573.426 439.165 556.956 435.981 549.792 437.045C540.13 438.48 533.819 440.745 520.342 441.547C506.279 442.384 486.456 443.921 479.275 444.724C470.962 445.652 461.105 447.098 425.136 447.9C409.8 448.242 403.264 450.274 389.787 451.076C378.97 451.72 366.907 453.45 344.655 454.252C328.865 454.822 313.495 454.53 302.464 453.728C296.925 453.326 276.163 452.402 247.532 452.664C234.146 452.787 217.182 453.99 194.608 453.728C166.482 453.402 130.057 453.45 120.943 454.252C109.644 455.247 94.2292 456.627 87.6106 456.905C71.6763 457.574 46.304 454.53 36.942 453.728C29.3784 453.08 23.1677 447.13 19.8377 441.309C16.3129 435.148 15.4732 427.405 14.659 419.898L14.599 419.345C13.8548 412.498 11.5665 381.221 12.6654 360.321C13.0869 352.305 10.4757 344.98 9.64118 300.909C9.42267 289.37 8.26127 270.988 8.53394 245.585C8.7794 222.718 8.82315 198.33 8.53394 190.651C8.20171 181.83 8.82315 171.331 7.98859 161.016C7.66148 156.973 6.60867 153.322 7.15403 149.359C7.41849 147.438 8.79009 145.921 10.17 144.849C10.9423 144.249 11.8466 143.768 12.8611 143.38C12.8953 143.319 13.1196 143.228 13.5637 143.103C13.7028 143.064 13.8607 143.025 14.0365 142.985C14.2273 142.928 14.4213 142.875 14.6182 142.823C16.9606 142.213 19.7257 141.944 22.7156 141.787C27.9415 141.223 34.6818 140.615 41.5326 139.994Z" fill="#D7F205"/>
</g>
<defs>
<filter id="filter0_d_13_186" x="0" y="0" width="600" height="466" filterUnits="userSpaceOnUse" color-interpolation-filters="sRGB">
<feFlood flood-opacity="0" result="BackgroundImageFix"/>
<feColorMatrix in="SourceAlpha" type="matrix" values="0 0 0 0 0 0 0 0 0 0 0 0 0 0 0 0 0 0 127 0" result="hardAlpha"/>
<feOffset dx="-3" dy="5"/>
<feGaussianBlur stdDeviation="2"/>
<feComposite in2="hardAlpha" operator="out"/>
<feColorMatrix type="matrix" values="0 0 0 0 0 0 0 0 0 0 0 0 0 0 0 0 0 0 0.25 0"/>
<feBlend mode="normal" in2="BackgroundImageFix" result="effect1_dropShadow_13_186"/>
<feBlend mode="normal" in="SourceGraphic" in2="effect1_dropShadow_13_186" result="shape"/>
</filter>
</defs>
</svg>
